<?xml version="1.0" encoding="UTF-8" standalone="no"?>
<!DOCTYPE svg PUBLIC "-//W3C//DTD SVG 1.1//EN" "http://www.w3.org/Graphics/SVG/1.1/DTD/svg11.dtd">
<svg width="100%" height="100%" viewBox="0 0 500 500" version="1.1" xmlns="http://www.w3.org/2000/svg" xmlns:xlink="http://www.w3.org/1999/xlink" xml:space="preserve" xmlns:serif="http://www.serif.com/" style="fill-rule:evenodd;clip-rule:evenodd;stroke-linejoin:round;stroke-miterlimit:2;">
    <g>
        <rect x="0" y="0" width="500" height="500" style="fill:white;fill-rule:nonzero;"/>
        <path d="M251.552,140.594C247.146,125.371 241.555,108.6 227.921,101.163C218.145,95.832 206.421,96.629 195.396,97.563C168.411,99.849 140.238,99.851 113.23,97.563C102.204,96.629 90.48,95.832 80.704,101.163C67.07,108.6 61.479,125.371 57.073,140.594C52.682,155.764 48.829,173.923 58.767,186.002C66.833,195.806 80.725,197.316 93.181,198.119C134.213,200.765 174.435,200.764 215.444,198.119C227.9,197.316 241.792,195.806 249.858,186.002C259.795,173.923 255.943,155.764 251.552,140.594Z" style="fill:rgb(235,56,66);fill-rule:nonzero;"/>
        <path d="M252.222,142.963C252.392,147.257 252.306,151.548 251.808,155.823C250.473,167.284 245.808,178.806 236.946,185.881C228.477,192.642 217.36,194.568 206.707,195.78C170.185,199.934 133.041,198.235 97.02,190.761C87.015,188.684 76.661,185.941 69.01,178.987C62.219,172.814 58.269,163.868 56.41,154.74C55.902,152.242 55.546,149.721 55.285,147.188C51.874,160.783 50.234,175.632 58.767,186.002C66.833,195.805 80.725,197.316 93.181,198.119C134.213,200.765 174.435,200.764 215.444,198.119C227.9,197.316 241.792,195.805 249.858,186.002C259.285,174.545 256.301,157.622 252.222,142.963Z" style="fill:rgb(201,48,57);fill-rule:nonzero;"/>
        <path d="M100.874,99.147C94.302,99.147 87.569,100 81.789,103.152C69.165,110.038 63.732,125.736 59.249,141.223C54.601,157.284 51.538,173.65 60.516,184.562C67.876,193.508 80.76,195.048 93.327,195.858C134.363,198.504 174.261,198.504 215.298,195.858C227.864,195.048 240.747,193.508 248.109,184.562C257.087,173.652 254.023,157.283 249.376,141.223C244.892,125.735 239.459,110.037 226.837,103.152C217.345,97.976 205.28,98.998 195.588,99.821C168.585,102.108 140.039,102.108 113.039,99.821C109.248,99.499 105.094,99.147 100.874,99.147ZM154.312,202.374C133.982,202.374 113.652,201.71 93.035,200.381C79.477,199.506 65.529,197.787 57.018,187.441C46.677,174.875 50.143,156.389 54.896,139.964C59.645,123.558 65.465,106.895 79.619,99.175C90.305,93.345 103.121,94.431 113.421,95.305C140.172,97.571 168.452,97.571 195.204,95.305C205.505,94.434 218.323,93.347 229.006,99.175C243.159,106.894 248.98,123.557 253.728,139.964C258.482,156.39 261.946,174.876 251.608,187.441C243.096,197.787 229.147,199.506 215.59,200.381C194.973,201.71 174.643,202.374 154.312,202.374Z" style="fill:rgb(92,22,26);fill-rule:nonzero;"/>
        <path d="M235.39,140.872C231.716,128.543 227.054,114.96 215.686,108.938C207.536,104.62 197.76,105.265 188.568,106.021C166.068,107.873 142.578,107.874 120.058,106.021C110.865,105.265 101.09,104.62 92.939,108.938C81.571,114.96 76.909,128.543 73.235,140.872C69.574,153.159 66.361,167.866 74.647,177.649C81.373,185.589 92.956,186.812 103.342,187.462C137.554,189.605 171.09,189.604 205.283,187.462C215.669,186.812 227.252,185.589 233.977,177.649C242.264,167.866 239.05,153.159 235.39,140.872Z" style="fill:rgb(128,30,36);fill-rule:nonzero;"/>
        <path d="M224.341,116.278C227.455,134.553 228.382,153.202 227.003,171.69C223.905,168.128 220.807,164.566 217.709,161.004C215.624,169.658 213.539,178.313 211.454,186.968C220.004,186.076 228.564,184.039 233.977,177.649C242.264,167.866 239.05,153.159 235.39,140.872C232.832,132.288 229.788,123.103 224.341,116.278Z" style="fill:rgb(110,26,31);fill-rule:nonzero;"/>
        <path d="M93.592,186.518C93.519,186.507 93.451,186.486 93.377,186.475C91.908,174.664 90.439,162.852 88.97,151.04C85.656,154.887 82.343,158.734 79.029,162.581C82.533,145.43 86.037,128.278 89.54,111.127C80.603,117.858 76.517,129.857 73.235,140.872C69.574,153.159 66.361,167.866 74.647,177.649C79.304,183.146 86.289,185.421 93.592,186.518Z" style="fill:rgb(110,26,31);fill-rule:nonzero;"/>
        <path d="M182.165,140.921C178.517,139.537 174.578,138.526 170.732,139.183C166.886,139.839 163.177,142.514 162.312,146.318C161.681,149.091 162.594,152.004 162.21,154.821C161.675,158.737 158.378,162.112 154.477,162.739C150.575,163.365 146.388,161.193 144.653,157.642C143.014,154.286 143.502,150.211 141.961,146.808C139.673,141.756 133.317,139.551 127.852,140.496C122.387,141.442 117.685,144.848 113.493,148.48C101.95,158.48 92.59,170.984 86.238,184.872C91.64,186.572 97.667,187.107 103.342,187.462C137.554,189.605 171.09,189.604 205.283,187.462C209.385,187.205 213.671,186.851 217.773,186.037C214.94,166.209 200.976,148.063 182.165,140.921Z" style="fill:rgb(92,22,26);fill-rule:nonzero;"/>
        <path d="M196.195,152.772C193.885,157.905 189.728,164.115 187.418,169.249C162.425,164.759 137.478,165.142 112.921,171.602C108.676,166.63 104.818,160.626 100.573,155.654C95.92,165.323 91.268,174.992 86.615,184.66C86.64,184.776 86.652,184.889 86.672,185.003C91.962,186.597 97.818,187.116 103.342,187.462C137.554,189.605 171.09,189.604 205.283,187.462C209.987,187.168 214.934,186.748 219.566,185.648C213.509,173.811 204.87,162.648 196.195,152.772Z" style="fill:white;fill-rule:nonzero;"/>
        <path d="M165.915,166.63L165.915,182.412L169.856,166.922C168.542,166.809 167.228,166.714 165.915,166.63Z" style="fill:rgb(214,214,214);fill-rule:nonzero;"/>
        <path d="M117.224,170.537C115.789,170.873 114.354,171.225 112.921,171.602C110.404,168.654 108.022,165.344 105.616,162.1L104.504,164.023L120.703,188.345C121.064,188.36 121.425,188.373 121.787,188.388L117.224,170.537Z" style="fill:rgb(214,214,214);fill-rule:nonzero;"/>
        <path d="M191.161,162.148C189.768,164.599 188.418,167.026 187.418,169.249C186.987,169.171 186.556,169.107 186.125,169.032L183.271,181.465L191.161,165.686L191.161,162.148Z" style="fill:rgb(214,214,214);fill-rule:nonzero;"/>
        <path d="M138.878,167.012L138.878,183.99L142.668,166.698C141.404,166.788 140.141,166.893 138.878,167.012Z" style="fill:rgb(214,214,214);fill-rule:nonzero;"/>
        <path d="M225.527,117.863C222.922,114.198 219.735,111.083 215.686,108.938C207.536,104.62 197.76,105.265 188.568,106.021C166.068,107.873 142.578,107.874 120.058,106.021C110.865,105.265 101.09,104.62 92.939,108.938C92.246,109.305 91.58,109.702 90.936,110.123C91.361,122.678 91.787,135.232 92.212,147.787C97.903,141.213 104.404,135.045 110.095,128.471C139.202,138.04 171.19,138.735 200.427,129.57C204.382,136.013 208.063,142.942 212.018,149.385C216.753,139.079 221.073,128.413 225.527,117.863Z" style="fill:white;fill-rule:nonzero;"/>
        <path d="M197.019,130.562C198.156,130.237 199.297,129.925 200.427,129.57C201.259,130.926 202.074,132.311 202.887,133.7L203.965,131.394L196.314,116.278L197.019,130.562Z" style="fill:rgb(214,214,214);fill-rule:nonzero;"/>
        <path d="M114.039,129.685L116.82,117.213L104.504,131.022L105.476,133.574C107.051,131.891 108.602,130.196 110.095,128.471C111.402,128.901 112.721,129.291 114.039,129.685Z" style="fill:rgb(214,214,214);fill-rule:nonzero;"/>
        <path d="M170.003,121.505L169.109,135.573C170.729,135.444 172.347,135.294 173.963,135.111L170.003,121.505Z" style="fill:rgb(214,214,214);fill-rule:nonzero;"/>
        <path d="M141.079,135.145L141.079,120.386C141.079,120.03 138.532,128.437 136.677,134.607C138.142,134.81 139.609,134.985 141.079,135.145Z" style="fill:rgb(214,214,214);fill-rule:nonzero;"/>
        <path d="M93.936,108.452C132.535,122.368 176.059,122.236 214.696,108.456C206.75,104.684 197.393,105.295 188.568,106.021C166.068,107.873 142.578,107.874 120.058,106.021C111.236,105.295 101.881,104.685 93.936,108.452Z" style="fill:rgb(214,214,214);fill-rule:nonzero;"/>
        <path d="M89.703,183.468C94.29,184.549 99.169,184.931 103.484,185.201C137.683,187.344 170.936,187.344 205.142,185.201C208.75,184.975 212.527,184.672 216.147,184.037C211.513,175.593 205.121,166.644 196.719,156.833C195.8,158.581 194.776,160.377 193.773,162.136C192.21,164.877 190.595,167.712 189.484,170.179C189.056,171.127 188.051,171.66 187.016,171.48C161.502,166.894 136.764,167.672 113.497,173.793C112.657,174.014 111.763,173.735 111.198,173.073C109.023,170.526 106.939,167.703 104.924,164.974C103.664,163.266 102.375,161.521 101.068,159.851L89.703,183.468ZM154.311,191.339C137.35,191.339 120.398,190.801 103.201,189.723C97.877,189.39 91.721,188.891 86.018,187.172C85.193,186.924 84.58,186.228 84.437,185.378C84.435,185.364 84.414,185.231 84.412,185.217C84.306,184.724 84.354,184.132 84.573,183.678L98.531,154.672C98.863,153.981 99.522,153.506 100.282,153.408C101.045,153.304 101.8,153.6 102.296,154.183C104.471,156.73 106.555,159.553 108.57,162.282C110.251,164.56 111.982,166.904 113.741,169.05C136.717,163.226 161.05,162.442 186.109,166.72C187.205,164.507 188.538,162.168 189.836,159.892C191.401,157.148 193.018,154.311 194.129,151.842C194.446,151.14 195.096,150.646 195.859,150.531C196.62,150.415 197.389,150.696 197.898,151.277C208.576,163.432 216.323,174.337 221.583,184.615C221.9,185.235 221.915,185.966 221.624,186.597C221.332,187.228 220.767,187.691 220.09,187.852C215.299,188.99 210.21,189.424 205.425,189.723C188.229,190.8 171.267,191.339 154.311,191.339Z" style="fill:rgb(92,22,26);fill-rule:nonzero;"/>
        <path d="M200.427,127.305C201.199,127.305 201.938,127.7 202.358,128.385C204.354,131.637 206.304,135.052 208.189,138.354C209.35,140.387 210.536,142.463 211.737,144.51C214.653,137.979 217.454,131.275 220.18,124.755C221.098,122.559 222.015,120.363 222.939,118.171C220.488,114.972 217.76,112.6 214.625,110.939C206.8,106.795 196.794,107.617 188.754,108.28C166.225,110.132 142.407,110.132 119.872,108.28C111.832,107.618 101.826,106.795 93.999,110.94C93.749,111.073 93.497,111.213 93.245,111.36L94.286,142.089C96.021,140.216 97.785,138.372 99.516,136.563C102.495,133.451 105.573,130.233 108.382,126.988C108.981,126.297 109.938,126.034 110.802,126.319C139.895,135.88 171.482,136.269 199.75,127.409C199.973,127.338 200.202,127.305 200.427,127.305ZM212.017,151.651C211.232,151.651 210.499,151.244 210.086,150.57C208.09,147.318 206.14,143.904 204.255,140.601C202.677,137.837 201.053,134.993 199.405,132.253C171.15,140.715 139.822,140.304 110.817,131.086C108.219,134.023 105.464,136.901 102.791,139.695C99.813,142.808 96.734,146.026 93.925,149.27C93.316,149.974 92.337,150.235 91.457,149.923C90.579,149.612 89.98,148.795 89.948,147.864L88.671,110.2C88.644,109.407 89.033,108.66 89.696,108.226C90.416,107.755 91.15,107.322 91.877,106.936C100.874,102.169 111.613,103.053 120.244,103.763C142.533,105.597 166.096,105.599 188.382,103.763C197.011,103.055 207.751,102.17 216.746,106.936C220.84,109.104 224.315,112.249 227.374,116.551C227.828,117.191 227.92,118.021 227.615,118.745C226.525,121.326 225.443,123.914 224.361,126.503C221.071,134.374 217.668,142.513 214.076,150.331C213.727,151.091 212.988,151.597 212.153,151.647C212.107,151.649 212.061,151.651 212.017,151.651Z" style="fill:rgb(92,22,26);fill-rule:nonzero;"/>
        <path d="M109.758,107.735C104.32,107.735 98.757,108.419 93.999,110.94C83.61,116.444 79.118,129.064 75.407,141.519C71.569,154.398 69.031,167.512 76.376,176.184C82.418,183.316 93.08,184.549 103.484,185.201C137.683,187.344 170.935,187.344 205.142,185.201C215.546,184.549 226.207,183.316 232.249,176.184C239.595,167.512 237.057,154.398 233.218,141.519C229.507,129.064 225.013,116.443 214.625,110.94C206.8,106.794 196.794,107.617 188.754,108.28C166.225,110.132 142.407,110.132 119.872,108.28C116.72,108.02 113.264,107.735 109.758,107.735ZM154.311,191.339C137.353,191.339 120.396,190.801 103.201,189.723C91.822,189.011 80.111,187.604 72.919,179.113C64.156,168.768 67.064,153.65 71.064,140.226C75.05,126.85 79.94,113.26 91.878,106.935C100.874,102.169 111.614,103.053 120.244,103.763C142.533,105.597 166.096,105.599 188.382,103.763C197.011,103.055 207.751,102.17 216.746,106.936C228.684,113.26 233.574,126.849 237.561,140.226C241.561,153.65 244.469,168.768 235.707,179.113C228.514,187.604 216.804,189.011 205.425,189.723C188.227,190.801 171.268,191.339 154.311,191.339Z" style="fill:rgb(92,22,26);fill-rule:nonzero;"/>
        <path d="M88.414,104.577C82.134,106.198 76.974,110.838 73.396,116.248C69.818,121.657 67.622,127.841 65.461,133.955C71.919,123.03 79.288,113.396 88.414,104.577Z" style="fill:white;fill-rule:nonzero;"/>
        <path d="M226.529,108.202C234.399,115.558 239.887,125.424 241.988,135.99C236.213,127.429 231.18,117.429 226.529,108.202Z" style="fill:white;fill-rule:nonzero;"/>
        <path d="M118.75,208.244C132.924,206.576 147.73,206.383 162.002,206.414C176.279,206.663 191.06,207.149 205.208,209.113C191.034,210.793 176.228,210.982 161.956,210.943C147.679,210.686 132.898,210.198 118.75,208.244Z" style="fill:rgb(92,22,26);fill-rule:nonzero;"/>
        <path d="M55.004,124.499C49.349,137.805 45.3,151.069 42.487,165.249C38.833,150.908 43.949,134.328 55.004,124.499Z" style="fill:rgb(92,22,26);fill-rule:nonzero;"/>
        <path d="M37.276,144.259C37.331,154.352 36.033,164.04 33.254,173.745C29.721,164.107 31.313,152.606 37.276,144.259Z" style="fill:rgb(92,22,26);fill-rule:nonzero;"/>
        <path d="M259.394,134.393C268.945,146.762 270.52,165.266 263.141,179.049C264.159,163.848 262.955,149.21 259.394,134.393Z" style="fill:rgb(92,22,26);fill-rule:nonzero;"/>
        <path d="M273.533,155.887C278.749,168.267 276.065,183.977 266.986,193.888C270.225,181.203 272.364,168.928 273.533,155.887Z" style="fill:rgb(92,22,26);fill-rule:nonzero;"/>
        <path d="M256.829,326.16C252.747,313.438 243.202,302.082 231.486,301.196C221.701,300.456 212.748,306.842 203.963,311.874C187.237,321.454 168.679,326.714 150.019,327.214C131.358,326.714 112.8,321.454 96.074,311.874C87.289,306.842 78.335,300.456 68.551,301.196C56.835,302.082 47.29,313.438 43.207,326.16C39.123,338.882 39.402,352.838 39.733,366.402C39.99,376.907 40.285,387.646 43.534,397.461C46.782,407.276 53.602,416.166 62.524,418.193C72.757,420.518 82.625,413.655 91.972,408.311C109.939,398.038 129.976,392.674 150.019,392.673C170.061,392.674 190.098,398.038 208.064,408.311C217.411,413.655 227.28,420.518 237.512,418.193C246.435,416.166 253.254,407.276 256.502,397.461C259.752,387.646 260.047,376.907 260.303,366.402C260.635,352.838 260.913,338.882 256.829,326.16Z" style="fill:rgb(235,56,66);fill-rule:nonzero;"/>
        <path d="M256.502,397.461C259.752,387.645 260.047,376.907 260.303,366.402C260.413,361.94 260.512,357.435 260.456,352.946C259.523,356.543 258.592,360.141 257.659,363.738C255.504,372.053 253.136,380.762 247.183,386.954C240.231,394.185 229.398,396.64 219.431,395.509C209.465,394.378 200.147,390.106 191.227,385.52C182.306,380.933 173.489,375.936 163.851,373.157C148.925,368.853 132.429,370.258 118.447,377.023C109.074,381.558 100.963,388.309 91.965,393.55C82.967,398.791 72.373,402.563 62.217,400.264C52.645,398.098 45.101,390.771 40.492,381.959C41.001,387.263 41.885,392.481 43.534,397.461C46.782,407.276 53.602,416.166 62.524,418.193C72.757,420.518 82.625,413.655 91.972,408.311C109.939,398.038 129.976,392.674 150.019,392.673C170.061,392.674 190.098,398.038 208.064,408.311C217.411,413.655 227.279,420.518 237.512,418.193C246.435,416.166 253.254,407.276 256.502,397.461Z" style="fill:rgb(201,48,57);fill-rule:nonzero;"/>
        <path d="M70.095,303.404C69.638,303.404 69.18,303.421 68.722,303.456C57.502,304.304 48.906,315.817 45.364,326.851C41.34,339.389 41.69,353.711 41.998,366.346C42.248,376.573 42.506,387.146 45.684,396.749C48.331,404.744 54.276,413.996 63.026,415.983C71.213,417.84 79.546,412.957 87.603,408.231C88.692,407.592 89.773,406.958 90.848,406.345C109.082,395.919 129.542,390.408 150.018,390.408C170.493,390.408 190.954,395.919 209.188,406.345C210.263,406.958 211.346,407.592 212.434,408.231C220.49,412.957 228.82,417.843 237.011,415.983C245.761,413.996 251.705,404.744 254.352,396.749C257.53,387.146 257.789,376.573 258.038,366.346C258.347,353.714 258.699,339.395 254.672,326.851C251.132,315.817 242.535,304.304 231.314,303.456C223.632,302.885 216.119,307.325 208.859,311.63C207.598,312.378 206.341,313.123 205.088,313.839C188.116,323.562 169.094,328.969 150.078,329.478C130.942,328.969 111.92,323.562 94.948,313.839C93.697,313.123 92.441,312.379 91.182,311.631C84.353,307.582 77.306,303.404 70.095,303.404ZM233.358,420.918C225.105,420.918 217.225,416.295 210.141,412.14C209.067,411.51 208,410.885 206.94,410.277C189.389,400.244 169.706,394.939 150.018,394.939C130.33,394.939 110.648,400.244 93.097,410.277C92.036,410.883 90.97,411.51 89.896,412.14C81.49,417.071 71.96,422.662 62.022,420.402C53.164,418.39 45.255,409.873 41.383,398.174C37.993,387.931 37.714,376.523 37.468,366.458C37.151,353.463 36.791,338.734 41.05,325.467C45.055,312.987 55.059,299.944 68.38,298.937C77.504,298.245 85.627,303.07 93.492,307.734C94.733,308.469 95.968,309.202 97.2,309.907C113.524,319.257 131.809,324.46 150.078,324.95C168.226,324.46 186.511,319.257 202.838,309.907C204.069,309.2 205.305,308.467 206.547,307.733C214.41,303.069 222.531,298.241 231.656,298.937C244.978,299.944 254.982,312.987 258.988,325.467C263.246,338.74 262.887,353.466 262.569,366.458C262.323,376.523 262.044,387.931 258.653,398.174C254.782,409.871 246.873,418.39 238.014,420.402C236.452,420.758 234.897,420.918 233.358,420.918Z" style="fill:rgb(92,22,26);fill-rule:nonzero;"/>
        <path d="M242.898,334.512C239.347,324.94 231.047,316.396 220.859,315.729C212.351,315.172 204.566,319.977 196.926,323.763C182.383,330.971 166.245,334.93 150.019,335.305C133.792,334.93 117.654,330.971 103.111,323.763C95.471,319.977 87.685,315.172 79.177,315.729C68.989,316.396 60.69,324.94 57.139,334.512C53.588,344.085 53.83,354.586 54.118,364.792C54.341,372.696 54.598,380.776 57.423,388.162C60.248,395.547 66.178,402.236 73.937,403.761C82.835,405.51 91.416,400.347 99.544,396.325C115.167,388.596 132.59,384.56 150.019,384.559C167.447,384.56 184.87,388.596 200.493,396.325C208.621,400.347 217.202,405.51 226.1,403.761C233.859,402.236 239.788,395.547 242.613,388.162C245.438,380.776 245.695,372.696 245.918,364.792C246.206,354.586 246.448,344.085 242.898,334.512Z" style="fill:rgb(128,30,36);fill-rule:nonzero;"/>
        <path d="M245.918,364.792C246.206,354.586 246.448,344.085 242.898,334.512C241.02,329.45 237.804,324.688 233.692,321.214C240.89,342.075 240.497,365.549 232.234,386.037C231.042,377.916 229.85,369.795 228.657,361.674C222.162,374.652 215.666,387.631 209.17,400.609C214.655,403.106 220.309,404.899 226.1,403.761C233.859,402.236 239.788,395.547 242.613,388.162C245.438,380.776 245.695,372.696 245.918,364.792Z" style="fill:rgb(110,26,31);fill-rule:nonzero;"/>
        <path d="M73.847,371.42C71.764,375.438 69.68,379.456 67.597,383.474C61.781,362.848 61.951,340.603 67.871,320.016C63.025,323.541 59.243,328.839 57.139,334.512C53.588,344.085 53.83,354.586 54.118,364.792C54.341,372.696 54.598,380.776 57.423,388.162C60.248,395.547 66.178,402.236 73.937,403.761C78.845,404.726 83.656,403.583 88.349,401.693C83.515,391.602 78.681,381.511 73.847,371.42Z" style="fill:rgb(110,26,31);fill-rule:nonzero;"/>
        <path d="M212.518,363.517C172.225,354.641 128.757,355.916 88.742,365.97C87.649,378.229 86.557,390.488 85.464,402.747C90.284,401.195 94.985,398.581 99.544,396.325C115.167,388.596 132.59,384.56 150.019,384.559C167.447,384.56 184.87,388.596 200.493,396.325C207.686,399.884 215.234,404.327 223.042,404.093C219.764,390.852 215.423,376.298 212.518,363.517Z" style="fill:white;fill-rule:nonzero;"/>
        <path d="M110.372,391.674C105.599,390.138 101.009,387.948 96.748,385.202C94.6,388.33 90.436,389.921 86.75,389.022C86.729,389.017 86.71,389.007 86.689,389.002C86.281,393.584 85.872,398.166 85.464,402.747C90.284,401.195 94.985,398.581 99.544,396.325C103.067,394.582 106.686,393.037 110.372,391.674Z" style="fill:rgb(235,115,92);fill-rule:nonzero;"/>
        <path d="M200.493,396.325C207.686,399.884 215.234,404.327 223.042,404.093C222.283,401.026 221.463,397.886 220.621,394.717C218.104,395.851 215.322,396.401 212.565,396.234C207.055,395.9 201.937,392.116 199.085,387.389C195.69,390.335 191.833,391.633 187.407,390.854C187.403,390.856 187.399,390.858 187.395,390.861C191.869,392.408 196.249,394.226 200.493,396.325Z" style="fill:rgb(235,115,92);fill-rule:nonzero;"/>
        <path d="M172.889,358.072L172.889,376.431L179.478,358.558C177.285,358.372 175.09,358.204 172.889,358.072Z" style="fill:rgb(214,214,214);fill-rule:nonzero;"/>
        <path d="M136.756,358.313L138.066,374.295L142.566,357.938C140.627,358.037 138.691,358.174 136.756,358.313Z" style="fill:rgb(214,214,214);fill-rule:nonzero;"/>
        <path d="M198.246,360.828L198.246,373.447L203.602,361.744C201.821,361.421 200.037,361.113 198.246,360.828Z" style="fill:rgb(214,214,214);fill-rule:nonzero;"/>
        <path d="M113.464,378.961L113.464,360.967C112.389,361.135 111.315,361.305 110.243,361.486L113.464,378.961Z" style="fill:rgb(214,214,214);fill-rule:nonzero;"/>
        <path d="M150.018,382.293C167.826,382.293 185.628,386.443 201.497,394.295C202.424,394.753 203.36,395.228 204.299,395.705C209.478,398.332 214.808,401.034 220.1,401.688C218.895,396.962 217.571,392.061 216.283,387.297C214.303,379.978 212.262,372.424 210.632,365.426C172.646,357.304 130.243,358.136 90.855,367.78L88.04,399.375C90.625,398.299 93.203,396.991 95.722,395.712C96.667,395.233 97.606,394.756 98.539,394.295C114.409,386.443 132.209,382.293 150.018,382.293ZM222.435,406.368C215.308,406.368 208.673,403.004 202.25,399.747C201.324,399.276 200.402,398.81 199.488,398.357C184.24,390.812 167.133,386.825 150.018,386.825C132.903,386.825 115.798,390.812 100.549,398.357C99.629,398.811 98.704,399.28 97.773,399.754C94.035,401.651 90.17,403.613 86.158,404.903C85.435,405.138 84.643,404.99 84.05,404.517C83.457,404.043 83.14,403.303 83.207,402.546L86.485,365.77C86.571,364.809 87.255,364.008 88.189,363.772C129.168,353.479 173.494,352.602 213.004,361.305C213.861,361.493 214.532,362.16 214.727,363.014C216.385,370.31 218.557,378.345 220.656,386.114C222.222,391.902 223.84,397.888 225.241,403.549C225.406,404.215 225.26,404.918 224.847,405.462C224.433,406.008 223.794,406.337 223.11,406.358C222.885,406.365 222.66,406.368 222.435,406.368Z" style="fill:rgb(92,22,26);fill-rule:nonzero;"/>
        <path d="M81.163,360.004C124.449,349.273 171.41,349.89 215.098,358.842C220.297,345.445 226.384,332.901 231.959,319.866C228.678,317.528 224.923,315.995 220.859,315.729C212.351,315.172 204.566,319.977 196.926,323.763C182.383,330.971 166.245,334.93 150.019,335.305C133.792,334.93 117.654,330.971 103.111,323.763C95.471,319.977 87.685,315.172 79.177,315.729C75.783,315.951 72.606,317.062 69.737,318.779C73.546,332.521 77.354,346.262 81.163,360.004Z" style="fill:white;fill-rule:nonzero;"/>
        <path d="M206.058,319.209C210.369,319.942 214.138,323.286 215.333,327.497C218.811,325.139 222.255,323.855 226.338,324.846C227.363,325.094 228.358,325.456 229.307,325.916C230.195,323.903 231.09,321.898 231.959,319.866C228.678,317.528 224.923,315.995 220.859,315.729C215.702,315.391 210.812,317.027 206.058,319.209Z" style="fill:rgb(235,115,92);fill-rule:nonzero;"/>
        <path d="M91.461,324.684C93.219,323.094 95.67,321.91 98.263,321.299C92.162,318.193 85.895,315.289 79.177,315.729C75.783,315.951 72.606,317.062 69.737,318.779C70.294,320.789 70.851,322.799 71.408,324.808C73.185,323.785 75.116,323.031 77.129,322.641C81.891,321.718 87.425,321.995 91.461,324.684Z" style="fill:rgb(235,115,92);fill-rule:nonzero;"/>
        <path d="M198.246,355.835L203.221,327.927L192.275,354.994C194.268,355.262 196.262,355.532 198.246,355.835Z" style="fill:rgb(214,214,214);fill-rule:nonzero;"/>
        <path d="M145.839,340.943L143.184,352.122C144.994,352.089 146.804,352.05 148.616,352.049L145.839,340.943Z" style="fill:rgb(214,214,214);fill-rule:nonzero;"/>
        <path d="M102.517,355.692C104.671,355.345 106.831,355.023 108.997,354.728L102.517,330.931L102.517,355.692Z" style="fill:rgb(214,214,214);fill-rule:nonzero;"/>
        <path d="M72.399,319.903L82.76,357.283C123.314,347.598 168.484,347.243 213.682,356.245C216.821,348.319 220.282,340.597 223.636,333.114C225.452,329.062 227.322,324.889 229.126,320.716C226.428,319.095 223.605,318.179 220.713,317.99C214.004,317.549 207.514,320.896 201.212,324.13C200.115,324.693 199.023,325.254 197.933,325.793C183.157,333.116 166.607,337.188 150.069,337.57C133.431,337.188 116.88,333.116 102.105,325.793C101.016,325.254 99.923,324.693 98.826,324.131C92.523,320.896 86.008,317.557 79.326,317.99C76.977,318.142 74.654,318.785 72.399,319.903ZM81.161,362.269C80.167,362.269 79.257,361.61 78.98,360.608L67.554,319.384C67.281,318.402 67.698,317.359 68.573,316.835C71.915,314.835 75.433,313.702 79.03,313.468C86.973,312.95 94.045,316.583 100.896,320.1C101.973,320.653 103.047,321.203 104.117,321.734C118.303,328.763 134.193,332.673 150.069,333.039C165.844,332.673 181.735,328.763 195.921,321.734C196.992,321.203 198.066,320.651 199.144,320.098C205.994,316.583 213.086,312.944 221.008,313.468C225.301,313.748 229.427,315.281 233.273,318.021C234.14,318.639 234.46,319.778 234.041,320.758C231.995,325.544 229.848,330.334 227.771,334.967C224.189,342.957 220.487,351.221 217.211,359.663C216.811,360.692 215.725,361.285 214.644,361.063C168.681,351.646 122.714,352.038 81.708,362.203C81.525,362.249 81.342,362.269 81.161,362.269Z" style="fill:rgb(92,22,26);fill-rule:nonzero;"/>
        <path d="M80.521,317.95C80.122,317.95 79.725,317.964 79.326,317.99C69.668,318.622 62.29,327.14 59.263,335.3C55.815,344.595 56.117,355.291 56.383,364.728C56.598,372.357 56.822,380.246 59.539,387.351C61.793,393.243 66.874,400.064 74.374,401.539C81.486,402.931 88.72,399.266 95.715,395.717C96.662,395.236 97.603,394.758 98.539,394.295C114.409,386.443 132.209,382.293 150.018,382.293C167.826,382.293 185.628,386.443 201.497,394.295C202.433,394.758 203.374,395.236 204.323,395.717C211.316,399.266 218.547,402.93 225.663,401.539C233.164,400.064 238.244,393.243 240.496,387.351C243.213,380.249 243.438,372.357 243.654,364.727C243.92,355.291 244.221,344.595 240.774,335.3C237.747,327.14 230.37,318.622 220.711,317.99C214.004,317.54 207.515,320.896 201.212,324.13C200.116,324.693 199.023,325.254 197.933,325.793C183.157,333.116 166.607,337.188 150.069,337.57C133.431,337.188 116.88,333.116 102.105,325.793C101.016,325.254 99.923,324.693 98.826,324.131C92.899,321.089 86.783,317.95 80.521,317.95ZM77.547,406.373C76.208,406.373 74.858,406.252 73.5,405.985C65.706,404.454 58.736,397.934 55.307,388.971C52.314,381.146 52.069,372.492 51.853,364.855C51.576,355.007 51.261,343.844 55.015,333.725C58.55,324.193 67.347,314.233 79.029,313.468C86.947,312.966 94.043,316.583 100.896,320.1C101.973,320.653 103.047,321.203 104.117,321.734C118.303,328.763 134.193,332.673 150.069,333.039C165.844,332.673 181.735,328.763 195.921,321.734C196.992,321.203 198.066,320.651 199.144,320.098C205.994,316.582 213.094,312.944 221.006,313.468C232.689,314.233 241.486,324.193 245.022,333.725C248.776,343.844 248.462,355.007 248.183,364.855C247.968,372.492 247.721,381.147 244.73,388.971C241.302,397.934 234.33,404.454 226.536,405.985C217.882,407.688 209.592,403.474 202.273,399.758C201.337,399.283 200.41,398.813 199.488,398.357C184.24,390.812 167.133,386.825 150.018,386.825C132.903,386.825 115.798,390.812 100.549,398.357C99.626,398.813 98.699,399.283 97.766,399.757C91.595,402.888 84.73,406.373 77.547,406.373Z" style="fill:rgb(92,22,26);fill-rule:nonzero;"/>
        <path d="M108.685,409.248C134.826,395.258 170.222,396.316 195.458,411.898C188.328,409.605 181.216,407.693 174.015,406.347C152.348,402.279 129.991,403.548 108.685,409.248Z" style="fill:rgb(92,22,26);fill-rule:nonzero;"/>
        <path d="M139.797,410.167C153.589,405.602 169.998,408.578 181.276,417.748C167.406,414.448 153.941,411.962 139.797,410.167Z" style="fill:rgb(92,22,26);fill-rule:nonzero;"/>
        <path d="M38.666,312.412C36.579,322.179 34.448,331.672 33.109,341.49C31.815,349.931 30.968,362.324 30.35,370.966C25.003,351.543 28.145,329.587 38.666,312.412Z" style="fill:rgb(92,22,26);fill-rule:nonzero;"/>
        <path d="M262.403,319.771C273.734,336.383 275.716,359.479 267.32,377.759C269.355,358.118 267.74,338.784 262.403,319.771Z" style="fill:rgb(92,22,26);fill-rule:nonzero;"/>
        <path d="M276.45,344.18C282.867,360.021 279.829,379.754 268.892,392.897C273.962,376.954 276.475,360.912 276.45,344.18Z" style="fill:rgb(92,22,26);fill-rule:nonzero;"/>
        <path d="M49.627,322.951C52.056,317.88 55.271,312.974 59.986,309.909C64.7,306.844 71.165,305.988 75.932,308.971C65.858,309.578 55.906,315.05 49.627,322.951Z" style="fill:white;fill-rule:nonzero;"/>
        <path d="M250.237,324.743C249.258,319.318 246.116,314.314 241.654,311.077C237.191,307.839 231.46,306.404 225.999,307.158C236.021,308.807 245.659,315.676 250.237,324.743Z" style="fill:white;fill-rule:nonzero;"/>
        <path d="M454.315,107.736C445.669,98.264 435.591,88.094 422.775,87.623C406.212,87.014 394.571,98.739 376.22,100.388C357.869,98.739 346.229,87.014 329.666,87.623C316.849,88.094 306.771,98.264 298.125,107.736C289.905,116.743 281.106,127.461 282.68,139.553C283.955,149.341 291.784,156.892 299.725,162.755C321.873,179.108 348.777,188.833 376.22,190.817C403.663,188.833 430.567,179.108 452.715,162.755C460.656,156.892 468.486,149.341 469.76,139.553C471.334,127.461 462.535,116.743 454.315,107.736Z" style="fill:rgb(235,56,66);fill-rule:nonzero;"/>
        <path d="M452.715,162.755C460.656,156.892 468.486,149.341 469.76,139.553C471.334,127.461 462.535,116.743 454.315,107.736C452.634,105.894 450.897,104.028 449.098,102.21C452.005,113.786 453.438,125.619 449.743,136.768C446.34,147.036 438.765,155.615 429.67,161.472C420.576,167.328 410.027,170.625 399.36,172.424C370.462,177.297 339.851,171.211 315.015,155.653C308.796,151.756 302.778,147.124 299.056,140.798C293.958,132.135 293.831,121.236 296.589,111.57C296.908,110.452 297.27,109.349 297.655,108.256C289.574,117.155 281.136,127.691 282.68,139.553C283.955,149.341 291.784,156.892 299.725,162.755C321.873,179.108 348.777,188.833 376.22,190.817C403.663,188.833 430.567,179.108 452.715,162.755Z" style="fill:rgb(201,48,57);fill-rule:nonzero;"/>
        <path d="M441.321,113.837C434.113,106.2 425.712,98.002 415.028,97.622C401.221,97.131 391.518,106.583 376.22,107.912C360.922,106.583 351.219,97.131 337.412,97.622C326.728,98.002 318.327,106.2 311.12,113.837C304.267,121.097 296.933,129.738 298.245,139.486C299.307,147.377 305.834,153.465 312.454,158.191C330.916,171.374 353.344,179.214 376.22,180.814C399.097,179.214 421.524,171.374 439.987,158.191C446.606,153.465 453.133,147.377 454.195,139.486C455.508,129.738 448.173,121.097 441.321,113.837Z" style="fill:rgb(128,30,36);fill-rule:nonzero;"/>
        <path d="M312.454,158.191C313.878,159.209 315.334,160.183 316.805,161.136C316.686,152 316.567,142.864 316.448,133.727C313.755,135.927 311.063,138.127 308.37,140.328C310.672,130.075 312.974,119.822 315.275,109.568C313.844,110.975 312.461,112.415 311.12,113.837C304.267,121.097 296.933,129.738 298.245,139.486C299.307,147.377 305.834,153.465 312.454,158.191Z" style="fill:rgb(110,26,31);fill-rule:nonzero;"/>
        <path d="M448.005,141.3C445.794,139.776 443.584,138.253 441.373,136.73C442.039,143.027 442.705,149.324 443.371,155.621C448.691,151.31 453.316,146.017 454.195,139.486C455.361,130.831 449.708,123.051 443.629,116.332C445.088,124.655 446.546,132.977 448.005,141.3Z" style="fill:rgb(110,26,31);fill-rule:nonzero;"/>
        <path d="M336.33,161.115C337.364,154.477 338.441,147.707 341.521,141.737C344.602,135.767 350.091,130.627 356.753,129.762C363.415,128.897 370.836,133.545 371.447,140.236C371.663,142.603 371.068,144.986 371.261,147.355C371.455,149.725 372.825,152.315 375.175,152.675C377.532,153.037 379.668,150.879 380.202,148.555C380.736,146.23 380.112,143.818 379.564,141.497C379.016,139.176 378.548,136.691 379.367,134.451C380.345,131.772 383.063,129.99 385.878,129.536C388.693,129.082 391.581,129.778 394.221,130.856C407.29,136.188 415.155,151.868 411.616,165.531C388.825,177.308 357.175,176.068 336.33,161.115Z" style="fill:rgb(92,22,26);fill-rule:nonzero;"/>
        <path d="M439.733,158.365C436.293,153.301 432.915,148.318 429.317,143.043C399.445,162.521 362.486,167.385 320.447,140.615C317.166,146.018 313.885,151.421 310.604,156.824C311.218,157.291 311.834,157.749 312.454,158.191C330.916,171.374 353.344,179.214 376.22,180.814C398.993,179.222 421.318,171.441 439.733,158.365Z" style="fill:white;fill-rule:nonzero;"/>
        <path d="M332.579,147.542L326.773,165.602L336.538,149.459C335.224,148.851 333.904,148.213 332.579,147.542Z" style="fill:rgb(214,214,214);fill-rule:nonzero;"/>
        <path d="M425.416,157.31L423.971,146.32C423.176,146.779 422.373,147.222 421.568,147.659L425.416,157.31Z" style="fill:rgb(214,214,214);fill-rule:nonzero;"/>
        <path d="M356.997,156.643L354.416,172.179L362.581,157.807C360.734,157.482 358.872,157.09 356.997,156.643Z" style="fill:rgb(214,214,214);fill-rule:nonzero;"/>
        <path d="M422.422,122.729C424.592,126.817 426.978,129.571 429.147,133.66C431.932,126.301 435.216,118.592 438.489,110.892C431.923,104.228 424.344,97.953 415.028,97.622C401.221,97.131 391.518,106.583 376.22,107.912C360.922,106.583 351.219,97.131 337.412,97.622C330.709,97.86 324.906,101.176 319.731,105.5C320.081,113.769 320.431,122.038 320.781,130.307C325.781,125.773 331.731,121.594 336.731,117.059C362.872,130.65 395.3,134.238 422.422,122.729Z" style="fill:white;fill-rule:nonzero;"/>
        <path d="M436.974,114.462C437.479,113.272 437.983,112.083 438.489,110.892C431.923,104.228 424.344,97.953 415.028,97.622C401.221,97.131 391.518,106.583 376.22,107.912C360.922,106.583 351.219,97.131 337.412,97.622C330.709,97.86 324.906,101.176 319.731,105.5C319.912,109.767 320.092,114.034 320.273,118.301C330.263,109.161 344.927,104.993 358.086,108.502C365.429,110.459 372.556,114.54 380.1,113.629C386.639,112.84 392.113,108.428 398.303,106.178C407.696,102.765 418.352,104.567 427.381,108.852C430.74,110.446 433.917,112.358 436.974,114.462Z" style="fill:rgb(214,214,214);fill-rule:nonzero;"/>
        <path d="M420.497,123.508C421.141,123.254 421.784,122.999 422.422,122.729C423.047,123.907 423.692,124.969 424.342,125.989C424.994,124.414 425.416,123.381 425.416,123.381L414.879,106.177L420.497,123.508Z" style="fill:rgb(214,214,214);fill-rule:nonzero;"/>
        <path d="M336.731,117.059C337.682,117.553 338.643,118.03 339.609,118.498L342.624,106.177L329.336,123.22C331.879,121.196 334.408,119.166 336.731,117.059Z" style="fill:rgb(214,214,214);fill-rule:nonzero;"/>
        <path d="M361.548,111.984L356.957,125.183C358.9,125.753 360.859,126.273 362.831,126.738L361.548,111.984Z" style="fill:rgb(214,214,214);fill-rule:nonzero;"/>
        <path d="M396.815,111.123L398.828,128.932C400.652,128.712 402.467,128.439 404.272,128.112L396.815,111.123Z" style="fill:rgb(214,214,214);fill-rule:nonzero;"/>
        <path d="M313.614,156.234C313.665,156.272 313.717,156.309 313.77,156.347C331.579,169.063 353.751,176.942 376.221,178.542C397.816,177.004 419.16,169.654 436.6,157.784L435.547,156.233C433.287,152.904 431.026,149.574 428.683,146.137C395.013,167.193 357.94,166.371 321.191,143.754L313.614,156.234ZM376.221,183.079C376.168,183.079 376.116,183.078 376.063,183.074C352.715,181.442 329.658,173.26 311.137,160.035C310.501,159.581 309.866,159.109 309.234,158.629C308.311,157.927 308.066,156.64 308.668,155.649L318.51,139.439C318.825,138.919 319.339,138.547 319.932,138.408C320.532,138.268 321.15,138.376 321.663,138.704C358.642,162.251 394.447,163.074 428.08,141.146C429.113,140.471 430.493,140.748 431.189,141.767C433.98,145.858 436.638,149.774 439.296,153.688L441.608,157.092C442.3,158.112 442.05,159.499 441.044,160.213C422.571,173.331 399.605,181.45 376.378,183.074C376.325,183.078 376.274,183.079 376.221,183.079Z" style="fill:rgb(92,22,26);fill-rule:nonzero;"/>
        <path d="M422.42,120.462C423.236,120.462 424.019,120.905 424.423,121.667C425.454,123.611 426.531,125.228 427.67,126.939C428.015,127.456 428.363,127.978 428.711,128.513C430.937,122.885 433.396,117.081 435.806,111.411C430.046,105.712 423.127,100.176 414.947,99.886C408.166,99.654 402.268,102.047 396.038,104.59C390.114,107.01 383.988,109.512 376.417,110.169C376.287,110.181 376.154,110.181 376.024,110.169C368.453,109.512 362.327,107.01 356.403,104.59C350.172,102.046 344.266,99.644 337.494,99.886C332.409,100.066 327.477,102.185 322.042,106.536L322.846,125.537C324.336,124.305 325.854,123.097 327.345,121.91C330.009,119.79 332.763,117.599 335.209,115.381C335.913,114.743 336.936,114.613 337.777,115.049C365.056,129.232 396.367,131.322 421.537,120.643C421.824,120.521 422.125,120.462 422.42,120.462ZM429.148,135.926C428.313,135.926 427.542,135.466 427.146,134.722C426.115,132.778 425.038,131.161 423.898,129.45C423.084,128.226 422.249,126.973 421.427,125.585C395.799,135.737 364.541,133.596 337.079,119.782C334.852,121.729 332.476,123.619 330.167,125.456C327.503,127.576 324.749,129.767 322.303,131.986C321.652,132.576 320.716,132.736 319.908,132.397C319.097,132.059 318.555,131.281 318.517,130.403L317.467,105.596C317.437,104.891 317.737,104.213 318.278,103.761C324.777,98.331 331.011,95.583 337.332,95.358C345.119,95.077 351.718,97.783 358.115,100.395C363.674,102.665 369.42,105.012 376.221,105.638C383.021,105.012 388.768,102.665 394.326,100.395C400.725,97.783 407.337,95.089 415.11,95.358C425.386,95.723 433.511,102.612 440.102,109.302C440.746,109.955 440.932,110.933 440.574,111.778L440.316,112.385C437.192,119.736 433.961,127.338 431.268,134.462C430.952,135.293 430.179,135.865 429.291,135.921C429.242,135.924 429.195,135.926 429.148,135.926Z" style="fill:rgb(92,22,26);fill-rule:nonzero;"/>
        <path d="M338.439,99.869C338.125,99.869 337.811,99.875 337.494,99.886C327.857,100.229 319.995,107.734 312.767,115.392C306.213,122.337 299.317,130.477 300.49,139.184C301.27,144.983 305.491,150.436 313.77,156.347C331.577,169.062 353.749,176.942 376.221,178.542C398.692,176.942 420.864,169.062 438.67,156.347C446.949,150.437 451.169,144.983 451.95,139.184C453.122,130.475 446.228,122.336 439.673,115.392C432.445,107.733 424.583,100.228 414.947,99.886C408.166,99.654 402.268,102.047 396.037,104.591C390.113,107.01 383.987,109.512 376.417,110.169C376.287,110.181 376.154,110.181 376.024,110.169C368.453,109.512 362.327,107.01 356.403,104.59C350.464,102.165 344.84,99.869 338.439,99.869ZM376.221,183.079C376.168,183.079 376.116,183.078 376.063,183.074C352.714,181.441 329.657,173.259 311.137,160.035C305.243,155.827 297.26,149.149 296,139.789C294.56,129.106 302.2,119.988 309.472,112.282C317.344,103.939 325.981,95.761 337.332,95.358C345.119,95.077 351.718,97.783 358.115,100.395C363.674,102.665 369.42,105.012 376.221,105.638C383.021,105.012 388.766,102.665 394.324,100.396C400.725,97.783 407.337,95.089 415.11,95.358C426.457,95.761 435.095,103.939 442.968,112.281C450.24,119.987 457.88,129.103 456.44,139.789C455.18,149.15 447.198,155.827 441.303,160.035C422.784,173.259 399.727,181.441 376.378,183.074C376.325,183.078 376.274,183.079 376.221,183.079Z" style="fill:rgb(92,22,26);fill-rule:nonzero;"/>
        <path d="M330.9,89.866C330.518,89.866 330.135,89.873 329.748,89.887C318.038,90.317 308.532,99.695 299.8,109.264C291.848,117.975 283.487,128.195 284.926,139.26C286.186,148.932 294.745,156.261 301.071,160.933C322.503,176.757 349.185,186.559 376.221,188.545C403.256,186.559 429.937,176.757 451.37,160.933C457.697,156.261 466.254,148.931 467.513,139.26C468.953,128.196 460.592,117.975 452.642,109.264C443.908,99.695 434.401,90.317 422.691,89.887C414.465,89.583 407.361,92.581 399.847,95.754C392.768,98.743 385.447,101.834 376.423,102.645C376.29,102.657 376.151,102.657 376.019,102.645C366.994,101.834 359.673,98.743 352.594,95.754C345.433,92.73 338.65,89.866 330.9,89.866ZM376.221,193.083C376.166,193.083 376.111,193.08 376.057,193.077C348.122,191.057 320.535,180.936 298.381,164.578C291.386,159.415 281.916,151.232 280.433,139.846C278.743,126.855 287.815,115.671 296.453,106.209C305.833,95.93 316.118,85.853 329.583,85.359C338.786,85.014 346.368,88.205 354.357,91.579C361.061,94.41 367.991,97.336 376.221,98.113C384.45,97.336 391.38,94.41 398.084,91.579C406.072,88.206 413.633,85.014 422.857,85.359C436.32,85.853 446.607,95.93 455.988,106.209L455.99,106.209C464.625,115.673 473.697,126.857 472.006,139.846C470.524,151.232 461.055,159.414 454.061,164.578C431.905,180.936 404.318,191.057 376.384,193.077C376.33,193.08 376.275,193.083 376.221,193.083Z" style="fill:rgb(92,22,26);fill-rule:nonzero;"/>
        <path d="M343.852,150.445C354.318,153.222 361.978,162.222 367.28,171.664C372.581,181.106 376.269,191.481 382.579,200.281C390.355,211.128 402.026,219.118 414.951,222.445C427.875,225.771 441.954,224.407 454,218.662C457.616,216.937 459.268,211.184 458.408,207.272C457.548,203.359 454.609,200.199 451.303,197.938C447.996,195.676 444.261,194.128 440.792,192.125C425.632,183.376 416.386,165.33 418.14,147.914C394.683,133.133 367.434,135.864 343.852,150.445Z" style="fill:rgb(235,92,63);fill-rule:nonzero;"/>
        <path d="M409.784,201.443C411.647,204.69 413.511,207.938 415.374,211.186C405.411,208.947 397.201,201.764 391.109,193.569C385.017,185.374 380.645,176.053 375.363,167.314C370.081,158.575 363.603,150.16 354.679,145.195C354.515,145.104 354.358,145.017 354.201,144.93C350.796,146.469 347.442,148.248 344.158,150.261C344.136,150.347 344.115,150.433 344.095,150.519C354.435,153.371 362.02,162.296 367.28,171.664C372.581,181.105 376.269,191.481 382.579,200.281C390.355,211.128 402.026,219.118 414.951,222.445C427.875,225.771 441.954,224.407 454,218.662C457.616,216.937 459.268,211.184 458.408,207.272C458.406,207.263 458.402,207.254 458.4,207.245C458.358,207.219 458.325,207.188 458.283,207.163C442.766,214.477 423.173,212.167 409.784,201.443Z" style="fill:rgb(204,80,55);fill-rule:nonzero;"/>
        <path d="M349.174,149.962C356.797,153.463 363.535,160.367 369.255,170.555C371.301,174.198 373.124,178.006 374.887,181.688C377.705,187.573 380.618,193.659 384.419,198.961C391.843,209.316 403.178,217.076 415.515,220.251C427.851,223.429 441.525,222.102 453.025,216.617C455.519,215.427 456.853,210.751 456.195,207.758C455.398,204.131 452.4,201.433 450.023,199.808C448.117,198.504 446.055,197.45 443.872,196.334C442.486,195.625 441.053,194.892 439.659,194.088C424.243,185.191 414.568,166.862 415.765,149.114C395.858,137.152 371.885,137.501 349.174,149.962ZM429.092,226.474C424.121,226.474 419.16,225.868 414.385,224.639C401.036,221.203 388.771,212.806 380.737,201.601C376.703,195.975 373.703,189.707 370.8,183.645C369.068,180.028 367.279,176.288 365.305,172.773C359.048,161.63 351.634,154.855 343.27,152.635C342.396,152.403 341.744,151.672 341.611,150.777C341.478,149.882 341.89,148.993 342.66,148.518C368.541,132.515 396.493,131.597 419.348,145.997C420.075,146.455 420.48,147.286 420.393,148.141C418.735,164.61 427.589,181.89 441.925,190.163C443.219,190.91 444.599,191.616 445.934,192.299C448.148,193.431 450.438,194.601 452.581,196.068C455.634,198.155 459.507,201.709 460.62,206.786C461.678,211.593 459.619,218.492 454.975,220.707C446.982,224.52 438.019,226.474 429.092,226.474Z" style="fill:rgb(92,22,26);fill-rule:nonzero;"/>
        <path d="M375.378,138.64C384.189,148.079 391.055,159.327 395.424,171.478C394.302,160.011 391.584,147.572 387.081,136.967C383.78,137.563 378.679,138.044 375.378,138.64Z" style="fill:rgb(92,22,26);fill-rule:nonzero;"/>
        <path d="M330.323,91.436C318.883,93.11 308.366,100.241 302.576,110.248C310.803,102.216 319.745,95.943 330.323,91.436Z" style="fill:white;fill-rule:nonzero;"/>
        <path d="M447.043,105.268C441.347,99.742 434.515,95.391 427.098,92.565C432.419,97.738 440.107,102.629 447.043,105.268Z" style="fill:white;fill-rule:nonzero;"/>
        <path d="M296.867,172.53C315.064,185.144 335.506,193.246 357.39,196.593C335.074,199.767 310.925,190.14 296.867,172.53Z" style="fill:rgb(92,22,26);fill-rule:nonzero;"/>
        <path d="M467.203,159.412C462.372,169.514 452.693,177.372 441.793,179.965C449.428,171.973 457.805,165.228 467.203,159.412Z" style="fill:rgb(92,22,26);fill-rule:nonzero;"/>
        <path d="M356.635,85.326C371.775,88.003 386.695,87.138 401.441,82.799C389.393,93.193 369.781,94.276 356.635,85.326Z" style="fill:rgb(92,22,26);fill-rule:nonzero;"/>
        <path d="M370.185,81.066C375.215,79.153 379.796,78.638 385.12,79.456C382.181,84.556 374.147,85.403 370.185,81.066Z" style="fill:rgb(92,22,26);fill-rule:nonzero;"/>
        <path d="M442.565,203.402C434.294,206.069 424.954,202.913 418.448,197.152C411.941,191.391 407.856,183.387 404.747,175.272C413.299,189.136 426.895,198.951 442.565,203.402Z" style="fill:white;fill-rule:nonzero;"/>
        <path d="M466.094,367.731C453.732,338.659 429.582,318.287 405.109,312.245C375.958,305.048 345.549,318.361 323.246,336.61C310.601,346.956 266.098,391.904 291.183,407.674C296.697,411.141 302.742,409.021 308.169,407.009C353.738,390.111 403.124,385.711 452.439,394.035C463.478,395.899 471.263,382.356 466.524,368.847C466.387,368.456 466.243,368.083 466.094,367.731Z" style="fill:rgb(235,56,66);fill-rule:nonzero;"/>
        <path d="M466.524,368.847C466.387,368.456 466.243,368.083 466.094,367.731C464.695,364.442 463.126,361.281 461.443,358.223C461.57,361.041 461.264,363.854 460.338,366.523C456.897,376.442 446.032,382.109 435.58,383.1C425.128,384.091 414.729,381.428 404.363,379.765C374.227,374.929 342.764,378.664 314.598,390.421C309.381,392.598 303.801,395.1 298.288,393.847C292.568,392.547 288.396,387.34 286.647,381.735C282.149,392.206 281.995,401.898 291.183,407.674C296.697,411.141 302.742,409.021 308.169,407.009C353.738,390.111 403.124,385.711 452.439,394.035C463.478,395.899 471.262,382.356 466.524,368.847Z" style="fill:rgb(201,48,57);fill-rule:nonzero;"/>
        <path d="M450.815,358.797C440.248,337.074 419.68,322.552 398.866,319.027C374.075,314.829 348.256,326.407 329.337,341.402C318.612,349.903 280.88,386.365 302.233,397.318C306.927,399.726 312.06,397.828 316.669,396.04C355.365,381.029 397.331,375.425 439.263,379.575C448.65,380.505 455.238,369.773 451.183,359.633C451.065,359.34 450.943,359.061 450.815,358.797Z" style="fill:rgb(128,30,36);fill-rule:nonzero;"/>
        <path d="M341.515,388.583C351.606,386.388 361.568,383.95 371.788,382.371C388.179,379.837 404.226,377.539 420.53,378.408C418.935,371.53 417.341,364.652 415.746,357.774C414.498,352.387 413.131,346.764 409.492,342.601C405.766,338.341 399.799,336.162 394.205,337.02C388.611,337.878 379.082,338.872 379.635,344.505C380.072,348.954 380.509,353.402 380.947,357.851C381.208,360.513 381.461,363.263 380.645,365.81C379.829,368.357 377.651,370.668 374.978,370.767C372.388,370.863 370.076,368.832 369.125,366.421C368.173,364.01 368.329,361.309 368.737,358.75C369.144,356.19 369.789,353.646 369.772,351.055C369.728,344.76 366.829,333.374 360.638,334.507C347.282,336.953 336.472,347.356 330.119,359.356C324.275,370.394 321.616,382.766 319.273,395.064C326.383,391.98 333.893,390.241 341.515,388.583Z" style="fill:rgb(92,22,26);fill-rule:nonzero;"/>
        <path d="M426.652,361.487C393.62,355.468 359.257,361.026 329.218,376.026C328.726,381.371 328.233,386.717 327.74,392.062C360.695,380.964 395.723,376.489 430.89,378.883C429.498,373.113 427.691,366.744 426.652,361.487Z" style="fill:white;fill-rule:nonzero;"/>
        <path d="M379.972,364.816L379.972,380.242C381.378,380.07 382.786,379.904 384.196,379.755L379.972,364.816Z" style="fill:rgb(214,214,214);fill-rule:nonzero;"/>
        <path d="M354.184,384.688L352.654,371.72L350.389,385.572C351.652,385.27 352.916,384.972 354.184,384.688Z" style="fill:rgb(214,214,214);fill-rule:nonzero;"/>
        <path d="M412.462,364.816L411.551,378.262C412.637,378.258 413.725,378.276 414.813,378.286L412.462,364.816Z" style="fill:rgb(214,214,214);fill-rule:nonzero;"/>
        <path d="M331.358,377.495L330.314,388.828C361.74,378.694 394.546,374.524 427.948,376.428C427.681,375.371 427.405,374.304 427.131,373.236C426.282,369.938 425.409,366.542 424.745,363.451C393.77,358.155 360.721,363.122 331.358,377.495ZM327.74,394.327C327.237,394.327 326.74,394.159 326.334,393.839C325.734,393.364 325.414,392.616 325.483,391.853L326.961,375.818C327.033,375.037 327.504,374.349 328.206,373.999C359.193,358.524 394.304,353.287 427.058,359.258C427.974,359.425 428.696,360.135 428.876,361.048C429.538,364.401 430.545,368.318 431.52,372.108C432.062,374.214 432.603,376.319 433.093,378.352C433.262,379.053 433.087,379.793 432.622,380.345C432.158,380.896 431.45,381.206 430.737,381.143C395.694,378.765 361.292,383.155 328.463,394.209C328.227,394.289 327.983,394.327 327.74,394.327Z" style="fill:rgb(92,22,26);fill-rule:nonzero;"/>
        <path d="M398.866,319.027C374.075,314.829 348.256,326.407 329.337,341.402C325.482,344.457 318.138,351.125 311.302,358.923C312.606,364.594 313.91,370.266 315.214,375.937C317.613,372.131 322.136,368.489 324.535,364.684C357.41,349.347 396.514,345.994 431.404,355.929C432.944,360.354 433.917,365.621 435.457,370.046C438.701,363.59 442.228,356.869 445.791,350.115C434.459,333.236 416.763,322.058 398.866,319.027Z" style="fill:white;fill-rule:nonzero;"/>
        <path d="M356.007,354.06L353.475,331.982L349.301,355.704C351.523,355.108 353.758,354.559 356.007,354.06Z" style="fill:rgb(214,214,214);fill-rule:nonzero;"/>
        <path d="M384.678,327.011L379.972,350.661C382.061,350.524 384.151,350.425 386.243,350.372L384.678,327.011Z" style="fill:rgb(214,214,214);fill-rule:nonzero;"/>
        <path d="M326.619,363.77L329.805,347.047L315.214,375.937C317.613,372.131 322.136,368.489 324.535,364.684C325.222,364.364 325.927,364.08 326.619,363.77Z" style="fill:rgb(214,214,214);fill-rule:nonzero;"/>
        <path d="M401.971,350.763C404.205,350.932 406.432,351.15 408.654,351.416L408.309,334.736L401.971,350.763Z" style="fill:rgb(214,214,214);fill-rule:nonzero;"/>
        <path d="M430.89,342.481L430.72,355.752C430.947,355.815 431.178,355.864 431.404,355.929C432.944,360.354 433.917,365.621 435.457,370.046C435.604,369.756 435.757,369.458 435.905,369.166L430.89,342.481Z" style="fill:rgb(214,214,214);fill-rule:nonzero;"/>
        <path d="M313.772,359.549L316.358,370.795C316.967,370.111 317.596,369.435 318.215,368.768C319.92,366.933 321.531,365.2 322.618,363.476C322.85,363.108 323.182,362.815 323.577,362.63C357.216,346.942 396.744,343.702 432.025,353.751C432.734,353.953 433.301,354.488 433.544,355.184C434.344,357.484 434.994,359.993 435.624,362.42C435.754,362.923 435.887,363.43 436.019,363.937C438.377,359.341 440.802,354.718 443.148,350.268C432.473,335.008 415.874,324.205 398.489,321.26C368.673,316.229 341.182,334.906 330.744,343.177C327.662,345.62 320.73,351.738 313.772,359.549ZM315.215,378.203C315.089,378.203 314.963,378.193 314.836,378.17C313.933,378.017 313.212,377.337 313.007,376.445L309.095,359.43C308.931,358.72 309.12,357.977 309.599,357.428C316.095,350.019 323.487,343.148 327.93,339.625C350.994,321.346 376.987,313.025 399.244,316.794C418.251,320.011 436.354,331.996 447.671,348.852C448.136,349.544 448.183,350.435 447.795,351.172C444.398,357.611 440.805,364.451 437.483,371.065C437.074,371.878 436.223,372.373 435.31,372.309C434.401,372.248 433.617,371.652 433.317,370.792C432.518,368.492 431.867,365.983 431.237,363.557C430.734,361.617 430.218,359.623 429.634,357.786C395.88,348.482 358.246,351.631 326.074,366.467C324.8,368.339 323.142,370.122 321.534,371.853C319.829,373.688 318.218,375.421 317.131,377.145C316.712,377.811 315.985,378.203 315.215,378.203Z" style="fill:rgb(92,22,26);fill-rule:nonzero;"/>
        <path d="M388.23,320.409C362.524,320.409 339.971,335.865 330.744,343.177C321.561,350.457 296.767,374.686 298.114,388.351C298.414,391.405 300.1,393.678 303.267,395.302C306.872,397.152 310.925,395.837 315.849,393.927C354.608,378.893 397.366,373.154 439.486,377.319C442.644,377.635 445.637,376.259 447.677,373.545C450.345,369.993 450.884,364.985 449.08,360.474C448.984,360.236 448.884,360.006 448.777,359.788C438.964,339.615 419.695,324.852 398.489,321.26C395.031,320.676 391.602,320.409 388.23,320.409ZM307.1,400.714C305.139,400.714 303.146,400.332 301.199,399.335C296.617,396.984 294.061,393.438 293.603,388.795C291.938,371.884 320.255,345.71 327.93,339.625C350.994,321.346 376.99,313.027 399.244,316.794C421.869,320.623 442.409,336.339 452.852,357.806L452.852,357.807C453.003,358.117 453.147,358.443 453.285,358.788C455.675,364.762 454.914,371.459 451.3,376.266C448.288,380.275 443.811,382.292 439.04,381.83C397.611,377.729 355.586,383.373 317.488,398.152C314.545,399.294 310.885,400.714 307.1,400.714Z" style="fill:rgb(92,22,26);fill-rule:nonzero;"/>
        <path d="M388.383,312.497C359.806,312.497 335.077,329.857 324.68,338.364C313.937,347.154 284.802,376.965 285.942,395.261C286.224,399.773 288.333,403.207 292.389,405.757C296.734,408.489 301.545,407.048 307.382,404.884C353.006,387.965 403.292,383.442 452.816,391.8C456.272,392.387 459.517,391.114 461.95,388.228C465.798,383.662 466.754,376.349 464.387,369.596C464.266,369.255 464.142,368.929 464.009,368.621C464.009,368.619 464.009,368.619 464.008,368.618C452.434,341.397 429.657,320.639 404.566,314.444C399.085,313.091 393.668,312.497 388.383,312.497ZM297.744,411.78C295.164,411.78 292.527,411.196 289.976,409.593C284.672,406.257 281.792,401.53 281.419,395.542C280.059,373.71 312.933,342.121 321.81,334.856C348.962,312.64 379.521,303.592 405.652,310.045C432.099,316.574 456.058,338.339 468.179,366.845C468.347,367.24 468.508,367.658 468.661,368.096C471.551,376.332 470.275,385.381 465.415,391.148C461.956,395.253 457.088,397.113 452.061,396.27C403.324,388.04 353.838,392.491 308.958,409.132C305.752,410.321 301.821,411.779 297.744,411.78Z" style="fill:rgb(92,22,26);fill-rule:nonzero;"/>
        <path d="M338.817,407.012C353.289,401.869 368.525,399.253 383.79,397.94C399.074,396.862 414.533,397.08 429.626,399.927C414.471,400.729 399.241,401.206 384.142,402.455C369.007,403.565 353.943,405.436 338.817,407.012Z" style="fill:rgb(92,22,26);fill-rule:nonzero;"/>
        <path d="M374.579,407.623C389.957,404.13 405.994,403.71 421.525,406.464C406.149,409.982 390.111,410.354 374.579,407.623Z" style="fill:rgb(92,22,26);fill-rule:nonzero;"/>
        <path d="M288.945,361.941C298.129,341.806 316.932,325.828 338.309,320.074C319.753,331.617 303.345,345.501 288.945,361.941Z" style="fill:rgb(92,22,26);fill-rule:nonzero;"/>
        <path d="M437.091,320.608C453.293,326.324 466.614,340.666 471.061,357.268C460.95,343.735 449.833,331.702 437.091,320.608Z" style="fill:rgb(92,22,26);fill-rule:nonzero;"/>
    </g>
</svg>
