<?xml version="1.0" encoding="UTF-8"?>
<svg id="svg93" data-v-7a7a37b1="" version="1.1" viewBox="0 0 1e3 990" xml:space="preserve" xmlns="http://www.w3.org/2000/svg">
	<defs id="defs93">
		<mask id="mask94" maskUnits="userSpaceOnUse">
			<g id="g95">
				<path id="path94" d="m1e3 0h-1e3v718.31h179.2c38.38 142.38 167.45 247.1 320.8 247.1s282.42-104.72 320.8-247.1h179.2z" fill="#fff" />
			</g>
		</mask>
		<mask id="mask95" maskUnits="userSpaceOnUse">
			<g id="g96">
				<path id="path95" d="m1e3 0h-1e3v718.31h179.2c38.38 142.38 167.45 247.1 320.8 247.1s282.42-104.72 320.8-247.1h179.2z" fill="#fff" />
			</g>
		</mask>
		<mask id="mask96" maskUnits="userSpaceOnUse">
			<g id="g97">
				<path id="path96" d="m1e3 0h-1e3v718.31h179.2c38.38 142.38 167.45 247.1 320.8 247.1s282.42-104.72 320.8-247.1h179.2z" fill="#fff" />
			</g>
		</mask>
		<mask id="mask97" maskUnits="userSpaceOnUse">
			<g id="g98">
				<path id="path97" d="m1e3 0h-1e3v718.31h179.2c38.38 142.38 167.45 247.1 320.8 247.1s282.42-104.72 320.8-247.1h179.2z" fill="#fff" />
			</g>
		</mask>
		<mask id="mask98" maskUnits="userSpaceOnUse">
			<g id="g99">
				<path id="path98" d="m1e3 0h-1e3v718.31h179.2c38.38 142.38 167.45 247.1 320.8 247.1s282.42-104.72 320.8-247.1h179.2z" fill="#fff" />
			</g>
		</mask>
		<mask id="mask99" maskUnits="userSpaceOnUse">
			<g id="g100">
				<path id="path99" d="m1e3 0h-1e3v718.31h179.2c38.38 142.38 167.45 247.1 320.8 247.1s282.42-104.72 320.8-247.1h179.2z" fill="#fff" />
			</g>
		</mask>
		<mask id="mask100" maskUnits="userSpaceOnUse">
			<g id="g101">
				<path id="path100" d="m1e3 0h-1e3v718.31h179.2c38.38 142.38 167.45 247.1 320.8 247.1s282.42-104.72 320.8-247.1h179.2z" fill="#fff" />
			</g>
		</mask>
		<mask id="mask101" maskUnits="userSpaceOnUse">
			<g id="g102">
				<path id="path101" d="m1e3 0h-1e3v718.31h179.2c38.38 142.38 167.45 247.1 320.8 247.1s282.42-104.72 320.8-247.1h179.2z" fill="#fff" />
			</g>
		</mask>
		<mask id="mask102" maskUnits="userSpaceOnUse">
			<g id="g103">
				<path id="path102" d="m1e3 0h-1e3v718.31h179.2c38.38 142.38 167.45 247.1 320.8 247.1s282.42-104.72 320.8-247.1h179.2z" fill="#fff" />
			</g>
		</mask>
		<mask id="mask103" maskUnits="userSpaceOnUse">
			<g id="g104">
				<path id="path103" d="m1e3 0h-1e3v718.31h179.2c38.38 142.38 167.45 247.1 320.8 247.1s282.42-104.72 320.8-247.1h179.2z" fill="#fff" />
			</g>
		</mask>
		<mask id="mask104" maskUnits="userSpaceOnUse">
			<g id="g105">
				<path id="path104" d="m1e3 0h-1e3v718.31h179.2c38.38 142.38 167.45 247.1 320.8 247.1s282.42-104.72 320.8-247.1h179.2z" fill="#fff" />
			</g>
		</mask>
		<mask id="mask105" maskUnits="userSpaceOnUse">
			<g id="g106">
				<path id="path105" d="m1e3 0h-1e3v718.31h179.2c38.38 142.38 167.45 247.1 320.8 247.1s282.42-104.72 320.8-247.1h179.2z" fill="#fff" />
			</g>
		</mask>
		<mask id="mask106" maskUnits="userSpaceOnUse">
			<g id="g107">
				<path id="path106" d="m1e3 0h-1e3v718.31h179.2c38.38 142.38 167.45 247.1 320.8 247.1s282.42-104.72 320.8-247.1h179.2z" fill="#fff" />
			</g>
		</mask>
		<mask id="mask107" maskUnits="userSpaceOnUse">
			<g id="g108">
				<path id="path107" d="m1e3 0h-1e3v718.31h179.2c38.38 142.38 167.45 247.1 320.8 247.1s282.42-104.72 320.8-247.1h179.2z" fill="#fff" />
			</g>
		</mask>
		<mask id="mask111" maskUnits="userSpaceOnUse">
			<g id="g112">
				<path id="path111" d="m1e3 0h-1e3v718.31h179.2c38.38 142.38 167.45 247.1 320.8 247.1s282.42-104.72 320.8-247.1h179.2z" fill="#fff" />
			</g>
		</mask>
		<mask id="mask112" maskUnits="userSpaceOnUse">
			<g id="g113">
				<path id="path112" d="m1e3 0h-1e3v718.31h179.2c38.38 142.38 167.45 247.1 320.8 247.1s282.42-104.72 320.8-247.1h179.2z" fill="#fff" />
			</g>
		</mask>
		<mask id="mask113" maskUnits="userSpaceOnUse">
			<g id="g114">
				<path id="path113" d="m1e3 0h-1e3v718.31h179.2c38.38 142.38 167.45 247.1 320.8 247.1s282.42-104.72 320.8-247.1h179.2z" fill="#fff" />
			</g>
		</mask>
		<mask id="mask114" maskUnits="userSpaceOnUse">
			<g id="g115">
				<path id="path114" d="m1e3 0h-1e3v718.31h179.2c38.38 142.38 167.45 247.1 320.8 247.1s282.42-104.72 320.8-247.1h179.2z" fill="#fff" />
			</g>
		</mask>
		<mask id="mask115" maskUnits="userSpaceOnUse">
			<g id="g116">
				<path id="path115" d="m1e3 0h-1e3v718.31h179.2c38.38 142.38 167.45 247.1 320.8 247.1s282.42-104.72 320.8-247.1h179.2z" fill="#fff" />
			</g>
		</mask>
		<mask id="mask116" maskUnits="userSpaceOnUse">
			<g id="g117">
				<path id="path116" d="m1e3 0h-1e3v718.31h179.2c38.38 142.38 167.45 247.1 320.8 247.1s282.42-104.72 320.8-247.1h179.2z" fill="#fff" />
			</g>
		</mask>
		<mask id="mask117" maskUnits="userSpaceOnUse">
			<g id="g118">
				<path id="path117" d="m1e3 0h-1e3v718.31h179.2c38.38 142.38 167.45 247.1 320.8 247.1s282.42-104.72 320.8-247.1h179.2z" fill="#fff" />
			</g>
		</mask>
		<mask id="mask118" maskUnits="userSpaceOnUse">
			<g id="g119">
				<path id="path118" d="m1e3 0h-1e3v718.31h179.2c38.38 142.38 167.45 247.1 320.8 247.1s282.42-104.72 320.8-247.1h179.2z" fill="#fff" />
			</g>
		</mask>
		<mask id="mask119" maskUnits="userSpaceOnUse">
			<g id="g120">
				<path id="path119" d="m1e3 0h-1e3v718.31h179.2c38.38 142.38 167.45 247.1 320.8 247.1s282.42-104.72 320.8-247.1h179.2z" fill="#fff" />
			</g>
		</mask>
		<mask id="mask120" maskUnits="userSpaceOnUse">
			<g id="g121">
				<path id="path120" d="m1e3 0h-1e3v718.31h179.2c38.38 142.38 167.45 247.1 320.8 247.1s282.42-104.72 320.8-247.1h179.2z" fill="#fff" />
			</g>
		</mask>
		<mask id="mask121" maskUnits="userSpaceOnUse">
			<g id="g122">
				<path id="path121" d="m1e3 0h-1e3v718.31h179.2c38.38 142.38 167.45 247.1 320.8 247.1s282.42-104.72 320.8-247.1h179.2z" fill="#fff" />
			</g>
		</mask>
		<mask id="mask122" maskUnits="userSpaceOnUse">
			<g id="g123">
				<path id="path122" d="m1e3 0h-1e3v718.31h179.2c38.38 142.38 167.45 247.1 320.8 247.1s282.42-104.72 320.8-247.1h179.2z" fill="#fff" />
			</g>
		</mask>
		<mask id="mask123" maskUnits="userSpaceOnUse">
			<g id="g124">
				<path id="path123" d="m1e3 0h-1e3v718.31h179.2c38.38 142.38 167.45 247.1 320.8 247.1s282.42-104.72 320.8-247.1h179.2z" fill="#fff" />
			</g>
		</mask>
		<mask id="mask124" maskUnits="userSpaceOnUse">
			<g id="g125">
				<path id="path124" d="m1e3 0h-1e3v718.31h179.2c38.38 142.38 167.45 247.1 320.8 247.1s282.42-104.72 320.8-247.1h179.2z" fill="#fff" />
			</g>
		</mask>
		<mask id="mask125" maskUnits="userSpaceOnUse">
			<g id="g126">
				<path id="path125" d="m1e3 0h-1e3v718.31h179.2c38.38 142.38 167.45 247.1 320.8 247.1s282.42-104.72 320.8-247.1h179.2z" fill="#fff" />
			</g>
		</mask>
		<mask id="mask126" maskUnits="userSpaceOnUse">
			<g id="g127">
				<path id="path126" d="m1e3 0h-1e3v718.31h179.2c38.38 142.38 167.45 247.1 320.8 247.1s282.42-104.72 320.8-247.1h179.2z" fill="#fff" />
			</g>
		</mask>
		<mask id="mask127" maskUnits="userSpaceOnUse">
			<g id="g128">
				<path id="path127" d="m1e3 0h-1e3v718.31h179.2c38.38 142.38 167.45 247.1 320.8 247.1s282.42-104.72 320.8-247.1h179.2z" fill="#fff" />
			</g>
		</mask>
		<mask id="mask128" maskUnits="userSpaceOnUse">
			<g id="g129">
				<path id="path128" d="m1e3 0h-1e3v718.31h179.2c38.38 142.38 167.45 247.1 320.8 247.1s282.42-104.72 320.8-247.1h179.2z" fill="#fff" />
			</g>
		</mask>
		<mask id="mask129" maskUnits="userSpaceOnUse">
			<g id="g130">
				<path id="path129" d="m1e3 0h-1e3v718.31h179.2c38.38 142.38 167.45 247.1 320.8 247.1s282.42-104.72 320.8-247.1h179.2z" fill="#fff" />
			</g>
		</mask>
		<mask id="mask130" maskUnits="userSpaceOnUse">
			<g id="g131">
				<path id="path130" d="m1e3 0h-1e3v718.31h179.2c38.38 142.38 167.45 247.1 320.8 247.1s282.42-104.72 320.8-247.1h179.2z" fill="#fff" />
			</g>
		</mask>
		<mask id="mask131" maskUnits="userSpaceOnUse">
			<g id="g132">
				<path id="path131" d="m1e3 0h-1e3v718.31h179.2c38.38 142.38 167.45 247.1 320.8 247.1s282.42-104.72 320.8-247.1h179.2z" fill="#fff" />
			</g>
		</mask>
		<mask id="mask132" maskUnits="userSpaceOnUse">
			<g id="g133">
				<path id="path132" d="m1e3 0h-1e3v718.31h179.2c38.38 142.38 167.45 247.1 320.8 247.1s282.42-104.72 320.8-247.1h179.2z" fill="#fff" />
			</g>
		</mask>
		<mask id="mask133" maskUnits="userSpaceOnUse">
			<g id="g134">
				<path id="path133" d="m1e3 0h-1e3v718.31h179.2c38.38 142.38 167.45 247.1 320.8 247.1s282.42-104.72 320.8-247.1h179.2z" fill="#fff" />
			</g>
		</mask>
		<mask id="mask134" maskUnits="userSpaceOnUse">
			<g id="g135">
				<path id="path134" d="m1e3 0h-1e3v718.31h179.2c38.38 142.38 167.45 247.1 320.8 247.1s282.42-104.72 320.8-247.1h179.2z" fill="#fff" />
			</g>
		</mask>
		<mask id="mask135" maskUnits="userSpaceOnUse">
			<g id="g136">
				<path id="path135" d="m1e3 0h-1e3v718.31h179.2c38.38 142.38 167.45 247.1 320.8 247.1s282.42-104.72 320.8-247.1h179.2z" fill="#fff" />
			</g>
		</mask>
		<mask id="mask136" maskUnits="userSpaceOnUse">
			<g id="g137">
				<path id="path136" d="m1e3 0h-1e3v718.31h179.2c38.38 142.38 167.45 247.1 320.8 247.1s282.42-104.72 320.8-247.1h179.2z" fill="#fff" />
			</g>
		</mask>
		<mask id="mask137" maskUnits="userSpaceOnUse">
			<g id="g138">
				<path id="path137" d="m1e3 0h-1e3v718.31h179.2c38.38 142.38 167.45 247.1 320.8 247.1s282.42-104.72 320.8-247.1h179.2z" fill="#fff" />
			</g>
		</mask>
		<mask id="mask138" maskUnits="userSpaceOnUse">
			<g id="g139">
				<path id="path138" d="m1e3 0h-1e3v718.31h179.2c38.38 142.38 167.45 247.1 320.8 247.1s282.42-104.72 320.8-247.1h179.2z" fill="#fff" />
			</g>
		</mask>
		<mask id="mask139" maskUnits="userSpaceOnUse">
			<g id="g140">
				<path id="path139" d="m1e3 0h-1e3v718.31h179.2c38.38 142.38 167.45 247.1 320.8 247.1s282.42-104.72 320.8-247.1h179.2z" fill="#fff" />
			</g>
		</mask>
		<mask id="mask140" maskUnits="userSpaceOnUse">
			<g id="g141">
				<path id="path140" d="m1e3 0h-1e3v718.31h179.2c38.38 142.38 167.45 247.1 320.8 247.1s282.42-104.72 320.8-247.1h179.2z" fill="#fff" />
			</g>
		</mask>
		<mask id="mask141" maskUnits="userSpaceOnUse">
			<g id="g142">
				<path id="path141" d="m1e3 0h-1e3v718.31h179.2c38.38 142.38 167.45 247.1 320.8 247.1s282.42-104.72 320.8-247.1h179.2z" fill="#fff" />
			</g>
		</mask>
		<mask id="mask142" maskUnits="userSpaceOnUse">
			<g id="g143">
				<path id="path142" d="m1e3 0h-1e3v718.31h179.2c38.38 142.38 167.45 247.1 320.8 247.1s282.42-104.72 320.8-247.1h179.2z" fill="#fff" />
			</g>
		</mask>
		<mask id="mask143" maskUnits="userSpaceOnUse">
			<g id="g144">
				<path id="path143" d="m1e3 0h-1e3v718.31h179.2c38.38 142.38 167.45 247.1 320.8 247.1s282.42-104.72 320.8-247.1h179.2z" fill="#fff" />
			</g>
		</mask>
		<mask id="mask144" maskUnits="userSpaceOnUse">
			<g id="g145">
				<path id="path144" d="m1e3 0h-1e3v718.31h179.2c38.38 142.38 167.45 247.1 320.8 247.1s282.42-104.72 320.8-247.1h179.2z" fill="#fff" />
			</g>
		</mask>
		<mask id="mask145" maskUnits="userSpaceOnUse">
			<g id="g146">
				<path id="path145" d="m1e3 0h-1e3v718.31h179.2c38.38 142.38 167.45 247.1 320.8 247.1s282.42-104.72 320.8-247.1h179.2z" fill="#fff" />
			</g>
		</mask>
		<mask id="mask146" maskUnits="userSpaceOnUse">
			<g id="g147">
				<path id="path146" d="m1e3 0h-1e3v718.31h179.2c38.38 142.38 167.45 247.1 320.8 247.1s282.42-104.72 320.8-247.1h179.2z" fill="#fff" />
			</g>
		</mask>
		<mask id="mask147" maskUnits="userSpaceOnUse">
			<g id="g148">
				<path id="path147" d="m1e3 0h-1e3v718.31h179.2c38.38 142.38 167.45 247.1 320.8 247.1s282.42-104.72 320.8-247.1h179.2z" fill="#fff" />
			</g>
		</mask>
		<mask id="mask148" maskUnits="userSpaceOnUse">
			<g id="g149">
				<path id="path148" d="m1e3 0h-1e3v718.31h179.2c38.38 142.38 167.45 247.1 320.8 247.1s282.42-104.72 320.8-247.1h179.2z" fill="#fff" />
			</g>
		</mask>
		<mask id="mask149" maskUnits="userSpaceOnUse">
			<g id="g150">
				<path id="path149" d="m1e3 0h-1e3v718.31h179.2c38.38 142.38 167.45 247.1 320.8 247.1s282.42-104.72 320.8-247.1h179.2z" fill="#fff" />
			</g>
		</mask>
		<mask id="mask150" maskUnits="userSpaceOnUse">
			<g id="g151">
				<path id="path150" d="m1e3 0h-1e3v718.31h179.2c38.38 142.38 167.45 247.1 320.8 247.1s282.42-104.72 320.8-247.1h179.2z" fill="#fff" />
			</g>
		</mask>
		<mask id="mask151" maskUnits="userSpaceOnUse">
			<g id="g152">
				<path id="path151" d="m1e3 0h-1e3v718.31h179.2c38.38 142.38 167.45 247.1 320.8 247.1s282.42-104.72 320.8-247.1h179.2z" fill="#fff" />
			</g>
		</mask>
		<mask id="mask152" maskUnits="userSpaceOnUse">
			<g id="g153">
				<path id="path152" d="m1e3 0h-1e3v718.31h179.2c38.38 142.38 167.45 247.1 320.8 247.1s282.42-104.72 320.8-247.1h179.2z" fill="#fff" />
			</g>
		</mask>
		<mask id="mask153" maskUnits="userSpaceOnUse">
			<g id="g154">
				<path id="path153" d="m1e3 0h-1e3v718.31h179.2c38.38 142.38 167.45 247.1 320.8 247.1s282.42-104.72 320.8-247.1h179.2z" fill="#fff" />
			</g>
		</mask>
		<mask id="mask154" maskUnits="userSpaceOnUse">
			<g id="g155">
				<path id="path154" d="m1e3 0h-1e3v718.31h179.2c38.38 142.38 167.45 247.1 320.8 247.1s282.42-104.72 320.8-247.1h179.2z" fill="#fff" />
			</g>
		</mask>
		<mask id="mask155" maskUnits="userSpaceOnUse">
			<g id="g156">
				<path id="path155" d="m1e3 0h-1e3v718.31h179.2c38.38 142.38 167.45 247.1 320.8 247.1s282.42-104.72 320.8-247.1h179.2z" fill="#fff" />
			</g>
		</mask>
		<mask id="mask156" maskUnits="userSpaceOnUse">
			<g id="g157">
				<path id="path156" d="m1e3 0h-1e3v718.31h179.2c38.38 142.38 167.45 247.1 320.8 247.1s282.42-104.72 320.8-247.1h179.2z" fill="#fff" />
			</g>
		</mask>
		<mask id="mask157" maskUnits="userSpaceOnUse">
			<g id="g158">
				<path id="path157" d="m1e3 0h-1e3v718.31h179.2c38.38 142.38 167.45 247.1 320.8 247.1s282.42-104.72 320.8-247.1h179.2z" fill="#fff" />
			</g>
		</mask>
		<mask id="mask158" maskUnits="userSpaceOnUse">
			<g id="g159">
				<path id="path158" d="m1e3 0h-1e3v718.31h179.2c38.38 142.38 167.45 247.1 320.8 247.1s282.42-104.72 320.8-247.1h179.2z" fill="#fff" />
			</g>
		</mask>
	</defs>
	<circle id="circle1" cx="500" cy="630.16" r="332.44" fill="#85c5e5" mask="url(#mask158)" />
	<g id="g2" mask="url(#mask157)" kind="Beanie">
		<path id="path2" d="m225.35 498c183.42 77.95 371.14 79.06 555.94 0 17.53-7.5 17.43-139.87 0-133.81-180.47 62.83-371.33 63.5-555.94 0-21.96-7.59-19.82 125.34 0 133.81z" fill="#592d3d" stroke="#592d3d" stroke-miterlimit="10" stroke-width="12px" />
	</g>
	<path id="path3" d="m610 758.72c90.76 0 72 114.24 72.87 241.28h-72.87z" fill="#fdd2b2" mask="url(#mask156)" />
	<path id="path4" d="m632.74 831.87-22.74 38.13 11.38 130h31.76c0.77-180.27-20.4-168.13-20.4-168.13z" fill="#f3ab98" mask="url(#mask155)" />
	<path id="path5" d="m233.25 500c0-147.32 119.43-266.75 266.75-266.75s266.75 119.43 266.75 266.75a266.22 266.22 0 0 1-98.65 207.12q-8.21 6.68-16.94 12.69c-60.16 38.19-136.16 38.19-204.77 32.08-6.66-1-13.3-2.26-19.89-3.71-26.33-5.8-51.82-14.75-75.37-27.8q-8.73-5.38-16.93-11.62a199.59 199.59 0 0 1-15.8-13.38q-7.14-6.63-13.79-13.78a265.86 265.86 0 0 1-71.36-181.6z" fill="#fdd2b2" mask="url(#mask154)" />
	<path id="path6" d="m269.61 634.48c0.7 1.2 1.39 2.4 2.11 3.58 0.43 0.72 0.88 1.42 1.33 2.14 0.66 1.07 1.32 2.14 2 3.19 0.48 0.76 1 1.5 1.46 2.24 0.66 1 1.32 2 2 3 0.51 0.76 1 1.52 1.56 2.28 0.66 1 1.32 1.92 2 2.88 0.54 0.77 1.1 1.53 1.65 2.3s1.34 1.85 2 2.77 1.15 1.53 1.73 2.29 1.37 1.8 2.07 2.7 1.19 1.51 1.79 2.26 1.41 1.76 2.12 2.63 1.23 1.49 1.85 2.23 1.44 1.72 2.17 2.57 1.27 1.47 1.91 2.2l2.22 2.5c0.65 0.73 1.31 1.44 2 2.16 0.86 0.94 1.73 1.87 2.6 2.79l1.21 1.28c1.29 1.34 2.59 2.68 3.91 4l0.26 0.27c1.29 1.28 2.6 2.55 3.91 3.81l1.58 1.5c0.95 0.89 1.9 1.78 2.86 2.66l1.16 1.06c1 0.94 2.09 1.86 3.14 2.78q4.9 4.27 10 8.19 8.19 6.24 16.93 11.62c23.55 13 49 22 75.37 27.8 6.59 1.45 13.23 2.7 19.89 3.71 42.1 3.75 87 5.18 129.28-3.08-67.23-19.79-390.09-136.05-186.88-491.31-2.72 1.25-5.4 2.54-8.06 3.88l-0.59 0.29c-1.22 0.61-2.44 1.24-3.65 1.88l-1 0.53c-3.76 2-7.48 4.07-11.13 6.23l-0.9 0.53c-1.16 0.69-2.31 1.39-3.46 2.1l-0.87 0.54q-5.36 3.35-10.55 6.93l-1.08 0.75c-1.09 0.76-2.16 1.52-3.23 2.29l-0.66 0.47q-3.27 2.39-6.46 4.84l-0.62 0.48c-1 0.78-2 1.58-3 2.39l-1.17 0.94c-1 0.81-2 1.62-3 2.45-2.11 1.75-4.19 3.55-6.24 5.37l-1.14 1-2.69 2.45-1.3 1.18q-4.28 4-8.37 8.17l-1.38 1.41c-0.79 0.82-1.58 1.64-2.36 2.47-0.46 0.49-0.92 1-1.37 1.48q-2.06 2.2-4.06 4.46c-0.45 0.51-0.91 1-1.36 1.54-0.71 0.81-1.41 1.63-2.11 2.45l-1.51 1.79c-0.68 0.81-1.36 1.62-2 2.44-0.54 0.66-1.08 1.33-1.61 2-1.07 1.33-2.12 2.66-3.16 4-0.54 0.7-1.08 1.4-1.61 2.11s-1.2 1.59-1.79 2.4-1.07 1.45-1.59 2.18-1.13 1.55-1.68 2.33q-1.42 2-2.8 4.05c-0.5 0.73-1 1.48-1.49 2.22s-1.1 1.66-1.64 2.5l-1.49 2.31-1.68 2.71c-0.43 0.69-0.86 1.38-1.28 2.07-0.89 1.46-1.75 2.93-2.61 4.4l-1.22 2.16c-0.54 0.95-1.08 1.91-1.61 2.87-0.4 0.73-0.8 1.46-1.19 2.19-0.64 1.19-1.27 2.39-1.9 3.59l-1.2 2.34c-0.64 1.28-1.28 2.55-1.91 3.84-0.33 0.69-0.67 1.39-1 2.09-0.52 1.09-1 2.19-1.53 3.29-0.31 0.66-0.61 1.32-0.91 2q-1.11 2.47-2.17 5c-0.22 0.52-0.43 1.05-0.65 1.57-0.53 1.27-1.05 2.54-1.56 3.82-0.27 0.67-0.53 1.34-0.79 2-0.5 1.26-1 2.53-1.45 3.8-0.21 0.55-0.42 1.1-0.62 1.65q-0.94 2.63-1.85 5.26l-0.56 1.7q-0.66 2-1.29 4l-0.6 1.91c-0.47 1.54-0.93 3.08-1.37 4.63-0.1 0.33-0.2 0.66-0.29 1q-0.78 2.76-1.5 5.54c-0.16 0.59-0.3 1.19-0.45 1.78-0.35 1.39-0.69 2.78-1 4.18l-0.42 1.75c-0.43 1.9-0.85 3.8-1.24 5.71l-0.15 0.77q-0.51 2.55-1 5.1c-0.11 0.61-0.21 1.21-0.32 1.82-0.26 1.49-0.51 3-0.74 4.5-0.08 0.51-0.17 1-0.24 1.52-0.3 1.95-0.57 3.91-0.83 5.88l-0.15 1.3c-0.2 1.59-0.38 3.19-0.55 4.79-0.06 0.6-0.13 1.2-0.19 1.81-0.16 1.68-0.31 3.37-0.45 5.06 0 0.35-0.06 0.69-0.08 1q-0.22 3-0.39 6.05c0 0.53 0 1.07-0.07 1.6q-0.1 2.36-0.18 4.71v1.77c0 2.05-0.08 4.11-0.08 6.17v0.1c0 2.22 0 4.42 0.08 6.62 0 0.76 0.06 1.52 0.08 2.28 0.05 1.47 0.1 2.94 0.17 4.41 0 0.89 0.11 1.77 0.16 2.66 0.08 1.33 0.15 2.66 0.25 4 0.07 1 0.16 1.89 0.24 2.83 0.11 1.26 0.21 2.52 0.34 3.77 0.09 1 0.21 1.94 0.31 2.91 0.14 1.21 0.27 2.43 0.42 3.64 0.12 1 0.26 2 0.39 2.95 0.16 1.18 0.32 2.37 0.5 3.55 0.15 1 0.31 2 0.47 3 0.18 1.16 0.37 2.33 0.57 3.49 0.18 1 0.36 2 0.55 3 0.21 1.15 0.43 2.3 0.65 3.44s0.41 2 0.62 3c0.24 1.14 0.48 2.27 0.74 3.4s0.44 2 0.68 2.93c0.26 1.13 0.54 2.25 0.82 3.36s0.49 1.95 0.74 2.91c0.3 1.12 0.6 2.23 0.91 3.34 0.26 1 0.53 1.92 0.81 2.87 0.32 1.11 0.65 2.21 1 3.31s0.58 1.89 0.88 2.84 0.7 2.19 1.06 3.28 0.62 1.87 0.94 2.8c0.38 1.09 0.76 2.18 1.15 3.27 0.33 0.91 0.65 1.83 1 2.74l1.24 3.27c0.35 0.89 0.69 1.79 1 2.68 0.44 1.09 0.89 2.19 1.34 3.28 0.36 0.86 0.71 1.73 1.08 2.59 0.47 1.12 1 2.22 1.45 3.33 0.37 0.82 0.73 1.65 1.1 2.47 0.52 1.16 1.07 2.3 1.6 3.44l1.08 2.3c0.61 1.26 1.24 2.5 1.87 3.75 0.32 0.63 0.62 1.27 0.95 1.9q2.88 5.61 6 11.07c0.29 0.47 0.66 1.08 1.02 1.69z" fill="#f3ab98" mask="url(#mask153)" />
	<path id="path7" d="m233.25 500c0-147.32 119.43-266.75 266.75-266.75s266.75 119.43 266.75 266.75a266.22 266.22 0 0 1-98.65 207.12q-8.21 6.68-16.94 12.69c-60.16 38.19-136.16 38.19-204.77 32.08-6.66-1-13.3-2.26-19.89-3.71-26.33-5.8-51.82-14.75-75.37-27.8q-8.73-5.38-16.93-11.62a199.59 199.59 0 0 1-15.8-13.38q-7.14-6.63-13.79-13.78a265.86 265.86 0 0 1-71.36-181.6z" fill="none" mask="url(#mask152)" stroke="#592d3d" stroke-miterlimit="10" stroke-width="12px" />
	<path id="path8" d="m386.12 758.72c-90.77 0-72 114.24-72.87 241.28h72.87z" fill="#fdd2b2" mask="url(#mask151)" />
	<path id="path9" d="m367.23 831.87 22.77 38.13-11.39 130h-31.73c-0.81-180.27 20.35-168.13 20.35-168.13z" fill="#f3ab98" mask="url(#mask150)" />
	<path id="path10" d="m619.47 1070h-238.94a13.28 13.28 0 0 1-13.27-13.28v-284.72a13.28 13.28 0 0 1 13.27-13.28h233.23c13.09 0 19 7.66 19 19.88v278.08a13.28 13.28 0 0 1-13.29 13.32z" fill="#fdd2b2" mask="url(#mask149)" />
	<path id="path11" d="m629.05 766.62a19.33 19.33 0 0 1-2.51-4 17.25 17.25 0 0 0-8.28-3.51 28.88 28.88 0 0 0-4.5-0.34h-233.23a13.28 13.28 0 0 0-13.27 13.23c29 10.42 83.29 16.24 132.74 16.24 63.06 0 104.38-9.35 129.05-21.62z" fill="#f3ab98" mask="url(#mask148)" />
	<g fill="none" stroke="#592d3d" stroke-miterlimit="10" stroke-width="12px">
		<path id="path12" d="m610 758.72c90.76 0 72 114.24 72.87 241.28h-50.13" mask="url(#mask147)" stroke-linecap="square" />
		<path id="path13" d="m386.12 758.72c-90.77 0-72 114.24-72.87 241.28h50.07" mask="url(#mask146)" stroke-linecap="square" />
		<path id="path14" d="m380.53 758.82 233.23-0.1" mask="url(#mask145)" />
	</g>
	<path id="path15" d="m380.53 1070h116.62c-109.15 0-100.91-231.18-129.89-231.18v217.86a13.28 13.28 0 0 0 13.27 13.32z" fill="#f3ab98" mask="url(#mask144)" />
	<path id="path16" d="m361.26 860.85c-0.19-3.67-0.11-7.34 0.05-11s0.47-7.35 0.86-11c0.2-1.84 0.4-3.67 0.65-5.51s0.49-3.67 0.85-5.51a44.18 44.18 0 0 1 3.59-11 44.18 44.18 0 0 1 3.59 11c0.36 1.84 0.62 3.67 0.85 5.51s0.45 3.67 0.65 5.51c0.38 3.67 0.68 7.34 0.85 11s0.25 7.34 0.06 11z" fill="#592d3d" mask="url(#mask143)" />
	<path id="path17" d="m632.74 870v8c0.26 34 0.26 69 0 102.75v8.53 67.41a13.28 13.28 0 0 1-13.27 13.31h-238.94a13.28 13.28 0 0 1-13.27-13.28v-58.2-7.65c-0.25-34.87-0.25-69.87 0-105.3v-24.72" fill="none" mask="url(#mask142)" stroke="#592d3d" stroke-miterlimit="10" stroke-width="12px" />
	<g fill="#592d3d">
		<path id="path18" d="m626.74 870c-0.19-4.17-0.1-8.35 0.06-12.53s0.47-8.35 0.85-12.53c0.2-2.09 0.41-4.18 0.65-6.27s0.49-4.17 0.85-6.26a55.09 55.09 0 0 1 3.59-12.53 55.09 55.09 0 0 1 3.59 12.53c0.36 2.09 0.62 4.18 0.85 6.26s0.45 4.18 0.65 6.27c0.38 4.18 0.69 8.35 0.85 12.53s0.25 8.36 0.06 12.53z" mask="url(#mask141)" />
		<path id="path19" d="m570.68 842.45c0.22-9.45 12.22-13.45 18.22-7.45a10.611 10.611 0 1 1-15.16 14.85 10.4 10.4 0 0 1-3.06-7.4z" mask="url(#mask140)" />
		<path id="path20" d="m408.11 842.15c-0.21-8.15 8.79-12.15 14.79-9.15 8 3 8 14 0 19-4 2-8 0-11.75-2.48a10.39 10.39 0 0 1-3.04-7.37z" mask="url(#mask139)" />
	</g>
	<g fill="#f3ab98">
		<path id="path21" d="m500 831.77a27.13 27.13 0 0 1 1.5 5.84 42.47 42.47 0 0 1 0.49 5.84l0.3 11.69c0.09 3.89 0.21 7.79 0.25 11.69l0.17 11.67c0.23 15.57 0.22 31.16 0.28 46.74s0.18 31.16 0 46.74c-0.09 7.79-0.3 15.58-0.53 23.37-0.1 3.89-0.29 7.79-0.67 11.68a92.5 92.5 0 0 1-1.77 11.69 92.5 92.5 0 0 1-1.77-11.69c-0.38-3.89-0.57-7.79-0.67-11.68-0.23-7.79-0.44-15.58-0.53-23.37-0.2-15.58 0-31.16 0-46.74s0-31.15 0.18-46.73l0.17-11.7 0.66-23.36a44.11 44.11 0 0 1 0.5-5.84 27.13 27.13 0 0 1 1.44-5.84z" mask="url(#mask138)" />
		<path id="path22" d="m425.22 883a18.51 18.51 0 0 1 4.67-1.5 29.75 29.75 0 0 1 4.68-0.5l9.35-0.33 18.7-0.41c12.46-0.19 24.91-0.24 37.38-0.27s24.93-0.16 37.39 0c6.23 0.09 12.46 0.3 18.7 0.53 3.11 0.11 6.23 0.3 9.34 0.67a61.34 61.34 0 0 1 9.35 1.78 59.17 59.17 0 0 1-9.35 1.77c-3.11 0.38-6.23 0.57-9.34 0.67-6.24 0.23-12.47 0.43-18.7 0.52-12.46 0.19-24.92 0-37.39 0s-24.93 0-37.4-0.15c-6.23-0.06-12.46-0.26-18.68-0.5l-9.35-0.34a29.5 29.5 0 0 1-4.67-0.5 18.45 18.45 0 0 1-4.68-1.44z" mask="url(#mask137)" />
		<path id="path23" d="m442.41 914.38a12.51 12.51 0 0 1 3.74-1.11 18.35 18.35 0 0 1 3.62-0.15c2.39 0.1 4.78 0.16 7.17 0.21 4.78 0.11 9.56 0.15 14.34 0.17 9.63 0 19.09 0.08 28.76-0.21s19.26-0.43 28.88-0.39c4.81 0 9.62 0.13 14.42 0.24a70.37 70.37 0 0 1 7.23 0.47 38.17 38.17 0 0 1 7.27 1.53 36.56 36.56 0 0 1-7.16 2 61.08 61.08 0 0 1-7.21 0.86c-4.82 0.35-9.64 0.65-14.45 0.82-9.64 0.36-19.27 0.32-28.88 0.45-4.81 0-9.61 0.22-14.48 0.1s-9.69-0.13-14.52-0.31-9.68-0.58-14.5-1.08c-2.42-0.27-4.82-0.57-7.23-0.9a16.82 16.82 0 0 1-3.57-0.84 11.51 11.51 0 0 1-3.43-1.86z" mask="url(#mask136)" />
		<path id="path24" d="m438.93 949.87a13.07 13.07 0 0 1 3.82-1.5 19.13 19.13 0 0 1 3.82-0.49l7.63-0.32c5.09-0.18 10.19-0.33 15.28-0.41 10.18-0.15 20.36-0.15 30.52-0.15s20.36-0.17 30.54 0c5.09 0.09 10.18 0.3 15.27 0.53a72.73 72.73 0 0 1 7.63 0.66 41.2 41.2 0 0 1 7.66 1.81 41.25 41.25 0 0 1-7.63 1.77 70.34 70.34 0 0 1-7.64 0.67c-5.09 0.23-10.18 0.44-15.27 0.53-10.18 0.2-20.37 0.06-30.55 0s-20.36-0.06-30.54-0.25c-5.09-0.1-10.19-0.28-15.28-0.49l-7.63-0.37a19.33 19.33 0 0 1-3.82-0.5 12.85 12.85 0 0 1-3.81-1.49z" mask="url(#mask135)" />
		<path id="path25" d="m677.8 906.35c0.21-37.11-1.21-70.07-7.73-95.39-10.07-25.36-28.18-40.48-60.07-40.48l22.79 134.52s22.52 10.24 45.01 1.35z" mask="url(#mask134)" />
	</g>
	<path id="path26" d="m686.41 895.79a20.31 20.31 0 0 1-3.7 2.43" fill="none" mask="url(#mask133)" stroke="#592d3d" stroke-linecap="square" stroke-miterlimit="10" stroke-width="12px" />
	<path id="path27" d="m326.11 809.88c-6.83 25.57-8 59.13-7.74 97 19.9 8.54 50.42-2.15 50.42-2.15l17.33-132.24c-30.87-0.03-49.27 13.87-60.01 37.39z" fill="#f3ab98" mask="url(#mask132)" />
	<path id="path28" d="m613.76 758.72h-54.21v0.1a62.78 62.78 0 0 1-1.44 13.39 60.92 60.92 0 0 1-1.74 6.33 50.88 50.88 0 0 1-10 16.83 48.2 48.2 0 0 1-4.5 4.43c-25.17 18.2-65.17 19.2-89.48-0.58a51.79 51.79 0 0 1-7.11-7.6 50.84 50.84 0 0 1-9.1-19.41 62.41 62.41 0 0 1-1.07-6.59 61 61 0 0 1-0.37-6.8v-0.1h-54.21a13.28 13.28 0 0 0-13.27 13.28v284.68a13.28 13.28 0 0 0 13.27 13.32h238.94a13.28 13.28 0 0 0 13.27-13.28v-278.12c0-12.22-5.89-19.88-18.98-19.88z" fill="#85c5e5" mask="url(#mask131)" />
	<path id="path29" d="m610 758.72c63.54 0 73.4 56 73.9 133.17-18.6 11.62-48.91 1.31-48.91 1.31z" fill="#85c5e5" mask="url(#mask130)" />
	<path id="path30" d="m632.74 831.87-22.74 38.13 11.38 130h11.61v-105.65l17.28 2.89c-5.67-72.17-17.53-65.37-17.53-65.37z" fill="#67b7d6" mask="url(#mask129)" />
	<path id="path31" d="m386.12 758.72c-61.78 0-75.83 53.8-76.85 127.66 19 19.86 58 4.58 58 4.58z" fill="#85c5e5" mask="url(#mask128)" />
	<path id="path32" d="m367.23 831.87v59.13l-17.31 4.31c5.67-70.12 17.31-63.44 17.31-63.44z" fill="#67b7d6" mask="url(#mask127)" />
	<path id="path33" d="m610 758.72c67.41 0 78.45 56.29 78.9 133.78-26.2 12.43-53.91 0.7-53.91 0.7" fill="none" mask="url(#mask126)" stroke="#592d3d" stroke-linecap="square" stroke-miterlimit="10" stroke-width="12px" />
	<path id="path34" d="m386.12 758.72c-66.79 0-80.08 54.7-80.76 130.72 20.64 14.78 61.86 1.56 61.86 1.56" fill="none" mask="url(#mask125)" stroke="#592d3d" stroke-linecap="square" stroke-miterlimit="10" stroke-width="12px" />
	<path id="path35" d="m380.53 1070h116.62c-109.15 0-100.91-231.18-129.89-231.18v217.86a13.28 13.28 0 0 0 13.27 13.32z" fill="#67b7d6" mask="url(#mask124)" />
	<path id="path36" d="m361.26 860.85c-0.19-3.67-0.11-7.34 0.05-11s0.47-7.35 0.86-11c0.2-1.84 0.4-3.67 0.65-5.51s0.49-3.67 0.85-5.51a44.18 44.18 0 0 1 3.59-11 43.74 43.74 0 0 1 3.58 11c0.37 1.84 0.63 3.67 0.86 5.51s0.45 3.67 0.65 5.51c0.38 3.67 0.68 7.34 0.85 11s0.25 7.34 0.06 11z" fill="#592d3d" mask="url(#mask123)" />
	<path id="path37" d="m632.74 870v8c0.26 34 0.26 69 0 102.75v8.53 67.41a13.28 13.28 0 0 1-13.27 13.31h-238.94a13.28 13.28 0 0 1-13.27-13.28v-58.2-7.65c-0.25-34.87-0.25-69.87 0-105.3v-24.72" fill="none" mask="url(#mask122)" stroke="#592d3d" stroke-miterlimit="10" stroke-width="12px" />
	<path id="path38" d="m626.74 870c-0.19-4.17-0.1-8.35 0.06-12.53s0.47-8.35 0.85-12.53c0.2-2.09 0.41-4.18 0.65-6.27s0.49-4.17 0.86-6.26a54.55 54.55 0 0 1 3.58-12.53 55.09 55.09 0 0 1 3.59 12.53c0.36 2.09 0.62 4.18 0.85 6.26s0.45 4.18 0.65 6.27c0.38 4.18 0.69 8.35 0.85 12.53s0.25 8.36 0.06 12.53z" fill="#592d3d" mask="url(#mask121)" />
	<path id="path39" d="m380.53 758.82 233.23-0.1" fill="none" mask="url(#mask120)" stroke="#592d3d" stroke-miterlimit="10" stroke-width="12px" />
	<path id="path40" d="m559.55 758.82a62.78 62.78 0 0 1-1.44 13.39 60.92 60.92 0 0 1-1.74 6.33 50.88 50.88 0 0 1-10 16.83 48.2 48.2 0 0 1-4.5 4.43c-25.17 18.2-65.17 19.2-89.48-0.58a51.79 51.79 0 0 1-7.11-7.6 50.84 50.84 0 0 1-9.1-19.41 62.41 62.41 0 0 1-1.07-6.59 61 61 0 0 1-0.37-6.8" fill="none" mask="url(#mask119)" stroke="#592d3d" stroke-miterlimit="10" stroke-width="12px" />
	<path id="path41" d="m503.4 828.39a66.61 66.61 0 0 1-18.39 1.1 69.79 69.79 0 0 1-18.2-3.76 61.46 61.46 0 0 1-16.5-8.64l-1.86-1.41c-0.61-0.48-1.2-1-1.79-1.52a32.24 32.24 0 0 1-3.33-3.28 43.83 43.83 0 0 1-5.38-7.51 87.37 87.37 0 0 0 6.74 6.09c0.58 0.48 1.17 0.95 1.75 1.4s1.23 0.82 1.84 1.24 1.22 0.84 1.85 1.23l1.91 1.16a88.05 88.05 0 0 0 16.1 7.46 106.26 106.26 0 0 0 17.25 4.45 173.7 173.7 0 0 0 18.01 1.99z" fill="#592d3d" mask="url(#mask118)" />
	<path id="path42" d="m307.83 892.5a24.54 24.54 0 0 0 3.68 2.77" fill="none" mask="url(#mask117)" stroke="#592d3d" stroke-linecap="square" stroke-miterlimit="10" stroke-width="12px" />
	<path id="path43" d="m674.7 882.69a19.88 19.88 0 0 1-6.76 2.52 34.83 34.83 0 0 1-7.2 0.65 40.16 40.16 0 0 1-7.18-0.79c-1.18-0.21-2.33-0.56-3.49-0.87s-2.27-0.77-3.37-1.24c1.21 0 2.38 0.18 3.56 0.28l3.52 0.29c1.17 0 2.33 0.2 3.5 0.21s2.32 0.11 3.48 0.12q3.5 0.06 7-0.19a49.31 49.31 0 0 0 6.94-0.98z" fill="#592d3d" mask="url(#mask116)" />
	<path id="path44" d="m517.8 866.62-14.4 24.94-14.4-24.94h-48l62.36 108 62.36-108z" fill="none" mask="url(#mask115)" stroke="#fff" stroke-width="16px" />
	<path id="path45" d="m517.8 866.62-14.4 24.94-14.4-24.94h-48l62.36 108 62.36-108z" fill="#44b783" mask="url(#mask114)" />
	<path id="path46" d="m517.8 866.62-14.4 24.94-14.4-24.94h-23l37.42 64.81 37.42-64.81z" fill="#364a5e" mask="url(#mask113)" />
	<path id="path47" d="m703.51 506.11v12.89a49.59 49.59 0 0 1-1.94 25.32 45.67 45.67 0 0 1-3.51 7.65c-3.35 8.71-12.35 15.71-21.35 18.71-14 4-31 2-42-9-14-15-12-37-12.45-55.62" fill="none" mask="url(#mask112)" stroke="#592d3d" stroke-linecap="round" stroke-miterlimit="10" stroke-width="12px" />
	<path id="path48" d="m376.69 505.7c2.34 26.61-1.66 63.61-36.13 67.17a45.89 45.89 0 0 1-8.12 0 43.6 43.6 0 0 1-22.44-8.56c-18-15-14-39-13.95-58.62" fill="none" mask="url(#mask111)" stroke="#592d3d" stroke-linecap="round" stroke-miterlimit="10" stroke-width="12px" />
	<rect id="rect51" x="290.23" y="414.02" width="439.24" height="64.15" fill="#f3ab98" mask="url(#mask107)" />
	<path id="path52" d="m710 667.66q-4.71 5.82-9.71 11.37c-2.5 2.77 2.58-1.12 9.71-11.37zm15-316.55c-30.5-54.41-83.5-91.87-144.78-109.11l-6.35-1.71c-22.7-6.28-46.62-7-71.32-7-26.69 0-52.46 2.74-76.77 10l-4.26 1.27c-86.36 29.06-157.74 102.18-176.46 185.24-32.06 126.54 17.83 204.2 62.11 251.8 4.37 4.7-57.93-101.85-17.42-216 7.73-0.29 20.24-0.51 36.19-0.67l15.5-50.61 17.44 50.38c27.4-0.13 59.88-0.15 93.88-0.12l12.32-52.36 13.92 52.38c74.37 0.14 151.44 0.52 195.28 0.77l13.2-52.17 15 52.33 8.21 0.05c50.09 106.42 17.81 175.55-0.69 202.08a265.62 265.62 0 0 0 59.3-167.66c0-86.42-44.3-148.89-44.3-148.89z" fill="#a56941" mask="url(#mask106)" />
	<path id="path53" d="m325.14 464.92c0.9-57.85 19.88-126.43 66.22-207.44q-4.07 1.88-8.06 3.88l-0.59 0.29c-1.22 0.61-2.44 1.24-3.65 1.88l-1 0.53q-5.64 3-11.13 6.23l-0.9 0.53c-1.16 0.69-2.31 1.39-3.46 2.1l-0.86 0.54q-5.37 3.35-10.56 6.93l-1.08 0.75c-1.08 0.76-2.16 1.52-3.23 2.29l-0.65 0.47q-3.27 2.39-6.47 4.84l-0.62 0.48c-1 0.78-2 1.58-3 2.39l-1.18 0.94c-1 0.81-2 1.62-3 2.45-2.11 1.75-4.18 3.55-6.24 5.37l-1.14 1-2.69 2.45-1.32 1.18q-4.27 4-8.37 8.17l-1.37 1.41c-0.8 0.82-1.59 1.64-2.37 2.47l-1.37 1.48q-2.05 2.24-4.05 4.47c-0.46 0.51-0.92 1-1.37 1.54-0.71 0.81-1.41 1.63-2.11 2.45l-1.52 1.81c-0.68 0.81-1.36 1.62-2 2.44-0.54 0.66-1.07 1.33-1.61 2-1.06 1.33-2.11 2.66-3.15 4-0.55 0.7-1.09 1.4-1.62 2.11s-1.2 1.59-1.79 2.4l-1.59 2.18c-0.56 0.78-1.13 1.55-1.68 2.33-0.94 1.34-1.88 2.69-2.8 4.05-0.5 0.73-1 1.48-1.48 2.22s-1.11 1.66-1.65 2.5-1 1.54-1.48 2.31-1.13 1.8-1.69 2.71c-0.43 0.69-0.86 1.38-1.28 2.07q-1.32 2.19-2.6 4.4c-0.42 0.72-0.82 1.44-1.23 2.16-0.54 0.95-1.08 1.91-1.61 2.87-0.4 0.73-0.8 1.46-1.19 2.19-0.64 1.19-1.27 2.39-1.89 3.59-0.41 0.78-0.81 1.56-1.21 2.34-0.64 1.28-1.28 2.55-1.9 3.84-0.34 0.69-0.67 1.39-1 2.09-0.52 1.09-1 2.19-1.54 3.29l-0.91 2q-1.11 2.47-2.17 5c-0.22 0.52-0.43 1.05-0.65 1.57-0.53 1.27-1 2.54-1.56 3.82-0.27 0.67-0.53 1.34-0.79 2-0.49 1.26-1 2.53-1.45 3.8l-0.61 1.65q-1 2.63-1.86 5.26l-0.56 1.7q-0.66 2-1.29 4c-0.2 0.63-0.4 1.27-0.59 1.91q-0.72 2.31-1.38 4.63c-0.1 0.33-0.2 0.66-0.29 1q-0.78 2.76-1.5 5.54l-0.45 1.78c-0.19 0.74-0.37 1.49-0.55 2.24-1.56 6.69-2.88 13.23-4 19.63-0.1 0.66-0.22 1.31-0.32 2l-0.24 1.52q-0.45 2.93-0.82 5.88c-0.06 0.43-0.11 0.87-0.16 1.3-0.2 1.59-0.38 3.19-0.55 4.79l-0.18 1.81c-0.17 1.68-0.32 3.37-0.45 5.06l-0.09 1q-0.23 3-0.38 6.05c0 0.53-0.05 1.07-0.08 1.6q-0.11 2.36-0.18 4.71c0 0.59 0 1.18-0.05 1.77 0 2.05-0.07 4.11-0.07 6.17v0.1c0 2.22 0 4.42 0.08 6.62 0 0.76 0.06 1.52 0.08 2.28 0.05 1.47 0.1 2.94 0.17 4.41 0.05 0.89 0.11 1.77 0.16 2.66 0.08 1.33 0.16 2.66 0.25 4l0.24 2.83c0.11 1.26 0.21 2.52 0.34 3.77 0.09 1 0.21 1.94 0.31 2.91 0.14 1.21 0.27 2.43 0.42 3.64 0.12 1 0.26 2 0.39 2.95 0.16 1.18 0.33 2.37 0.5 3.55 0.15 1 0.31 2 0.47 3 0.19 1.16 0.37 2.33 0.58 3.49 0.17 1 0.35 2 0.54 3 0.21 1.15 0.43 2.3 0.66 3.44s0.4 2 0.61 3c0.24 1.14 0.48 2.27 0.74 3.4s0.45 2 0.68 2.93c0.27 1.13 0.54 2.25 0.82 3.36s0.49 1.95 0.75 2.92 0.59 2.22 0.9 3.33c0.26 1 0.53 1.92 0.81 2.87 0.32 1.11 0.65 2.21 1 3.31s0.57 1.89 0.87 2.84 0.71 2.19 1.07 3.28c0.31 0.93 0.61 1.87 0.93 2.8 0.38 1.09 0.76 2.18 1.15 3.27l1 2.74c0.41 1.09 0.83 2.18 1.25 3.27 0.34 0.89 0.68 1.79 1 2.68 0.44 1.09 0.89 2.19 1.34 3.28 0.36 0.86 0.71 1.73 1.08 2.59 0.48 1.12 1 2.22 1.46 3.33 0.36 0.83 0.72 1.65 1.09 2.47 0.52 1.16 1.07 2.3 1.61 3.44 0.36 0.77 0.71 1.54 1.08 2.3 0.6 1.26 1.23 2.5 1.86 3.75l0.95 1.9q2.88 5.61 6 11.07c0.36 0.62 0.73 1.23 1.09 1.84 0.7 1.2 1.39 2.4 2.11 3.58 0.44 0.72 0.89 1.42 1.33 2.14 0.66 1.07 1.32 2.14 2 3.19 0.48 0.76 1 1.5 1.47 2.24 0.65 1 1.31 2 2 3 0.51 0.76 1 1.52 1.56 2.28 0.66 1 1.32 1.92 2 2.88 0.54 0.77 1.1 1.53 1.65 2.3s1.34 1.85 2 2.77 1.15 1.53 1.72 2.29l2.07 2.7c0.59 0.76 1.19 1.51 1.79 2.26s1.41 1.76 2.12 2.63 1.23 1.49 1.85 2.23 1.44 1.72 2.17 2.57l1.91 2.2 2.22 2.5c0.65 0.73 1.31 1.44 2 2.16 0.4 0.44 0.81 0.87 1.22 1.31 2.37 1.37-57.48-103.69-17.57-216.15 7.56-0.49 19.79-0.7 35.36-0.86z" fill="#8d5638" mask="url(#mask105)" />
	<path id="path54" d="m420.82 134.59a71.58 71.58 0 0 1 12.18-21.75c1.37-1.59 2.72-3.21 4.16-4.74s3-3 4.53-4.41 3.21-2.73 4.88-4 3.41-2.5 5.17-3.65 3.6-2.21 5.47-3.19l2.82-1.43a31 31 0 0 1 2.86-1.35c2-0.76 3.89-1.62 5.89-2.29s4-1.32 6-1.81a72 72 0 0 1 24.86-2 112.32 112.32 0 0 0-24 5c-1 0.26-1.9 0.7-2.85 1l-2.85 1c-1.88 0.73-3.69 1.65-5.54 2.45s-3.58 1.85-5.38 2.77-3.44 2.09-5.17 3.12-3.33 2.28-5 3.41-3.15 2.52-4.76 3.75-3 2.68-4.53 4l-4.28 4.31a110.47 110.47 0 0 0-14.46 19.81z" fill="#fff" mask="url(#mask104)" />
	<path id="path55" d="m520.11 249.17a367.15 367.15 0 0 0-42.48 4.93c-3.49 0.68-7 1.42-10.44 2.06s-6.9 1.61-10.35 2.41l-10.27 2.72c-3.39 1-6.76 2.08-10.14 3.11a312.8 312.8 0 0 0-39.43 15.74 347.55 347.55 0 0 0-37.25 21 183.48 183.48 0 0 1 35.08-25.14 218.27 218.27 0 0 1 39.76-17.3c3.47-1 6.93-2.08 10.42-3.05s7-1.82 10.54-2.59 7.1-1.41 10.66-2 7.15-1.08 10.74-1.52a189.39 189.39 0 0 1 43.16-0.37z" fill="#fff" mask="url(#mask103)" />
	<path id="path56" d="m529.83 233.83a70.16 70.16 0 0 1 15.44-1.92c2.56-0.06 5.11 0 7.67 0.13s5.12 0.3 7.68 0.52a138.69 138.69 0 0 1 15.35 2.2 95.37 95.37 0 0 1 15.08 4.24l-3.89 11.35c-4.62-1.38-9.25-2.78-13.95-4.07s-9.45-2.51-14.25-3.71l-7.25-1.76c-2.43-0.57-4.87-1.15-7.3-1.81a85.14 85.14 0 0 1-14.58-5.17z" fill="#592d3d" mask="url(#mask102)" />
	<path id="path57" d="m710 667.66q-4.71 5.82-9.71 11.37c-2.5 2.77 2.58-1.12 9.71-11.37zm15-316.55c-30.5-54.41-83.5-91.87-144.78-109.11l-6.35-1.71c-22.7-6.28-46.62-7-71.32-7-26.69 0-52.46 2.74-76.77 10l-4.26 1.27c-86.36 29.06-157.74 102.18-176.46 185.24-32.06 126.54 17.83 204.2 62.11 251.8 4.37 4.7-57.93-101.85-17.42-216 7.73-0.29 20.24-0.51 36.19-0.67l15.5-50.61 17.44 50.38c27.4-0.13 59.88-0.15 93.88-0.12l12.32-52.36 13.92 52.38c74.37 0.14 151.44 0.52 195.28 0.77l13.2-52.17 15 52.33 8.21 0.05c50.09 106.42 17.81 175.55-0.69 202.08a265.62 265.62 0 0 0 59.3-167.66c0-86.42-44.3-148.89-44.3-148.89z" fill="none" mask="url(#mask101)" stroke="#592d3d" stroke-miterlimit="10" stroke-width="12px" />
	<path id="path58" d="m284.48 462.85c0.18-0.75 0.33-1.32 0.53-1.94s0.4-1.2 0.62-1.78c0.46-1.17 1-2.31 1.51-3.42a48.48 48.48 0 0 1 3.85-6.42 37.51 37.51 0 0 1 4.88-5.75 17 17 0 0 1 7-4 31 31 0 0 1-0.87 7.68c-0.28 1.14-0.59 2.25-0.93 3.32l-1 3.25q-1 3.23-2 6.39c-0.33 1.06-0.68 2.09-1 3.13-0.17 0.51-0.37 1-0.56 1.53s-0.39 1-0.56 1.4z" fill="#592d3d" mask="url(#mask100)" />
	<path id="path59" d="m710.68 459.58a35 35 0 0 1 6.23 0.06 60.73 60.73 0 0 1 6.24 0.86c1 0.2 2.08 0.4 3.12 0.64a25.74 25.74 0 0 1 3.11 0.86 18.53 18.53 0 0 1 6.24 3.58 18.74 18.74 0 0 1-6.24 3.59 25.68 25.68 0 0 1-3.11 0.85c-1 0.25-2.08 0.45-3.12 0.65q-3.12 0.58-6.24 0.86a35 35 0 0 1-6.23 0.05z" fill="#592d3d" mask="url(#mask99)" />
	<path id="path60" d="m444.84 452.07a132.29 132.29 0 0 1 1.49-14.25c0.72-4.7 1.6-9.37 2.61-14s2.15-9.25 3.44-13.83a132.09 132.09 0 0 1 4.62-13.59 131.77 131.77 0 0 1-1.5 14.25q-1.08 7.05-2.61 14t-3.44 13.83a137 137 0 0 1-4.61 13.59z" fill="#fff" mask="url(#mask98)" />
	<path id="path61" d="m668 452.07a134.88 134.88 0 0 1 1.49-14.25q1.09-7.05 2.61-14t3.39-13.82a132.09 132.09 0 0 1 4.57-13.58 131.76 131.76 0 0 1-1.49 14.25q-1.1 7.05-2.61 14c-1 4.64-2.16 9.25-3.45 13.83a134.48 134.48 0 0 1-4.51 13.57z" fill="#fff" mask="url(#mask97)" />
	<path id="path62" d="m603.1 452.29a320.74 320.74 0 0 1 33.51-6.66l-2.61 0.37a150.31 150.31 0 0 1 39.75-0.48l-2.66-0.36c3.28 0.45 6.54 1 9.82 1.41l-2.66-0.35a222.52 222.52 0 0 1 29.48 6.1c5 1.4 11.11-1.72 12.3-7a10.19 10.19 0 0 0-7-12.3 239.34 239.34 0 0 0-34.58-6.78l2.65 0.36a142.93 142.93 0 0 0-33.43-1.95 236.67 236.67 0 0 0-33.1 4.54c-5.61 1.14-11.19 2.44-16.76 3.81-5.08 1.25-8.61 7.26-7 12.3a10.21 10.21 0 0 0 12.3 7z" fill="#592d3d" mask="url(#mask96)" />
	<path id="path63" d="m261.26 502.22 14.13-1.48 33.67-3.52 40.94-4.29 35.18-3.69c5.72-0.59 11.44-1.17 17.16-1.79h0.24c2.73-0.28 5.07-0.92 7.07-2.93a10 10 0 0 0 0-14.14c-1.83-1.69-4.48-3.2-7.07-2.93l-14.13 1.48-33.67 3.53-41 4.29-35.18 3.68c-5.72 0.6-11.44 1.18-17.16 1.8h-0.24c-2.73 0.29-5.07 0.93-7.07 2.93a10 10 0 0 0 0 14.15c1.83 1.68 4.48 3.2 7.07 2.92z" fill="#592d3d" mask="url(#mask95)" />
	<g id="g92" mask="url(#mask94)" kind="Beanie">
		<circle id="circle63" cx="491.44" cy="157.14" r="47.48" fill="#89d86f" />
		<path id="path64" d="m491.44 204.62a47.47 47.47 0 0 0 46.46-57.31c-30.78-4.77-62.7-2-93.77 6-0.1 1.26-0.17 2.53-0.17 3.82a47.48 47.48 0 0 0 47.48 47.49z" fill="#7dc462" />
		<circle id="circle64" cx="491.44" cy="157.14" r="47.48" fill="none" stroke="#592d3d" stroke-miterlimit="10" stroke-width="12px" />
		<path id="path65" d="m240.26 423.13a254.67 254.67 0 0 1 6.54-57.5q1.29-5.55 2.81-11c2.9-32.3 20-58.94 42.86-82.73 4.76-3.81 5.71-12.37 10.47-17.13 16.18-14.27 30.45-28.55 48.53-40 74.22-47.58 172.23-73.27 251.21-29.5 16.17 8.56 34.25 13.32 47.57 24.74 25.7 21.88 43.77 47.58 69.47 68.51 22.83 19 26.64 49.48 34.74 76.07q1.53 5.44 2.81 11a254.67 254.67 0 0 1 6.54 57.5z" fill="#89d86f" />
		<path id="path66" d="m246.8 365.63a254.67 254.67 0 0 0-6.54 57.5h83c-1.56-80.66-22.26-148.02 82.74-230.13-75.32 28.59-143.95 91.38-159.2 172.63z" fill="#7dc462" />
		<path id="path67" d="m258.18 321.12a109.41 109.41 0 0 0-8.57 33.51q-1.52 5.44-2.81 11a254.67 254.67 0 0 0-6.54 57.5h200.05a827.17 827.17 0 0 1 127.59 0h195.91a254.67 254.67 0 0 0-6.54-57.5q-1.29-5.55-2.81-11c-3.46-11.37-6.15-23.44-9.86-35-161.89-59.9-325.6-58.63-486.42 1.49z" fill="#7dc462" />
		<path id="path68" d="m240.26 423.13a254.67 254.67 0 0 1 6.54-57.5q1.29-5.55 2.81-11c2.9-32.3 20-58.94 42.86-82.73 4.76-3.81 5.71-12.37 10.47-17.13 16.18-14.27 30.45-28.55 48.53-40 74.22-47.58 172.23-73.27 251.21-29.5 16.17 8.56 34.25 13.32 47.57 24.74 25.7 21.88 43.77 47.58 69.47 68.51 22.83 19 26.64 49.48 34.74 76.07q1.53 5.44 2.81 11a254.67 254.67 0 0 1 6.54 57.5z" fill="none" stroke="#592d3d" stroke-miterlimit="10" stroke-width="12px" />
		<path id="path69" d="m225.35 356.43c183.42-78 371.14-79.06 555.94 0 17.53 7.5 17.43 139.87 0 133.81-180.47-62.83-371.33-63.5-555.94 0-21.96 7.55-19.82-125.38 0-133.81z" fill="#89d86f" />
		<path id="path70" d="m751.33 443.71a43.58 43.58 0 0 1 1.35 9.9c0.09 3.27-0.11 6.52-0.26 9.78l-0.36 4.87c-0.16 1.62-0.32 3.24-0.52 4.85-0.4 3.23-0.89 6.44-1.59 9.61l-7.87-1.41c0.44-3.17 1-6.31 1.64-9.45l1-4.71 1-4.7c0.74-3.13 1.37-6.27 2.22-9.4a53.94 53.94 0 0 1 3.39-9.34z" fill="#592d3d" />
		<path id="path71" d="m749.91 342.47a175.32 175.32 0 0 1 3.63 19c0.43 3.19 0.78 6.39 1.09 9.59s0.49 6.42 0.66 9.63c0.26 6.42 0.37 12.84 0.06 19.25a114.35 114.35 0 0 1-2.45 19.11c-1-6.39-1.67-12.7-2.32-19s-1.21-12.55-2.05-18.78c-0.39-3.12-0.83-6.22-1.3-9.32s-1-6.19-1.52-9.27c-1.07-6.17-2.3-12.29-3.59-18.41z" fill="#592d3d" />
		<path id="path72" d="m668.78 322c7.56 42.87 6.71 89.49 0 138.73" fill="none" stroke="#592d3d" stroke-miterlimit="10" stroke-width="8px" />
		<path id="path73" d="m598.19 307.61c5.15 42.9 4.57 89.55 0 138.83" fill="none" stroke="#592d3d" stroke-miterlimit="10" stroke-width="8px" />
		<path id="path74" d="m533.85 356.47a172.75 172.75 0 0 1 2.37 20.68c0.4 6.9 0.52 13.8 0.65 20.71v10.36c0 3.45 0 6.9-0.12 10.35-0.15 6.9-0.4 13.8-0.87 20.69l-8-0.4c0.22-6.87 0.57-13.73 0.94-20.59l1.21-20.57c0.46-6.86 0.82-13.73 1.35-20.6s1.31-13.74 2.47-20.63z" fill="#592d3d" />
		<path id="path75" d="m535.93 299.88a58.54 58.54 0 0 1 0.28 6.35c0 1.06-0.05 2.12-0.08 3.18l-0.13 3.19c-0.17 2.12-0.32 4.25-0.68 6.38a22.42 22.42 0 0 1-2.08 6.41 23.29 23.29 0 0 1-2.7-6.21c-0.57-2.08-0.93-4.16-1.31-6.25l-0.49-3.12c-0.13-1.05-0.28-2.09-0.39-3.13a55 55 0 0 1-0.35-6.29z" fill="#592d3d" />
		<path id="path76" d="m467.76 299.65c0.35 43 0.31 89.67 0 139" fill="none" stroke="#592d3d" stroke-miterlimit="10" stroke-width="8px" />
		<path id="path77" d="m403.38 306.18c-2.06 43-1.83 89.73 0 139.11" fill="none" stroke="#592d3d" stroke-miterlimit="10" stroke-width="8px" />
		<path id="path78" d="m333.37 391.65a161.31 161.31 0 0 1 2.71 16.78c0.63 5.59 1.09 11.17 1.65 16.75l1.51 16.73c0.47 5.57 0.93 11.15 1.25 16.74l-8 0.64c-0.58-5.61-0.93-11.24-1.18-16.87-0.13-2.82-0.2-5.64-0.28-8.46l-0.1-8.46c0-5.64 0.05-11.29 0.35-16.93a117.52 117.52 0 0 1 2.09-16.92z" fill="#592d3d" />
		<path id="path79" d="m340.48 320.18c-0.25 3.65-0.64 7.28-1.05 10.91l-0.66 5.45-0.72 5.45c-0.54 3.64-0.95 7.28-1.6 10.93a67.39 67.39 0 0 1-2.8 10.92 55.71 55.71 0 0 1-2-11.14c-0.3-3.72-0.32-7.42-0.38-11.14v-5.56c0.06-1.86 0.11-3.71 0.2-5.56 0.2-3.71 0.49-7.41 1-11.09z" fill="#592d3d" />
		<path id="path80" d="m264.86 340.45c-6.86 43-6.09 89.85 0 139.3" fill="none" stroke="#592d3d" stroke-miterlimit="10" stroke-width="8px" />
		<path id="path81" d="m753.07 434.58a3.75 3.75 0 1 0-3.75-3.75 3.8 3.8 0 0 0 3.75 3.75z" fill="#592d3d" />
		<g fill="none" stroke-miterlimit="10">
			<g stroke="#7dc462" stroke-width="8px">
				<path id="path82" d="m758.28 341.38c10 42.84 8.85 89.43 0 138.64" />
				<path id="path83" d="m681 320c7.56 42.87 6.71 89.49 0 138.74" />
				<path id="path84" d="m610.38 305.45c5.15 42.9 4.57 89.55 0 138.83" />
				<path id="path85" d="m544.06 297.82c2.74 42.92 2.44 89.61 0 138.92" />
				<path id="path86" d="m479.8 297.16c0.34 42.95 0.31 89.67 0 139" />
				<path id="path87" d="m415.34 303.53c-2.06 43-1.83 89.73 0 139.11" />
				<path id="path88" d="m348.41 317c-4.46 43-4 89.79 0 139.21" />
				<path id="path89" d="m276.74 337.64c-6.86 43-6.09 89.85 0 139.3" />
			</g>
			<path id="path90" d="m225.35 356.43c183.42-78 371.14-79.06 555.94 0 17.53 7.5 17.43 139.87 0 133.81-180.47-62.83-371.33-63.5-555.94 0-21.96 7.55-19.82-125.38 0-133.81z" stroke="#592d3d" stroke-width="12px" />
		</g>
		<path id="path91" d="m426.76 283.72a328.8 328.8 0 0 1 38.61-5.72c3.25-0.28 6.49-0.56 9.74-0.78l9.75-0.56c3.26-0.14 6.51-0.2 9.77-0.3l9.77-0.13c13 0 26.05 0.63 39 1.84a324.4 324.4 0 0 1 38.6 5.8c-13-0.29-26-0.79-38.88-1.13s-25.84-0.49-38.75-0.52h-9.68c-3.23 0-6.46 0.12-9.69 0.11l-9.68 0.14c-3.23 0.11-6.46 0.16-9.7 0.2-12.9 0.33-25.84 0.79-38.86 1.05z" fill="#592d3d" />
		<path id="path92" d="m347.31 233.83a183.71 183.71 0 0 1 22.38-15.33c7.78-4.62 15.81-8.84 24-12.66 2-1 4.13-1.86 6.2-2.78s4.13-1.86 6.24-2.67c4.22-1.65 8.4-3.38 12.7-4.8a217 217 0 0 1 26.06-7.5c-2.07 0.91-4.16 1.78-6.25 2.63s-4.19 1.64-6.25 2.56c-4.15 1.74-8.31 3.42-12.43 5.22l-3.09 1.33c-1 0.43-2.08 0.85-3.1 1.32l-6.15 2.73c-2.06 0.88-4.09 1.83-6.14 2.75s-4.09 1.84-6.1 2.83l-6.1 2.83c-2 1-4 2-6.05 3-4 1.94-8 4-12.05 6-7.99 4.02-15.95 8.19-23.87 12.54z" fill="#592d3d" />
	</g>
	<g id="g160" clip-rule="evenodd" stroke-linejoin="round" stroke-miterlimit="2" stroke-width=".85312">
		<path id="path1" d="m578.96 610.45c-3.7589-12.987-8.5287-27.295-20.16-33.639-8.3401-4.548-18.342-3.8681-27.748-3.0712-23.022 1.9502-47.057 1.952-70.098 0-9.4065-0.79681-19.409-1.4768-27.749 3.0712-11.631 6.3447-16.401 20.652-20.16 33.639-3.7461 12.942-7.0331 28.434 1.4452 38.739 6.8813 8.364 18.733 9.6522 29.359 10.337 35.005 2.2574 69.32 2.2565 104.31 0 10.626-0.68505 22.478-1.9733 29.359-10.337 8.4775-10.305 5.1912-25.797 1.4452-38.739z" fill="#eb3842" />
		<path id="path2-5" d="m579.53 612.47c0.14503 3.6633 0.0717 7.3241-0.35319 10.971-1.1389 9.7776-5.1187 19.607-12.679 25.643-7.2251 5.768-16.709 7.4111-25.798 8.4451-31.158 3.5439-62.846 2.0944-93.576-4.2818-8.5355-1.7719-17.369-4.112-23.896-10.045-5.7936-5.2663-9.1634-12.898-10.749-20.686-0.43339-2.1311-0.7371-4.2818-0.95976-6.4428-2.91 11.598-4.3091 24.266 2.9706 33.113 6.8813 8.3632 18.733 9.6522 29.359 10.337 35.005 2.2574 69.32 2.2565 104.31 0 10.626-0.68505 22.478-1.9741 29.359-10.337 8.0424-9.7742 5.4967-24.212 2.0168-36.718z" fill="#c93039" />
		<path id="path3-2" d="m450.41 575.09c-5.6067 0-11.351 0.72771-16.282 3.4168-10.77 5.8746-15.405 19.267-19.229 32.479-3.9653 13.702-6.5784 27.664 1.0809 36.973 6.279 7.632 17.271 8.9458 27.992 9.6369 35.009 2.2574 69.047 2.2574 104.06 0 10.72-0.69102 21.711-2.0048 27.992-9.6369 7.6593-9.3076 5.0454-23.272 1.0809-36.973-3.8254-13.213-8.4604-26.605-19.229-32.479-8.0978-4.4158-18.391-3.5439-26.659-2.8418-23.037 1.9511-47.39 1.9511-70.424 0-3.2342-0.27471-6.7781-0.57501-10.378-0.57501zm45.589 88.065c-17.344 0-34.688-0.56647-52.277-1.7003-11.567-0.74648-23.466-2.213-30.727-11.039-8.8221-10.72-5.8652-26.491-1.8103-40.504 4.0515-13.996 9.0166-28.212 21.092-34.798 9.1165-4.9737 20.05-4.0472 28.837-3.3016 22.822 1.9332 46.948 1.9332 69.771 0 8.788-0.74307 19.723-1.6704 28.837 3.3016 12.074 6.5852 17.04 20.801 21.091 34.798 4.0558 14.013 7.011 29.784-1.8086 40.504-7.2618 8.8264-19.162 10.293-30.728 11.039-17.589 1.1338-34.933 1.7003-52.278 1.7003z" fill="#5c161a" />
		<path id="path4-2" d="m565.17 610.69c-3.1344-10.518-7.1116-22.106-16.81-27.244-6.953-3.6838-15.293-3.1335-23.135-2.4886-19.195 1.58-39.235 1.5808-58.447 0-7.8428-0.64496-16.182-1.1952-23.136 2.4886-9.6983 5.1375-13.676 16.725-16.81 27.244-3.1233 10.482-5.8644 23.029 1.2046 31.375 5.7381 6.7738 15.62 7.8172 24.48 8.3717 29.187 1.8282 57.797 1.8274 86.968 0 8.8605-0.55453 18.742-1.5979 24.479-8.3717 7.0698-8.3461 4.3279-20.893 1.2055-31.375z" fill="#801e24" />
		<path id="path5-7" d="m555.74 589.71c2.6566 15.591 3.4475 31.501 2.271 47.273-2.643-3.0388-5.286-6.0776-7.9289-9.1165-1.7788 7.3829-3.5575 14.767-5.3363 22.15 7.2942-0.76099 14.597-2.4988 19.215-7.9502 7.0698-8.3461 4.3279-20.893 1.2055-31.375-2.1823-7.3232-4.7792-15.159-9.4262-20.982z" fill="#6e1a1f" />
		<path id="path6-3" d="m444.2 649.63c-0.0623-9e-3 -0.12029-0.0273-0.18342-0.0367-1.2532-10.076-2.5065-20.153-3.7597-30.23-2.8272 3.282-5.6536 6.5639-8.4809 9.8459 2.9893-14.632 5.9787-29.265 8.9672-43.897-7.6244 5.7424-11.11 15.979-13.91 25.376-3.1233 10.482-5.8644 23.029 1.2046 31.375 3.973 4.6896 9.932 6.6305 16.162 7.5663z" fill="#6e1a1f" />
		<path id="path7-7" d="m519.76 610.73c-3.1122-1.1807-6.4726-2.0432-9.7538-1.4827-3.2811 0.55965-6.4453 2.8418-7.1833 6.087-0.53832 2.3657 0.24058 4.8508-0.087 7.2541-0.45642 3.3408-3.2692 6.2201-6.5972 6.755-3.3289 0.53406-6.9009-1.3189-8.3811-4.3484-1.3983-2.8631-0.98194-6.3396-2.2966-9.2427-1.952-4.31-7.3744-6.1911-12.037-5.3849-4.6623 0.80705-8.6737 3.7128-12.25 6.8113-9.8476 8.5312-17.833 19.199-23.252 31.047 4.6086 1.4503 9.7503 1.9067 14.592 2.2096 29.187 1.8282 57.797 1.8274 86.968 0 3.4995-0.21925 7.156-0.52126 10.656-1.2157-2.4169-16.916-14.33-32.396-30.378-38.489z" fill="#5c161a" />
		<path id="path8-9" d="m531.73 620.84c-1.9707 4.3791-5.5171 9.677-7.4879 14.057-21.322-3.8305-42.605-3.5038-63.555 2.0074-3.6215-4.2417-6.9128-9.3639-10.534-13.606-3.9696 8.2488-7.9383 16.498-11.908 24.746 0.0213 0.099 0.0316 0.19536 0.0486 0.29262 4.513 1.3599 9.5089 1.8026 14.222 2.0978 29.187 1.8282 57.797 1.8274 86.968 0 4.0131-0.25082 8.2335-0.60913 12.185-1.5476-5.1674-10.098-12.537-19.622-19.938-28.047z" fill="#fff" />
		<g fill="#d6d6d6">
			<path id="path9-0" d="m505.9 632.66v13.464l3.3622-13.215c-1.121-0.0964-2.242-0.17745-3.3622-0.24911z" />
			<path id="path10-2" d="m464.36 636c-1.2242 0.28665-2.4485 0.58695-3.671 0.90858-2.1473-2.515-4.1794-5.3388-6.2321-8.1064l-0.94867 1.6406 13.82 20.75c0.30798 0.0128 0.61595 0.0239 0.92478 0.0367z" />
			<path id="path11-3" d="m527.44 628.84c-1.1884 2.091-2.3401 4.1615-3.1932 6.058-0.36769-0.0665-0.73539-0.12114-1.1031-0.18513l-2.4348 10.607 6.7311-13.461z" />
			<path id="path12-9" d="m482.83 632.99v14.484l3.2333-14.752c-1.0783 0.0768-2.1558 0.16636-3.2333 0.26788z" />
		</g>
		<path id="path13-9" d="m556.76 591.06c-2.2224-3.1267-4.9413-5.7842-8.3956-7.6141-6.953-3.6838-15.293-3.1335-23.135-2.4886-19.195 1.58-39.235 1.5808-58.447 0-7.8428-0.64496-16.182-1.1952-23.136 2.4886-0.59122 0.3131-1.1594 0.65179-1.7088 1.011 0.36258 10.711 0.72601 21.421 1.0886 32.132 4.8551-5.6084 10.401-10.87 15.256-16.479 24.832 8.1635 52.122 8.7564 77.064 0.93758 3.3741 5.4967 6.5144 11.408 9.8886 16.905 4.0395-8.7923 7.725-17.892 11.525-26.892z" fill="#fff" />
		<g fill="#d6d6d6">
			<path id="path14-7" d="m532.44 601.89c0.97-0.27726 1.9434-0.54344 2.9074-0.8463 0.7098 1.1568 1.4051 2.3384 2.0987 3.5234l0.91967-1.9673-6.5272-12.896z" />
			<path id="path15-0" d="m461.64 601.14 2.3725-10.64-10.507 11.781 0.82923 2.1772c1.3437-1.4358 2.6669-2.8818 3.9406-4.3535 1.115 0.36685 2.2403 0.69956 3.3647 1.0357z" />
			<path id="path16-3" d="m509.39 594.17-0.7627 12.002c1.3821-0.11005 2.7624-0.23802 4.1411-0.39414z" />
			<path id="path17-9" d="m484.71 605.8v-12.591c0-0.30371-2.1729 6.8685-3.7554 12.132 1.2498 0.17319 2.5014 0.32248 3.7554 0.45898z" />
			<path id="path18-8" d="m444.49 583.03c32.93 11.872 70.061 11.759 103.02 3e-3 -6.7789-3.218-14.762-2.6967-22.29-2.0774-19.195 1.58-39.235 1.5808-58.447 0-7.5262-0.61936-15.507-1.1398-22.285 2.0739z" />
		</g>
		<g fill="#5c161a">
			<path id="path19-6" d="m440.88 647.03c3.9133 0.92222 8.0757 1.2481 11.757 1.4785 29.176 1.8282 57.545 1.8282 86.727 0 3.0781-0.19281 6.3003-0.4513 9.3886-0.99304-3.9534-7.2038-9.4065-14.838-16.574-23.208-0.78402 1.4913-1.6576 3.0235-2.5133 4.5241-1.3334 2.3384-2.7112 4.757-3.659 6.8617-0.36513 0.80876-1.2225 1.2635-2.1055 1.1099-21.767-3.9124-42.871-3.2487-62.721 1.9733-0.71662 0.18854-1.4793-0.0495-1.9613-0.61425-1.8555-2.1729-3.6334-4.5813-5.3525-6.9094-1.0749-1.4571-2.1746-2.9458-3.2896-4.3705zm55.119 6.7149c-14.47 0-28.932-0.45898-43.603-1.3786-4.542-0.28409-9.7938-0.7098-14.659-2.1763-0.70383-0.21157-1.2268-0.80534-1.3488-1.5305 0-0.0119-0.0196-0.12541-0.0213-0.13735-0.0904-0.42059-0.0495-0.92564 0.13736-1.313l11.908-24.746c0.28324-0.5895 0.84544-0.99474 1.4938-1.0783 0.65093-0.0887 1.295 0.1638 1.7182 0.66117 1.8555 2.1729 3.6334 4.5813 5.3525 6.9094 1.4341 1.9434 2.9108 3.9431 4.4115 5.7739 19.601-4.9686 40.36-5.6374 61.739-1.9878 0.93502-1.888 2.0722-3.8834 3.1796-5.8251 1.3351-2.341 2.7146-4.7613 3.6625-6.8676 0.27044-0.59889 0.82497-1.0203 1.4759-1.1184 0.64923-0.099 1.3053 0.14077 1.7395 0.63643 9.1096 10.37 15.719 19.673 20.206 28.441 0.27044 0.52894 0.28324 1.1526 0.035 1.6909-0.24911 0.53832-0.73113 0.93331-1.3087 1.0707-4.0873 0.97085-8.4288 1.3411-12.511 1.5962-14.67 0.91881-29.141 1.3786-43.606 1.3786z" />
			<path id="path20-5" d="m535.34 599.11c0.65861 0 1.2891 0.33699 1.6474 0.92137 1.7028 2.7744 3.3664 5.6878 4.9746 8.5048 0.99048 1.7344 2.0023 3.5055 3.0269 5.2518 2.4877-5.5717 4.8773-11.291 7.2029-16.853 0.78317-1.8735 1.5655-3.7469 2.3538-5.617-2.091-2.7291-4.4183-4.7527-7.0929-6.1698-6.6757-3.5353-15.212-2.8341-22.071-2.2684-19.22 1.58-39.54 1.58-58.765 0-6.8591-0.56477-15.395-1.2669-22.073 2.2693-0.21328 0.11347-0.42827 0.23291-0.64326 0.35831l0.8881 26.216c1.4802-1.5979 2.9851-3.171 4.4618-4.7144 2.5415-2.6549 5.1674-5.4003 7.5638-8.1686 0.51102-0.58951 1.3275-0.81388 2.0646-0.57074 24.82 8.1567 51.767 8.4886 75.884 0.92991 0.19025-0.0606 0.38561-0.0887 0.57756-0.0887zm9.8877 20.77c-0.6697 0-1.295-0.34722-1.6474-0.92222-1.7028-2.7744-3.3664-5.6869-4.9746-8.5048-1.3462-2.358-2.7317-4.7843-4.1376-7.1219-24.105 7.2191-50.832 6.8685-75.576-0.99559-2.2164 2.5056-4.5668 4.9609-6.8472 7.3445-2.5406 2.6558-5.1674 5.4011-7.5638 8.1686-0.51955 0.60059-1.3548 0.82326-2.1055 0.55709-0.74904-0.26533-1.2601-0.96233-1.2874-1.7566l-1.0894-32.132c-0.023-0.67652 0.30883-1.3138 0.87445-1.6841 0.61425-0.40182 1.2404-0.77122 1.8607-1.1005 7.6756-4.0668 16.837-3.3127 24.201-2.707 19.015 1.5646 39.117 1.5663 58.13 0 7.3616-0.60401 16.524-1.359 24.198 2.707 3.4927 1.8496 6.4573 4.5326 9.067 8.2028 0.38732 0.546 0.46581 1.2541 0.20561 1.8718-0.92991 2.2019-1.853 4.4098-2.7761 6.6185-2.8068 6.7149-5.71 13.658-8.7744 20.328-0.29774 0.64837-0.9282 1.08-1.6406 1.1227-0.0392 2e-3 -0.0785 3e-3 -0.11603 3e-3z" />
			<path id="path21-7" d="m457.99 582.42c-4.6393 0-9.3852 0.58353-13.444 2.7342-8.8631 4.6956-12.695 15.462-15.861 26.088-3.2743 10.987-5.4395 22.175 0.82667 29.573 5.1546 6.0845 14.251 7.1364 23.126 7.6926 29.176 1.8282 57.544 1.8282 86.727 0 8.8759-0.55624 17.971-1.6081 23.126-7.6926 6.267-7.3983 4.1018-18.586 0.82667-29.573-3.1659-10.626-6.9999-21.393-15.862-26.088-6.6757-3.537-15.212-2.8349-22.071-2.2693-19.22 1.58-39.54 1.58-58.765 0-2.689-0.22181-5.6374-0.46495-8.6285-0.46495zm38.009 71.324c-14.467 0-28.934-0.45898-43.603-1.3786-9.7077-0.60742-19.699-1.8078-25.834-9.0516-7.4759-8.8256-4.995-21.723-1.5825-33.175 3.4005-11.411 7.5723-23.005 17.757-28.401 7.6747-4.066 16.837-3.3118 24.2-2.7061 19.015 1.5646 39.117 1.5663 58.13 0 7.3616-0.60401 16.524-1.359 24.198 2.707 10.185 5.3952 14.356 16.988 17.758 28.4 3.4125 11.452 5.8934 24.35-1.5817 33.175-6.1365 7.2439-16.127 8.4442-25.834 9.0516-14.672 0.91966-29.14 1.3786-43.606 1.3786z" />
		</g>
		<path id="path22-6" d="m439.78 579.72c-5.3576 1.3829-9.7597 5.3414-12.812 9.9568-3.0525 4.6145-4.9259 9.8902-6.7695 15.106 5.5095-9.3204 11.796-17.539 19.582-25.063z" fill="#fff" />
		<path id="path23-2" d="m557.61 582.82c6.7141 6.2756 11.396 14.692 13.188 23.707-4.9268-7.3036-9.2206-15.835-13.188-23.707z" fill="#fff" />
		<g fill="#5c161a">
			<path id="path24-7" d="m465.66 668.17c12.092-1.423 24.723-1.5877 36.899-1.5612 12.18 0.21242 24.79 0.62704 36.86 2.3026-12.092 1.4332-24.723 1.5945-36.899 1.5612-12.18-0.21926-24.79-0.63558-36.86-2.3026z" />
			<path id="path25-0" d="m411.28 596.72c-4.8244 11.352-8.2787 22.667-10.679 34.765-3.1173-12.235 1.2473-26.379 10.679-34.765z" />
			<path id="path26-3" d="m396.16 613.58c0.0469 8.6106-1.0604 16.876-3.4312 25.155-3.0141-8.2224-1.6559-18.034 3.4312-25.155z" />
			<path id="path27-9" d="m585.65 605.16c8.1482 10.552 9.4918 26.338 3.1966 38.097 0.86848-12.968-0.15868-25.456-3.1966-38.097z" />
			<path id="path28-9" d="m597.71 623.5c4.4499 10.562 2.1601 23.964-5.5854 32.42 2.7633-10.822 4.5881-21.294 5.5854-32.42z" />
		</g>
	</g>
	<g clip-rule="evenodd" stroke-linejoin="round" stroke-miterlimit="2">
		<path id="path29-9" d="m1261.8 792.16c-4.082-12.722-13.627-24.078-25.343-24.964-9.785-0.74-18.738 5.646-27.523 10.678-16.726 9.58-35.284 14.84-53.944 15.34-18.661-0.5-37.219-5.76-53.945-15.34-8.785-5.032-17.739-11.418-27.523-10.678-11.716 0.886-21.261 12.242-25.344 24.964-4.084 12.722-3.805 26.678-3.474 40.242 0.257 10.505 0.552 21.244 3.801 31.059 3.248 9.815 10.068 18.705 18.99 20.732 10.233 2.325 20.101-4.538 29.448-9.882 17.967-10.273 38.004-15.637 58.047-15.638 20.042 1e-3 40.079 5.365 58.045 15.638 9.347 5.344 19.216 12.207 29.448 9.882 8.923-2.027 15.742-10.917 18.99-20.732 3.25-9.815 3.545-20.554 3.801-31.059 0.332-13.564 0.61-27.52-3.474-40.242z" fill="#eb3842" />
		<path id="path30-1" d="m1261.5 863.46c3.25-9.816 3.545-20.554 3.801-31.059 0.11-4.462 0.209-8.967 0.153-13.456-0.933 3.597-1.864 7.195-2.797 10.792-2.155 8.315-4.523 17.024-10.476 23.216-6.952 7.231-17.785 9.686-27.752 8.555-9.966-1.131-19.284-5.403-28.204-9.989-8.921-4.587-17.738-9.584-27.376-12.363-14.926-4.304-31.422-2.899-45.404 3.866-9.373 4.535-17.484 11.286-26.482 16.527s-19.592 9.013-29.748 6.714c-9.572-2.166-17.116-9.493-21.725-18.305 0.509 5.304 1.393 10.522 3.042 15.502 3.248 9.815 10.068 18.705 18.99 20.732 10.233 2.325 20.101-4.538 29.448-9.882 17.967-10.273 38.004-15.637 58.047-15.638 20.042 1e-3 40.079 5.365 58.045 15.638 9.347 5.344 19.215 12.207 29.448 9.882 8.923-2.027 15.742-10.917 18.99-20.732z" fill="#c93039" />
		<path id="path31-7" d="m1075.1 769.4c-0.457 0-0.915 0.017-1.373 0.052-11.22 0.848-19.816 12.361-23.358 23.395-4.024 12.538-3.674 26.86-3.366 39.495 0.25 10.227 0.508 20.8 3.686 30.403 2.647 7.995 8.592 17.247 17.342 19.234 8.187 1.857 16.52-3.026 24.577-7.752 1.089-0.639 2.17-1.273 3.245-1.886 18.234-10.426 38.694-15.937 59.17-15.937 20.475 0 40.936 5.511 59.17 15.937 1.075 0.613 2.158 1.247 3.246 1.886 8.056 4.726 16.386 9.612 24.577 7.752 8.75-1.987 14.694-11.239 17.341-19.234 3.178-9.603 3.437-20.176 3.686-30.403 0.309-12.632 0.661-26.951-3.366-39.495-3.54-11.034-12.137-22.547-23.358-23.395-7.682-0.571-15.195 3.869-22.455 8.174-1.261 0.748-2.518 1.493-3.771 2.209-16.972 9.723-35.994 15.13-55.01 15.639-19.136-0.509-38.158-5.916-55.13-15.639-1.251-0.716-2.507-1.46-3.766-2.208-6.829-4.049-13.876-8.227-21.087-8.227zm163.26 117.51c-8.253 0-16.133-4.623-23.217-8.778-1.074-0.63-2.141-1.255-3.201-1.863-17.551-10.033-37.234-15.338-56.922-15.338s-39.37 5.305-56.921 15.338c-1.061 0.606-2.127 1.233-3.201 1.863-8.406 4.931-17.936 10.522-27.874 8.262-8.858-2.012-16.767-10.529-20.639-22.228-3.39-10.243-3.669-21.651-3.915-31.716-0.317-12.995-0.677-27.724 3.582-40.991 4.005-12.48 14.009-25.523 27.33-26.53 9.124-0.692 17.247 4.133 25.112 8.797 1.241 0.735 2.476 1.468 3.708 2.173 16.324 9.35 34.609 14.553 52.878 15.043 18.148-0.49 36.433-5.693 52.76-15.043 1.231-0.707 2.467-1.44 3.709-2.174 7.863-4.664 15.984-9.492 25.109-8.796 13.322 1.007 23.326 14.05 27.332 26.53 4.258 13.273 3.899 27.999 3.581 40.991-0.246 10.065-0.525 21.473-3.916 31.716-3.871 11.697-11.78 20.216-20.639 22.228-1.562 0.356-3.117 0.516-4.656 0.516z" fill="#5c161a" />
		<path id="path32-2" d="m1247.9 800.51c-3.551-9.572-11.851-18.116-22.039-18.783-8.508-0.557-16.293 4.248-23.933 8.034-14.543 7.208-30.681 11.167-46.907 11.542-16.227-0.375-32.365-4.334-46.908-11.542-7.64-3.786-15.426-8.591-23.934-8.034-10.188 0.667-18.487 9.211-22.038 18.783-3.551 9.573-3.309 20.074-3.021 30.28 0.223 7.904 0.48 15.984 3.305 23.37 2.825 7.385 8.755 14.074 16.514 15.599 8.898 1.749 17.479-3.414 25.607-7.436 15.623-7.729 33.046-11.765 50.475-11.766 17.428 1e-3 34.851 4.037 50.474 11.766 8.128 4.022 16.709 9.185 25.607 7.436 7.759-1.525 13.688-8.214 16.513-15.599 2.825-7.386 3.082-15.466 3.305-23.37 0.288-10.206 0.53-20.707-3.02-30.28z" fill="#801e24" />
		<path id="path33-3" d="m1250.9 830.79c0.288-10.206 0.53-20.707-3.02-30.28-1.878-5.062-5.094-9.824-9.206-13.298 7.198 20.861 6.805 44.335-1.458 64.823-1.192-8.121-2.384-16.242-3.577-24.363-6.495 12.978-12.991 25.957-19.487 38.935 5.485 2.497 11.139 4.29 16.93 3.152 7.759-1.525 13.688-8.214 16.513-15.599 2.825-7.386 3.082-15.466 3.305-23.37z" fill="#6e1a1f" />
		<path id="path34-6" d="m1078.8 837.42c-2.083 4.018-4.167 8.036-6.25 12.054-5.816-20.626-5.646-42.871 0.274-63.458-4.846 3.525-8.628 8.823-10.732 14.496-3.551 9.573-3.309 20.074-3.021 30.28 0.223 7.904 0.48 15.984 3.305 23.37 2.825 7.385 8.755 14.074 16.514 15.599 4.908 0.965 9.719-0.178 14.412-2.068l-14.502-30.273z" fill="#6e1a1f" />
		<path id="path35-5" d="m1217.5 829.52c-40.293-8.876-83.761-7.601-123.78 2.453-1.093 12.259-2.185 24.518-3.278 36.777 4.82-1.552 9.521-4.166 14.08-6.422 15.623-7.729 33.046-11.765 50.475-11.766 17.428 1e-3 34.851 4.037 50.474 11.766 7.193 3.559 14.741 8.002 22.549 7.768-3.278-13.241-7.619-27.795-10.524-40.576z" fill="#fff" />
		<path id="path36-5" d="m1115.4 857.67c-4.773-1.536-9.363-3.726-13.624-6.472-2.148 3.128-6.312 4.719-9.998 3.82-0.021-5e-3 -0.04-0.015-0.061-0.02-0.408 4.582-0.817 9.164-1.225 13.745 4.82-1.552 9.521-4.166 14.08-6.422 3.523-1.743 7.142-3.288 10.828-4.651z" fill="#eb735c" />
		<path id="path37-8" d="m1205.5 862.32c7.193 3.559 14.741 8.002 22.549 7.768-0.759-3.067-1.579-6.207-2.421-9.376-2.517 1.134-5.299 1.684-8.056 1.517-5.51-0.334-10.628-4.118-13.48-8.845-3.395 2.946-7.252 4.244-11.678 3.465-0 2e-3 -0.01 4e-3 -0.012 7e-3 4.474 1.547 8.854 3.365 13.098 5.464z" fill="#eb735c" />
		<g fill="#d6d6d6">
			<path id="path38-1" d="m1177.9 824.07v18.359l6.589-17.873c-2.193-0.186-4.388-0.354-6.589-0.486z" />
			<path id="path39-4" d="m1141.8 824.31 1.31 15.982 4.5-16.357c-1.939 0.099-3.875 0.236-5.81 0.375z" />
			<path id="path40-7" d="m1203.2 826.83v12.619l5.356-11.703c-1.781-0.323-3.565-0.631-5.356-0.916z" />
			<path id="path41-1" d="m1118.5 844.96v-17.994c-1.075 0.168-2.149 0.338-3.221 0.519z" />
		</g>
		<path id="path42-3" d="m1155 848.29c17.808 0 35.61 4.15 51.479 12.002 0.927 0.458 1.863 0.933 2.802 1.41 5.179 2.627 10.509 5.329 15.801 5.983-1.205-4.726-2.529-9.627-3.817-14.391-1.98-7.319-4.021-14.873-5.651-21.871-37.986-8.122-80.389-7.29-119.78 2.354l-2.815 31.595c2.585-1.076 5.163-2.384 7.682-3.663 0.945-0.479 1.884-0.956 2.817-1.417 15.87-7.852 33.67-12.002 51.479-12.002zm72.417 24.075c-7.127 0-13.762-3.364-20.185-6.621-0.926-0.471-1.848-0.937-2.762-1.39-15.248-7.545-32.355-11.532-49.47-11.532s-34.22 3.987-49.469 11.532c-0.92 0.454-1.845 0.923-2.776 1.397-3.738 1.897-7.603 3.859-11.615 5.149-0.723 0.235-1.515 0.087-2.108-0.386-0.593-0.474-0.91-1.214-0.843-1.971l3.278-36.776c0.086-0.961 0.77-1.762 1.704-1.998 40.979-10.293 85.305-11.17 124.82-2.467 0.857 0.188 1.528 0.855 1.723 1.709 1.658 7.296 3.83 15.331 5.929 23.1 1.566 5.788 3.184 11.774 4.585 17.435 0.165 0.666 0.019 1.369-0.394 1.913-0.414 0.546-1.053 0.875-1.737 0.896-0.225 7e-3 -0.45 0.01-0.675 0.01z" fill="#5c161a" />
		<path id="path43-8" d="m1086.2 826c43.286-10.731 90.247-10.114 133.94-1.162 5.199-13.397 11.286-25.941 16.861-38.976-3.281-2.338-7.036-3.871-11.1-4.137-8.508-0.557-16.293 4.248-23.933 8.034-14.543 7.208-30.681 11.167-46.907 11.542-16.227-0.375-32.365-4.334-46.908-11.542-7.64-3.786-15.426-8.591-23.934-8.034-3.394 0.222-6.571 1.333-9.44 3.05 3.809 13.742 7.617 27.483 11.426 41.225z" fill="#fff" />
		<path id="path44-4" d="m1211.1 785.21c4.311 0.733 8.08 4.077 9.275 8.288 3.478-2.358 6.922-3.642 11.005-2.651 1.025 0.248 2.02 0.61 2.969 1.07 0.888-2.013 1.783-4.018 2.652-6.05-3.281-2.338-7.036-3.871-11.1-4.137-5.157-0.338-10.047 1.298-14.801 3.48z" fill="#eb735c" />
		<path id="path45-8" d="m1096.5 790.68c1.758-1.59 4.209-2.774 6.802-3.385-6.101-3.106-12.368-6.01-19.086-5.57-3.394 0.222-6.571 1.333-9.44 3.05 0.557 2.01 1.114 4.02 1.671 6.029 1.777-1.023 3.708-1.777 5.721-2.167 4.762-0.923 10.296-0.646 14.332 2.043z" fill="#eb735c" />
		<g fill="#d6d6d6">
			<path id="path46-0" d="m1203.2 821.84 4.975-27.908-10.946 27.067c1.993 0.268 3.987 0.538 5.971 0.841z" />
			<path id="path47-4" d="m1150.8 806.94-2.655 11.179c1.81-0.033 3.62-0.072 5.432-0.073z" />
			<path id="path48-6" d="m1107.5 821.69c2.154-0.347 4.314-0.669 6.48-0.964l-6.48-23.797z" />
		</g>
		<g fill="#5c161a">
			<path id="path49" d="m1077.4 785.9 10.361 37.38c40.554-9.685 85.724-10.04 130.92-1.038 3.139-7.926 6.6-15.648 9.954-23.131 1.816-4.052 3.686-8.225 5.49-12.398-2.698-1.621-5.521-2.537-8.413-2.726-6.709-0.441-13.199 2.906-19.501 6.14-1.097 0.563-2.189 1.124-3.279 1.663-14.776 7.323-31.326 11.395-47.864 11.777-16.638-0.382-33.189-4.454-47.964-11.777-1.089-0.539-2.182-1.1-3.279-1.662-6.303-3.235-12.818-6.574-19.5-6.141-2.349 0.152-4.672 0.795-6.927 1.913zm8.762 42.366c-0.994 0-1.904-0.659-2.181-1.661l-11.426-41.224c-0.273-0.982 0.144-2.025 1.019-2.549 3.342-2 6.86-3.133 10.457-3.367 7.943-0.518 15.015 3.115 21.866 6.632 1.077 0.553 2.151 1.103 3.221 1.634 14.186 7.029 30.076 10.939 45.952 11.305 15.775-0.366 31.666-4.276 45.852-11.305 1.071-0.531 2.145-1.083 3.223-1.636 6.85-3.515 13.942-7.154 21.864-6.63 4.293 0.28 8.419 1.813 12.265 4.553 0.867 0.618 1.187 1.757 0.768 2.737-2.046 4.786-4.193 9.576-6.27 14.209-3.582 7.99-7.284 16.254-10.56 24.696-0.4 1.029-1.486 1.622-2.567 1.4-45.963-9.417-91.93-9.025-132.94 1.14-0.183 0.046-0.366 0.066-0.547 0.066z" />
			<path id="path50" d="m1085.5 783.95c-0.399 0-0.796 0.014-1.195 0.04-9.658 0.632-17.036 9.15-20.063 17.31-3.448 9.295-3.146 19.991-2.88 29.428 0.215 7.629 0.439 15.518 3.156 22.623 2.254 5.892 7.335 12.713 14.835 14.188 7.112 1.392 14.346-2.273 21.341-5.822 0.947-0.481 1.888-0.959 2.824-1.422 15.87-7.852 33.67-12.002 51.479-12.002 17.808 0 35.61 4.15 51.479 12.002 0.936 0.463 1.877 0.941 2.826 1.422 6.993 3.549 14.224 7.213 21.34 5.822 7.501-1.475 12.581-8.296 14.833-14.188 2.717-7.102 2.942-14.994 3.158-22.624 0.266-9.436 0.567-20.132-2.88-29.427-3.027-8.16-10.404-16.678-20.063-17.31-6.707-0.45-13.196 2.906-19.499 6.14-1.096 0.563-2.189 1.124-3.279 1.663-14.776 7.323-31.326 11.395-47.864 11.777-16.638-0.382-33.189-4.454-47.964-11.777-1.089-0.539-2.182-1.1-3.279-1.662-5.927-3.042-12.043-6.181-18.305-6.181zm-2.974 88.423c-1.339 0-2.689-0.121-4.047-0.388-7.794-1.531-14.764-8.051-18.193-17.014-2.993-7.825-3.238-16.479-3.454-24.116-0.277-9.848-0.592-21.011 3.162-31.13 3.535-9.532 12.332-19.492 24.014-20.257 7.918-0.502 15.014 3.115 21.867 6.632 1.077 0.553 2.151 1.103 3.221 1.634 14.186 7.029 30.076 10.939 45.952 11.305 15.775-0.366 31.666-4.276 45.852-11.305 1.071-0.531 2.145-1.083 3.223-1.636 6.85-3.516 13.95-7.154 21.862-6.63 11.683 0.765 20.48 10.725 24.016 20.257 3.754 10.119 3.44 21.282 3.161 31.13-0.215 7.637-0.462 16.292-3.453 24.116-3.428 8.963-10.4 15.483-18.194 17.014-8.654 1.703-16.944-2.511-24.263-6.227-0.936-0.475-1.863-0.945-2.785-1.401-15.248-7.545-32.355-11.532-49.47-11.532s-34.22 3.987-49.469 11.532c-0.923 0.456-1.85 0.926-2.783 1.4-6.171 3.131-13.036 6.616-20.219 6.616z" />
			<path id="path51" d="m1113.7 875.25c26.141-13.99 61.537-12.932 86.773 2.65-7.13-2.293-14.242-4.205-21.443-5.551-21.667-4.068-44.024-2.799-65.33 2.901z" />
			<path id="path52-0" d="m1144.8 876.17c13.792-4.565 30.201-1.589 41.479 7.581-13.87-3.3-27.335-5.786-41.479-7.581z" />
			<path id="path53-3" d="m1043.7 778.41c-2.087 9.767-4.218 19.26-5.557 29.078-1.294 8.441-2.141 20.834-2.759 29.476-5.347-19.423-2.205-41.379 8.316-58.554z" />
			<path id="path54-2" d="m1267.4 785.77c11.331 16.612 13.313 39.708 4.917 57.988 2.035-19.641 0.42-38.975-4.917-57.988z" />
			<path id="path55-6" d="m1281.4 810.18c6.417 15.841 3.379 35.574-7.558 48.717 5.07-15.943 7.583-31.985 7.558-48.717z" />
		</g>
		<path id="path56-9" d="m1054.6 788.95c2.429-5.071 5.644-9.977 10.359-13.042 4.714-3.065 11.179-3.921 15.946-0.938-10.074 0.607-20.026 6.079-26.305 13.98z" fill="#fff" />
		<path id="path57-4" d="m1255.2 790.74c-0.979-5.425-4.121-10.429-8.583-13.666-4.463-3.238-10.194-4.673-15.655-3.919 10.022 1.649 19.66 8.518 24.238 17.585z" fill="#fff" />
		<path id="path58-1" d="m1459.3 573.74c-8.646-9.472-18.724-19.642-31.54-20.113-16.563-0.609-28.204 11.116-46.555 12.765-18.351-1.649-29.991-13.374-46.554-12.765-12.817 0.471-22.895 10.641-31.541 20.113-8.22 9.007-17.019 19.725-15.445 31.817 1.275 9.788 9.104 17.339 17.045 23.202 22.148 16.353 49.052 26.078 76.495 28.062 27.443-1.984 54.347-11.709 76.495-28.062 7.941-5.863 15.771-13.414 17.045-23.202 1.574-12.092-7.225-22.81-15.445-31.817z" fill="#eb3842" />
		<path id="path59-3" d="m1457.7 628.76c7.941-5.863 15.771-13.414 17.045-23.202 1.574-12.092-7.225-22.81-15.445-31.817-1.681-1.842-3.418-3.708-5.217-5.526 2.907 11.576 4.34 23.409 0.645 34.558-3.403 10.268-10.978 18.847-20.073 24.704-9.094 5.856-19.643 9.153-30.31 10.952-28.898 4.873-59.509-1.213-84.345-16.771-6.219-3.897-12.237-8.529-15.959-14.855-5.098-8.663-5.225-19.562-2.467-29.228 0.319-1.118 0.681-2.221 1.066-3.314-8.081 8.899-16.519 19.435-14.975 31.297 1.275 9.788 9.104 17.339 17.045 23.202 22.148 16.353 49.052 26.078 76.495 28.062 27.443-1.984 54.347-11.709 76.495-28.062z" fill="#c93039" />
		<path id="path60-7" d="m1446.3 579.84c-7.208-7.637-15.609-15.835-26.293-16.215-13.807-0.491-23.51 8.961-38.808 10.29-15.298-1.329-25.001-10.781-38.808-10.29-10.684 0.38-19.085 8.578-26.292 16.215-6.853 7.26-14.187 15.901-12.875 25.649 1.062 7.891 7.589 13.979 14.209 18.705 18.462 13.183 40.89 21.023 63.766 22.623 22.877-1.6 45.304-9.44 63.767-22.623 6.619-4.726 13.146-10.814 14.208-18.705 1.313-9.748-6.022-18.389-12.874-25.649z" fill="#801e24" />
		<path id="path61-8" d="m1317.5 624.19c1.424 1.018 2.88 1.992 4.351 2.945-0.119-9.136-0.238-18.272-0.357-27.409-2.693 2.2-5.385 4.4-8.078 6.601 2.302-10.253 4.604-20.506 6.905-30.76-1.431 1.407-2.814 2.847-4.155 4.269-6.853 7.26-14.187 15.901-12.875 25.649 1.062 7.891 7.589 13.979 14.209 18.705z" fill="#6e1a1f" />
		<path id="path62-8" d="m1453 607.3c-2.211-1.524-4.421-3.047-6.632-4.57l1.998 18.891c5.32-4.311 9.945-9.604 10.824-16.135 1.166-8.655-4.487-16.435-10.566-23.154 1.459 8.323 2.917 16.645 4.376 24.968z" fill="#6e1a1f" />
		<path id="path63-3" d="m1341.3 627.12c1.034-6.638 2.111-13.408 5.191-19.378 3.081-5.97 8.57-11.11 15.232-11.975s14.083 3.783 14.694 10.474c0.216 2.367-0.379 4.75-0.186 7.119 0.194 2.37 1.564 4.96 3.914 5.32 2.357 0.362 4.493-1.796 5.027-4.12 0.534-2.325-0.09-4.737-0.638-7.058s-1.016-4.806-0.197-7.046c0.978-2.679 3.696-4.461 6.511-4.915s5.703 0.242 8.343 1.32c13.069 5.332 20.934 21.012 17.395 34.675-22.791 11.777-54.441 10.537-75.286-4.416z" fill="#5c161a" />
		<path id="path64-8" d="m1444.7 624.36c-3.44-5.064-6.818-10.047-10.416-15.322-29.872 19.478-66.831 24.342-108.87-2.428l-9.843 16.209c0.614 0.467 1.23 0.925 1.85 1.367 18.462 13.183 40.89 21.023 63.766 22.623 22.773-1.592 45.098-9.373 63.513-22.449z" fill="#fff" />
		<g fill="#d6d6d6">
			<path id="path65-1" d="m1337.6 613.54-5.806 18.06 9.765-16.143c-1.314-0.608-2.634-1.246-3.959-1.917z" />
			<path id="path66-5" d="m1430.4 623.31-1.445-10.99c-0.795 0.459-1.598 0.902-2.403 1.339z" />
			<path id="path67-3" d="m1362 622.64-2.581 15.536 8.165-14.372c-1.847-0.325-3.709-0.717-5.584-1.164z" />
		</g>
		<path id="path68-5" d="m1427.4 588.73c2.17 4.088 4.556 6.842 6.725 10.931 2.785-7.359 6.069-15.068 9.342-22.768-6.566-6.664-14.145-12.939-23.461-13.27-13.807-0.491-23.51 8.961-38.808 10.29-15.298-1.329-25.001-10.781-38.808-10.29-6.703 0.238-12.506 3.554-17.681 7.878 0.35 8.269 0.7 16.538 1.05 24.807 5-4.534 10.95-8.713 15.95-13.248 26.141 13.591 58.569 17.179 85.691 5.67z" fill="#fff" />
		<g fill="#d6d6d6">
			<path id="path69-4" d="m1442 580.46c0.505-1.19 1.009-2.379 1.515-3.57-6.566-6.664-14.145-12.939-23.461-13.27-13.807-0.491-23.51 8.961-38.808 10.29-15.298-1.329-25.001-10.781-38.808-10.29-6.703 0.238-12.506 3.554-17.681 7.878 0.181 4.267 0.361 8.534 0.542 12.801 9.99-9.14 24.654-13.308 37.813-9.799 7.343 1.957 14.47 6.038 22.014 5.127 6.539-0.789 12.013-5.201 18.203-7.451 9.393-3.413 20.049-1.611 29.078 2.674 3.359 1.594 6.536 3.506 9.593 5.61z" />
			<path id="path70-3" d="m1425.5 589.51c0.644-0.254 1.287-0.509 1.925-0.779 0.625 1.178 1.27 2.24 1.92 3.26 0.652-1.575 1.074-2.608 1.074-2.608l-10.537-17.204z" />
			<path id="path71-6" d="m1341.7 583.06c0.951 0.494 1.912 0.971 2.878 1.439l3.015-12.321-13.288 17.043c2.543-2.024 5.072-4.054 7.395-6.161z" />
			<path id="path72-5" d="m1366.5 577.98-4.591 13.199c1.943 0.57 3.902 1.09 5.874 1.555z" />
			<path id="path73-9" d="m1401.8 577.12 2.013 17.809c1.824-0.22 3.639-0.493 5.444-0.82z" />
		</g>
		<g fill="#5c161a">
			<path id="path74-5" d="m1318.6 622.23c0.051 0.038 0.103 0.075 0.156 0.113 17.809 12.716 39.981 20.595 62.451 22.195 21.595-1.538 42.939-8.888 60.379-20.758l-1.053-1.551c-2.26-3.329-4.521-6.659-6.864-10.096-33.67 21.056-70.743 20.234-107.49-2.383zm62.607 26.845c-0.053 0-0.105-1e-3 -0.158-5e-3 -23.348-1.632-46.405-9.814-64.926-23.039-0.636-0.454-1.271-0.926-1.903-1.406-0.923-0.702-1.168-1.989-0.566-2.98l9.842-16.21c0.315-0.52 0.829-0.892 1.422-1.031 0.6-0.14 1.218-0.032 1.731 0.296 36.979 23.547 72.784 24.37 106.42 2.442 1.033-0.675 2.413-0.398 3.109 0.621 2.791 4.091 5.449 8.007 8.107 11.921l2.312 3.404c0.692 1.02 0.442 2.407-0.564 3.121-18.473 13.118-41.439 21.237-64.666 22.861-0.053 4e-3 -0.104 5e-3 -0.157 5e-3z" />
			<path id="path75-4" d="m1427.4 586.46c0.816 0 1.599 0.443 2.003 1.205 1.031 1.944 2.108 3.561 3.247 5.272 0.345 0.517 0.693 1.039 1.041 1.574 2.226-5.628 4.685-11.432 7.095-17.102-5.76-5.699-12.679-11.235-20.859-11.525-6.781-0.232-12.679 2.161-18.909 4.704-5.924 2.42-12.05 4.922-19.621 5.579-0.13 0.012-0.263 0.012-0.393 0-7.571-0.657-13.697-3.159-19.621-5.579-6.231-2.544-12.137-4.946-18.909-4.704-5.085 0.18-10.017 2.299-15.452 6.65l0.804 19.001c1.49-1.232 3.008-2.44 4.499-3.627 2.664-2.12 5.418-4.311 7.864-6.529 0.704-0.638 1.727-0.768 2.568-0.332 27.279 14.183 58.59 16.273 83.76 5.594 0.287-0.122 0.588-0.181 0.883-0.181zm6.728 15.464c-0.835 0-1.606-0.46-2.002-1.204-1.031-1.944-2.108-3.561-3.248-5.272-0.814-1.224-1.649-2.477-2.471-3.865-25.628 10.152-56.886 8.011-84.348-5.803-2.227 1.947-4.603 3.837-6.912 5.674-2.664 2.12-5.418 4.311-7.864 6.53-0.651 0.59-1.587 0.75-2.395 0.411-0.811-0.338-1.353-1.116-1.391-1.994l-1.05-24.807c-0.03-0.705 0.27-1.383 0.811-1.835 6.499-5.43 12.733-8.178 19.054-8.403 7.787-0.281 14.386 2.425 20.783 5.037 5.559 2.27 11.305 4.617 18.106 5.243 6.8-0.626 12.547-2.973 18.105-5.243 6.399-2.612 13.011-5.306 20.784-5.037 10.276 0.365 18.401 7.254 24.992 13.944 0.644 0.653 0.83 1.631 0.472 2.476l-0.258 0.607c-3.124 7.351-6.355 14.953-9.048 22.077-0.316 0.831-1.089 1.403-1.977 1.459-0.049 3e-3 -0.096 5e-3 -0.143 5e-3z" />
			<path id="path76-9" d="m1343.4 565.87c-0.314 0-0.628 6e-3 -0.945 0.017-9.637 0.343-17.499 7.848-24.727 15.506-6.554 6.945-13.45 15.085-12.277 23.792 0.78 5.799 5.001 11.252 13.28 17.163 17.807 12.715 39.979 20.595 62.451 22.195 22.471-1.6 44.643-9.48 62.449-22.195 8.279-5.91 12.499-11.364 13.28-17.163 1.172-8.709-5.722-16.848-12.277-23.792-7.228-7.659-15.09-15.164-24.726-15.506-6.781-0.232-12.679 2.161-18.91 4.705-5.924 2.419-12.05 4.921-19.62 5.578-0.13 0.012-0.263 0.012-0.393 0-7.571-0.657-13.697-3.159-19.621-5.579-5.939-2.425-11.563-4.721-17.964-4.721zm37.782 83.21c-0.053 0-0.105-1e-3 -0.158-5e-3 -23.349-1.633-46.406-9.815-64.926-23.039-5.894-4.208-13.877-10.886-15.137-20.246-1.44-10.683 6.2-19.801 13.472-27.507 7.872-8.343 16.509-16.521 27.86-16.924 7.787-0.281 14.386 2.425 20.783 5.037 5.559 2.27 11.305 4.617 18.106 5.243 6.8-0.626 12.545-2.973 18.103-5.242 6.401-2.613 13.013-5.307 20.786-5.038 11.347 0.403 19.985 8.581 27.858 16.923 7.272 7.706 14.912 16.822 13.472 27.508-1.26 9.361-9.242 16.038-15.137 20.246-18.519 13.224-41.576 21.406-64.925 23.039-0.053 4e-3 -0.104 5e-3 -0.157 5e-3z" />
			<path id="path77-1" d="m1335.9 555.87c-0.382 0-0.765 7e-3 -1.152 0.021-11.71 0.43-21.216 9.808-29.948 19.377-7.952 8.711-16.313 18.931-14.874 29.996 1.26 9.672 9.819 17.001 16.145 21.673 21.432 15.824 48.114 25.626 75.15 27.612 27.035-1.986 53.716-11.788 75.149-27.612 6.327-4.672 14.884-12.002 16.143-21.673 1.44-11.064-6.921-21.285-14.871-29.996-8.734-9.569-18.241-18.947-29.951-19.377-8.226-0.304-15.33 2.694-22.844 5.867-7.079 2.989-14.4 6.08-23.424 6.891-0.133 0.012-0.272 0.012-0.404 0-9.025-0.811-16.346-3.902-23.425-6.891-7.161-3.024-13.944-5.888-21.694-5.888zm45.321 103.22c-0.055 0-0.11-3e-3 -0.164-6e-3 -27.935-2.02-55.522-12.141-77.676-28.499-6.995-5.163-16.465-13.346-17.948-24.732-1.69-12.991 7.382-24.175 16.02-33.637 9.38-10.279 19.665-20.356 33.13-20.85 9.203-0.345 16.785 2.846 24.774 6.22 6.704 2.831 13.634 5.757 21.864 6.534 8.229-0.777 15.159-3.703 21.863-6.534 7.988-3.373 15.549-6.565 24.773-6.22 13.463 0.494 23.75 10.571 33.131 20.85 8.635 9.464 17.707 20.648 16.016 33.637-1.482 11.386-10.951 19.568-17.945 24.732-22.156 16.358-49.743 26.479-77.677 28.499-0.054 3e-3 -0.109 6e-3 -0.163 6e-3z" />
		</g>
		<path id="path78-7" d="m1348.9 616.44c10.466 2.777 18.126 11.777 23.428 21.219 5.301 9.442 8.989 19.817 15.299 28.617 7.776 10.847 19.447 18.837 32.372 22.164 12.924 3.326 27.003 1.962 39.049-3.783 3.616-1.725 5.268-7.478 4.408-11.39-0.86-3.913-3.799-7.073-7.105-9.334-3.307-2.262-7.042-3.81-10.511-5.813-15.16-8.749-24.406-26.795-22.652-44.211-23.457-14.781-50.706-12.05-74.288 2.531z" fill="#eb5c3f" />
		<path id="path79-5" d="m1414.8 667.44c1.863 3.247 3.727 6.495 5.59 9.743-9.963-2.239-18.173-9.422-24.265-17.617s-10.464-17.516-15.746-26.255-11.76-17.154-20.684-22.119c-0.164-0.091-0.321-0.178-0.478-0.265-3.405 1.539-6.759 3.318-10.043 5.331-0.022 0.086-0.043 0.172-0.063 0.258 10.34 2.852 17.925 11.777 23.185 21.145 5.301 9.441 8.989 19.817 15.299 28.617 7.776 10.847 19.447 18.837 32.372 22.164 12.924 3.326 27.003 1.962 39.049-3.783 3.616-1.725 5.268-7.478 4.408-11.39-0-9e-3 -0.01-0.018-0.01-0.027-0.042-0.026-0.075-0.057-0.117-0.082-15.517 7.314-35.11 5.004-48.499-5.72z" fill="#cc5037" />
		<path id="path80-5" d="m1354.2 615.96c7.623 3.501 14.361 10.405 20.081 20.593 2.046 3.643 3.869 7.451 5.632 11.133 2.818 5.885 5.731 11.971 9.532 17.273 7.424 10.355 18.759 18.115 31.096 21.29 12.336 3.178 26.01 1.851 37.51-3.634 2.494-1.19 3.828-5.866 3.17-8.859-0.797-3.627-3.795-6.325-6.172-7.95-1.906-1.304-3.968-2.358-6.151-3.474-1.386-0.709-2.819-1.442-4.213-2.246-15.416-8.897-25.091-27.226-23.894-44.974-19.907-11.962-43.88-11.613-66.591 0.848zm79.918 76.512c-4.971 0-9.932-0.606-14.707-1.835-13.349-3.436-25.614-11.833-33.648-23.038-4.034-5.626-7.034-11.894-9.937-17.956-1.732-3.617-3.521-7.357-5.495-10.872-6.257-11.143-13.671-17.918-22.035-20.138-0.874-0.232-1.526-0.963-1.659-1.858s0.279-1.784 1.049-2.259c25.881-16.003 53.833-16.921 76.688-2.521 0.727 0.458 1.132 1.289 1.045 2.144-1.658 16.469 7.196 33.749 21.532 42.022 1.294 0.747 2.674 1.453 4.009 2.136 2.214 1.132 4.504 2.302 6.647 3.769 3.053 2.087 6.926 5.641 8.039 10.718 1.058 4.807-1.001 11.706-5.645 13.921-7.993 3.813-16.956 5.767-25.883 5.767z" fill="#5c161a" />
		<path id="path81-4" d="m1380.4 604.64c8.811 9.439 15.677 20.687 20.046 32.838-1.122-11.467-3.84-23.906-8.343-34.511-3.301 0.596-8.402 1.077-11.703 1.673z" fill="#5c161a" />
		<path id="path82-1" d="m1335.3 557.44c-11.44 1.674-21.957 8.805-27.747 18.812 8.227-8.032 17.169-14.305 27.747-18.812z" fill="#fff" />
		<path id="path83-8" d="m1452 571.27c-5.696-5.526-12.528-9.877-19.945-12.703 5.321 5.173 13.009 10.064 19.945 12.703z" fill="#fff" />
		<g fill="#5c161a">
			<path id="path84-8" d="m1301.9 638.53c18.197 12.614 38.639 20.716 60.523 24.063-22.316 3.174-46.465-6.453-60.523-24.063z" />
			<path id="path85-3" d="m1472.2 625.41c-4.831 10.102-14.51 17.96-25.41 20.553 7.635-7.992 16.012-14.737 25.41-20.553z" />
			<path id="path86-5" d="m1361.6 551.33c15.14 2.677 30.06 1.812 44.806-2.527-12.048 10.394-31.66 11.477-44.806 2.527z" />
			<path id="path87-2" d="m1375.2 547.07c5.03-1.913 9.611-2.428 14.935-1.61-2.939 5.1-10.973 5.947-14.935 1.61z" />
		</g>
		<path id="path88-2" d="m1447.6 669.4c-8.271 2.667-17.611-0.489-24.117-6.25-6.507-5.761-10.592-13.765-13.701-21.88 8.552 13.864 22.148 23.679 37.818 28.13z" fill="#fff" />
		<path id="path89-6" d="m1471.1 833.73c-12.362-29.072-36.512-49.444-60.985-55.486-29.151-7.197-59.56 6.116-81.863 24.365-12.645 10.346-57.148 55.294-32.063 71.064 5.514 3.467 11.559 1.347 16.986-0.665 45.569-16.898 94.955-21.298 144.27-12.974 11.039 1.864 18.824-11.679 14.085-25.188-0.137-0.391-0.281-0.764-0.43-1.116z" fill="#eb3842" />
		<path id="path90-6" d="m1471.5 834.85c-0.137-0.391-0.281-0.764-0.43-1.116-1.399-3.289-2.968-6.45-4.651-9.508 0.127 2.818-0.179 5.631-1.105 8.3-3.441 9.919-14.306 15.586-24.758 16.577s-20.851-1.672-31.217-3.335c-30.136-4.836-61.599-1.101-89.765 10.656-5.217 2.177-10.797 4.679-16.31 3.426-5.72-1.3-9.892-6.507-11.641-12.112-4.498 10.471-4.652 20.163 4.536 25.939 5.514 3.467 11.559 1.347 16.986-0.665 45.569-16.898 94.955-21.298 144.27-12.974 11.039 1.864 18.823-11.679 14.085-25.188z" fill="#c93039" />
		<path id="path91-7" d="m1455.8 824.8c-10.567-21.723-31.135-36.245-51.949-39.77-24.791-4.198-50.61 7.38-69.529 22.375-10.725 8.501-48.457 44.963-27.104 55.916 4.694 2.408 9.827 0.51 14.436-1.278 38.696-15.011 80.662-20.615 122.59-16.465 9.387 0.93 15.975-9.802 11.92-19.942-0.118-0.293-0.24-0.572-0.368-0.836z" fill="#801e24" />
		<path id="path92-8" d="m1346.5 854.58c10.091-2.195 20.053-4.633 30.273-6.212 16.391-2.534 32.438-4.832 48.742-3.963-1.595-6.878-3.189-13.756-4.784-20.634-1.248-5.387-2.615-11.01-6.254-15.173-3.726-4.26-9.693-6.439-15.287-5.581s-15.123 1.852-14.57 7.485c0.437 4.449 0.874 8.897 1.312 13.346 0.261 2.662 0.514 5.412-0.302 7.959s-2.994 4.858-5.667 4.957c-2.59 0.096-4.902-1.935-5.853-4.346-0.952-2.411-0.796-5.112-0.388-7.671 0.407-2.56 1.052-5.104 1.035-7.695-0.044-6.295-2.943-17.681-9.134-16.548-13.356 2.446-24.166 12.849-30.519 24.849-5.844 11.038-8.503 23.41-10.846 35.708 7.11-3.084 14.62-4.823 22.242-6.481z" fill="#5c161a" />
		<path id="path93" d="m1431.7 827.49c-33.032-6.019-67.395-0.461-97.434 14.539-0.492 5.345-0.985 10.691-1.478 16.036 32.955-11.098 67.983-15.573 103.15-13.179-1.392-5.77-3.199-12.139-4.238-17.396z" fill="#fff" />
		<g fill="#d6d6d6">
			<path id="path94-4" d="m1385 830.82v15.426c1.406-0.172 2.814-0.338 4.224-0.487z" />
			<path id="path95-1" d="m1359.2 850.69-1.53-12.968-2.265 13.852c1.263-0.302 2.527-0.6 3.795-0.884z" />
			<path id="path96-7" d="m1417.5 830.82-0.911 13.446c1.086-4e-3 2.174 0.014 3.262 0.024z" />
		</g>
		<path id="path97-1" d="m1336.4 843.5-1.044 11.333c31.426-10.134 64.232-14.304 97.634-12.4-0.267-1.057-0.543-2.124-0.817-3.192-0.849-3.298-1.722-6.694-2.386-9.785-30.975-5.296-64.024-0.329-93.387 14.044zm-3.618 16.832c-0.503 0-1-0.168-1.406-0.488-0.6-0.475-0.92-1.223-0.851-1.986l1.478-16.035c0.072-0.781 0.543-1.469 1.245-1.819 30.987-15.475 66.098-20.712 98.852-14.741 0.916 0.167 1.638 0.877 1.818 1.79 0.662 3.353 1.669 7.27 2.644 11.06 0.542 2.106 1.083 4.211 1.573 6.244 0.169 0.701-0.01 1.441-0.471 1.993-0.464 0.551-1.172 0.861-1.885 0.798-35.043-2.378-69.445 2.012-102.27 13.066-0.236 0.08-0.48 0.118-0.723 0.118z" fill="#5c161a" />
		<path id="path98-8" d="m1403.9 785.03c-24.791-4.198-50.61 7.38-69.529 22.375-3.855 3.055-11.199 9.723-18.035 17.521 1.304 5.671 2.608 11.343 3.912 17.014 2.399-3.806 6.922-7.448 9.321-11.253 32.875-15.337 71.979-18.69 106.87-8.755 1.54 4.425 2.513 9.692 4.053 14.117 3.244-6.456 6.771-13.177 10.334-19.931-11.332-16.879-29.028-28.057-46.925-31.088z" fill="#fff" />
		<g fill="#d6d6d6">
			<path id="path99-7" d="m1361 820.06-2.532-22.078-4.174 23.722c2.222-0.596 4.457-1.145 6.706-1.644z" />
			<path id="path100-8" d="m1389.7 793.01-4.706 23.65c2.089-0.137 4.179-0.236 6.271-0.289z" />
			<path id="path101-7" d="m1331.6 829.77 3.186-16.723-14.591 28.89c2.399-3.806 6.922-7.448 9.321-11.253 0.687-0.32 1.392-0.604 2.084-0.914z" />
			<path id="path102-7" d="m1407 816.76c2.234 0.169 4.461 0.387 6.683 0.653l-0.345-16.68z" />
			<path id="path103-4" d="m1435.9 808.48-0.17 13.271c0.227 0.063 0.458 0.112 0.684 0.177 1.54 4.425 2.513 9.692 4.053 14.117 0.147-0.29 0.3-0.588 0.448-0.88z" />
		</g>
		<g fill="#5c161a">
			<path id="path104-4" d="m1318.8 825.55 2.586 11.246c0.609-0.684 1.238-1.36 1.857-2.027 1.705-1.835 3.316-3.568 4.403-5.292 0.232-0.368 0.564-0.661 0.959-0.846 33.639-15.688 73.167-18.928 108.45-8.879 0.709 0.202 1.276 0.737 1.519 1.433 0.8 2.3 1.45 4.809 2.08 7.236 0.13 0.503 0.263 1.01 0.395 1.517 2.358-4.596 4.783-9.219 7.129-13.669-10.675-15.26-27.274-26.063-44.659-29.008-29.816-5.031-57.307 13.646-67.745 21.917-3.082 2.443-10.014 8.561-16.972 16.372zm1.443 18.654c-0.126 0-0.252-0.01-0.379-0.033-0.903-0.153-1.624-0.833-1.829-1.725l-3.912-17.015c-0.164-0.71 0.025-1.453 0.504-2.002 6.496-7.409 13.888-14.28 18.331-17.803 23.064-18.279 49.057-26.6 71.314-22.831 19.007 3.217 37.11 15.202 48.427 32.058 0.465 0.692 0.512 1.583 0.124 2.32-3.397 6.439-6.99 13.279-10.312 19.893-0.409 0.813-1.26 1.308-2.173 1.244-0.909-0.061-1.693-0.657-1.993-1.517-0.799-2.3-1.45-4.809-2.08-7.235-0.503-1.94-1.019-3.934-1.603-5.771-33.754-9.304-71.388-6.155-103.56 8.681-1.274 1.872-2.932 3.655-4.54 5.386-1.705 1.835-3.316 3.568-4.403 5.292-0.419 0.666-1.146 1.058-1.916 1.058z" />
			<path id="path105-9" d="m1393.2 786.41c-25.706 0-48.259 15.456-57.486 22.768-9.183 7.28-33.977 31.509-32.63 45.174 0.3 3.054 1.986 5.327 5.153 6.951 3.605 1.85 7.658 0.535 12.582-1.375 38.759-15.034 81.517-20.773 123.64-16.608 3.158 0.316 6.151-1.06 8.191-3.774 2.668-3.552 3.207-8.56 1.403-13.071-0.096-0.238-0.196-0.468-0.303-0.686-9.813-20.173-29.082-34.936-50.288-38.528-3.458-0.584-6.887-0.851-10.259-0.851zm-81.13 80.305c-1.961 0-3.954-0.382-5.901-1.379-4.582-2.351-7.138-5.897-7.596-10.54-1.665-16.911 26.652-43.085 34.327-49.17 23.064-18.279 49.06-26.598 71.314-22.831 22.625 3.829 43.165 19.545 53.608 41.012v1e-3c0.151 0.31 0.295 0.636 0.433 0.981 2.39 5.974 1.629 12.671-1.985 17.478-3.012 4.009-7.489 6.026-12.26 5.564-41.429-4.101-83.454 1.543-121.55 16.322-2.943 1.142-6.603 2.562-10.388 2.562z" />
			<path id="path106-1" d="m1393.4 778.5c-28.577 0-53.306 17.36-63.703 25.867-10.743 8.79-39.878 38.601-38.738 56.897 0.282 4.512 2.391 7.946 6.447 10.496 4.345 2.732 9.156 1.291 14.993-0.873 45.624-16.919 95.91-21.442 145.43-13.084 3.456 0.587 6.701-0.686 9.134-3.572 3.848-4.566 4.804-11.879 2.437-18.632-0.121-0.341-0.245-0.667-0.378-0.975 0-2e-3 0-2e-3 -1e-3 -3e-3 -11.574-27.221-34.351-47.979-59.442-54.174-5.481-1.353-10.898-1.947-16.183-1.947zm-90.639 99.283c-2.58 0-5.217-0.584-7.768-2.187-5.304-3.336-8.184-8.063-8.557-14.051-1.36-21.832 31.514-53.421 40.391-60.686 27.152-22.216 57.711-31.264 83.842-24.811 26.447 6.529 50.406 28.294 62.527 56.8 0.168 0.395 0.329 0.813 0.482 1.251 2.89 8.236 1.614 17.285-3.246 23.052-3.459 4.105-8.327 5.965-13.354 5.122-48.737-8.23-98.223-3.779-143.1 12.862-3.206 1.189-7.137 2.647-11.214 2.648z" />
			<path id="path107-5" d="m1343.8 873.01c14.472-5.143 29.708-7.759 44.973-9.072 15.284-1.078 30.743-0.86 45.836 1.987-15.155 0.802-30.385 1.279-45.484 2.528-15.135 1.11-30.199 2.981-45.325 4.557z" />
			<path id="path108-5" d="m1379.6 873.62c15.378-3.493 31.415-3.913 46.946-1.159-15.376 3.518-31.414 3.89-46.946 1.159z" />
			<path id="path109-5" d="m1293.9 827.94c9.184-20.135 27.987-36.113 49.364-41.867-18.556 11.543-34.964 25.427-49.364 41.867z" />
			<path id="path110-8" d="m1442.1 786.61c16.202 5.716 29.523 20.058 33.97 36.66-10.111-13.533-21.228-25.566-33.97-36.66z" />
		</g>
	</g>
</svg>
