<?xml version="1.0" encoding="UTF-8"?>
<svg width="208.83" height="99.252" data-v-7a7a37b1="" version="1.1" viewBox="0 0 208.83 99.252" xml:space="preserve" xmlns="http://www.w3.org/2000/svg">
	<g clip-rule="evenodd" stroke-linejoin="round" stroke-miterlimit="2" stroke-width=".85312">
		<path d="m187.82 39.232c-3.76-12.987-8.53-27.295-20.16-33.64-8.34-4.548-18.34-3.868-27.75-3.071-23.02 1.95-47.05 1.952-70.09 0-9.41-0.797-19.41-1.477-27.75 3.071-11.63 6.345-16.4 20.653-20.16 33.64-3.75 12.942-7.03 28.434 1.44 38.739 6.88 8.364 18.74 9.652 29.36 10.337 35.01 2.257 69.32 2.256 104.31 0 10.62-0.685 22.48-1.973 29.36-10.337 8.47-10.305 5.19-25.797 1.44-38.739z" fill="#eb3842" />
		<path d="m188.39 41.253c0.15 3.663 0.1 7.324-0.35 10.971-1.14 9.778-5.12 19.607-12.68 25.643-7.22 5.768-16.71 7.411-25.8 8.445-31.15 3.544-62.84 2.095-93.57-4.281-8.54-1.772-17.37-4.113-23.9-10.045-5.79-5.266-9.16-12.898-10.75-20.686-0.43-2.131-0.73-4.282-0.96-6.443-2.91 11.599-4.31 24.267 2.97 33.114 6.88 8.363 18.74 9.652 29.36 10.337 35.01 2.257 69.32 2.256 104.31 0 10.62-0.685 22.48-1.974 29.36-10.337 8.04-9.775 5.49-24.212 2.01-36.718z" fill="#c93039" />
		<path d="m59.279 3.8729c-5.61 0-11.35 0.727-16.29 3.416-10.77 5.875-15.4 19.267-19.23 32.48-3.96 13.702-6.57 27.664 1.09 36.973 6.27 7.632 17.27 8.946 27.99 9.637 35.01 2.257 69.04 2.257 104.05 0 10.72-0.691 21.71-2.005 28-9.637 7.65-9.308 5.04-23.272 1.08-36.973-3.83-13.214-8.46-26.606-19.23-32.48-8.1-4.415-18.39-3.544-26.66-2.841-23.04 1.951-47.39 1.951-70.43 0-3.23-0.275-6.77-0.575-10.37-0.575zm45.59 88.065c-17.35 0-34.69-0.567-52.28-1.7-11.57-0.747-23.47-2.213-30.73-11.04-8.82-10.72-5.86-26.491-1.81-40.504 4.05-13.996 9.02-28.211 21.09-34.798 9.12-4.973 20.05-4.047 28.84-3.301 22.82 1.933 46.95 1.933 69.77 0 8.79-0.743 19.72-1.671 28.84 3.301 12.07 6.586 17.04 20.801 21.09 34.798 4.05 14.014 7.01 29.785-1.81 40.504-7.26 8.827-19.16 10.293-30.73 11.04-17.59 1.133-34.93 1.7-52.27 1.7z" fill="#5c161a" />
		<path d="m174.03 39.469c-3.13-10.518-7.11-22.106-16.81-27.243-6.95-3.684-15.29-3.134-23.13-2.489-19.2 1.58-39.24 1.581-58.45 0-7.84-0.645-16.18-1.195-23.13 2.489-9.7 5.137-13.68 16.725-16.81 27.243-3.13 10.482-5.87 23.029 1.2 31.375 5.74 6.774 15.62 7.818 24.48 8.372 29.19 1.828 57.8 1.827 86.97 0 8.86-0.554 18.74-1.598 24.48-8.372 7.07-8.346 4.33-20.893 1.2-31.375z" fill="#801e24" />
		<path d="m164.61 18.487c2.66 15.591 3.45 31.501 2.27 47.274-2.64-3.039-5.29-6.078-7.93-9.117-1.78 7.383-3.56 14.767-5.34 22.151 7.3-0.761 14.6-2.499 19.22-7.951 7.07-8.346 4.33-20.893 1.2-31.375-2.18-7.323-4.77-15.159-9.42-20.982z" fill="#6e1a1f" />
		<path d="m53.059 78.411c-0.1-0.01-0.12-0.03-0.18-0.04-1.25-10.076-2.51-20.153-3.76-30.23-2.83 3.282-5.65 6.564-8.48 9.846 2.99-14.632 5.98-29.265 8.97-43.897-7.63 5.742-11.11 15.979-13.91 25.376-3.13 10.482-5.87 23.029 1.2 31.375 3.97 4.69 9.93 6.631 16.16 7.567z" fill="#6e1a1f" />
		<path d="m128.63 39.511c-3.12-1.181-6.48-2.043-9.76-1.483s-6.44 2.842-7.18 6.087c-0.54 2.366 0.24 4.851-0.1 7.254-0.45 3.341-3.27 6.22-6.59 6.755-3.33 0.534-6.91-1.319-8.39-4.348-1.39-2.863-0.98-6.34-2.29-9.243-1.95-4.31-7.38-6.191-12.04-5.385-4.66 0.807-8.67 3.713-12.25 6.812-9.85 8.531-17.83 19.198-23.25 31.047 4.61 1.45 9.75 1.906 14.59 2.209 29.19 1.828 57.8 1.827 86.97 0 3.5-0.219 7.16-0.521 10.66-1.216-2.42-16.915-14.33-32.396-30.38-38.489z" fill="#5c161a" />
		<path d="m140.6 49.621c-1.97 4.379-5.52 9.677-7.49 14.057-21.32-3.83-42.61-3.504-63.56 2.008-3.62-4.242-6.91-9.364-10.53-13.606-3.97 8.249-7.94 16.498-11.91 24.746 0 0.1 0 0.195 0.1 0.292 4.51 1.36 9.51 1.803 14.22 2.098 29.19 1.828 57.8 1.827 86.97 0 4.01-0.251 8.23-0.609 12.18-1.547-5.16-10.099-12.53-19.622-19.93-28.048z" fill="#fff" />
		<g fill="#d6d6d6">
			<path d="m114.76 61.444v13.464l3.37-13.215c-1.12-0.1-2.25-0.177-3.37-0.249z" />
			<path d="m73.219 64.777c-1.22 0.287-2.44 0.587-3.67 0.909-2.14-2.515-4.18-5.339-6.23-8.107l-0.95 1.641 13.82 20.749c0.31 0.01 0.62 0.02 0.93 0.04z" />
			<path d="m136.3 57.62c-1.19 2.091-2.34 4.162-3.19 6.058-0.37-0.07-0.74-0.121-1.1-0.185l-2.44 10.607 6.73-13.461z" />
			<path d="m91.699 61.77v14.484l3.23-14.752c-1.08 0.08-2.15 0.166-3.23 0.268z" />
		</g>
		<path d="m165.62 19.84c-2.22-3.127-4.94-5.785-8.4-7.614-6.95-3.684-15.29-3.134-23.13-2.489-19.2 1.58-39.24 1.581-58.45 0-7.84-0.645-16.18-1.195-23.13 2.489-0.59 0.313-1.16 0.651-1.71 1.01 0.36 10.711 0.72 21.422 1.09 32.132 4.85-5.608 10.4-10.87 15.25-16.478 24.83 8.163 52.12 8.756 77.07 0.937 3.37 5.497 6.51 11.408 9.89 16.905 4.03-8.793 7.72-17.892 11.52-26.892z" fill="#fff" />
		<g fill="#d6d6d6">
			<path d="m141.3 30.673c0.97-0.277 1.94-0.543 2.91-0.846 0.71 1.157 1.4 2.339 2.1 3.524l0.92-1.968-6.53-12.896z" />
			<path d="m70.509 29.925 2.37-10.64-10.51 11.781 0.83 2.177c1.35-1.436 2.67-2.882 3.94-4.353 1.12 0.366 2.24 0.699 3.37 1.035z" />
			<path d="m118.25 22.947-0.76 12.001c1.38-0.11 2.76-0.238 4.14-0.394z" />
			<path d="m93.579 34.583v-12.591c0-0.304-2.18 6.869-3.76 12.132 1.25 0.173 2.5 0.323 3.76 0.459z" />
			<path d="m53.359 11.811c32.93 11.872 70.06 11.759 103.02 0-6.78-3.218-14.76-2.696-22.29-2.077-19.2 1.58-39.24 1.581-58.45 0-7.52-0.619-15.5-1.14-22.28 2.074z" />
		</g>
		<g fill="#5c161a">
			<path d="m49.749 75.809c3.91 0.922 8.07 1.248 11.75 1.478 29.18 1.828 57.55 1.828 86.73 0 3.08-0.193 6.3-0.451 9.39-0.993-3.96-7.204-9.41-14.838-16.58-23.208-0.78 1.491-1.65 3.023-2.51 4.524-1.33 2.338-2.71 4.757-3.66 6.862-0.36 0.808-1.22 1.263-2.1 1.109-21.77-3.912-42.88-3.248-62.73 1.974-0.71 0.188-1.47-0.05-1.96-0.614-1.85-2.173-3.63-4.582-5.35-6.91-1.07-1.457-2.17-2.946-3.29-4.37zm55.11 6.715c-14.47 0-28.93-0.459-43.6-1.379-4.54-0.284-9.79-0.71-14.66-2.176-0.7-0.212-1.22-0.806-1.35-1.531v-0.137c-0.1-0.421-0.1-0.926 0.14-1.313l11.91-24.746c0.28-0.589 0.84-0.995 1.49-1.078 0.65-0.09 1.3 0.164 1.72 0.661 1.85 2.173 3.63 4.581 5.35 6.909 1.44 1.944 2.91 3.944 4.41 5.774 19.6-4.968 40.36-5.637 61.74-1.987 0.94-1.888 2.07-3.884 3.18-5.825 1.34-2.341 2.72-4.762 3.66-6.868 0.27-0.599 0.83-1.02 1.48-1.119 0.65-0.1 1.31 0.141 1.74 0.637 9.11 10.37 15.72 19.673 20.21 28.441 0.27 0.529 0.28 1.153 0 1.691-0.25 0.538-0.73 0.933-1.31 1.071-4.09 0.971-8.43 1.341-12.51 1.596-14.67 0.919-29.14 1.379-43.61 1.379z" />
			<path d="m144.21 27.895c0.66 0 1.29 0.337 1.64 0.921 1.71 2.775 3.37 5.688 4.98 8.505 0.99 1.734 2 3.505 3.03 5.252 2.48-5.572 4.87-11.291 7.2-16.854 0.78-1.873 1.56-3.747 2.35-5.617-2.09-2.729-4.42-4.752-7.09-6.169-6.68-3.536-15.21-2.834-22.07-2.269-19.22 1.58-39.54 1.58-58.77 0-6.86-0.565-15.39-1.267-22.07 2.269-0.21 0.114-0.43 0.233-0.64 0.359l0.89 26.215c1.48-1.598 2.98-3.171 4.46-4.714 2.54-2.655 5.16-5.4 7.56-8.169 0.51-0.589 1.33-0.814 2.07-0.57 24.82 8.156 51.76 8.488 75.88 0.93 0.19-0.06 0.38-0.09 0.58-0.09zm9.88 20.77c-0.67 0-1.29-0.347-1.64-0.922-1.71-2.775-3.37-5.687-4.98-8.505-1.34-2.358-2.73-4.784-4.14-7.122-24.1 7.219-50.83 6.869-75.57-0.996-2.22 2.506-4.57 4.961-6.85 7.345-2.54 2.656-5.17 5.401-7.56 8.169-0.52 0.6-1.36 0.823-2.11 0.557s-1.26-0.963-1.29-1.757l-1.08-32.132c0-0.676 0.3-1.314 0.87-1.684 0.61-0.402 1.24-0.771 1.86-1.1 7.68-4.067 16.84-3.313 24.2-2.707 19.02 1.564 39.12 1.566 58.13 0 7.36-0.604 16.53-1.359 24.2 2.707 3.49 1.849 6.46 4.532 9.07 8.202 0.38 0.546 0.46 1.254 0.2 1.872-0.93 2.202-1.85 4.41-2.77 6.619-2.81 6.715-5.71 13.658-8.78 20.328-0.3 0.648-0.93 1.08-1.64 1.123 0 1e-3 -0.1 0-0.12 0z" />
			<path d="m66.859 11.199c-4.64 0-9.39 0.584-13.45 2.734-8.86 4.696-12.69 15.462-15.86 26.088-3.27 10.987-5.44 22.175 0.83 29.574 5.15 6.084 14.25 7.136 23.12 7.692 29.18 1.828 57.55 1.828 86.73 0 8.88-0.556 17.97-1.608 23.12-7.692 6.27-7.399 4.11-18.587 0.83-29.574-3.16-10.626-7-21.393-15.86-26.088-6.68-3.537-15.21-2.834-22.07-2.269-19.22 1.58-39.54 1.58-58.77 0-2.69-0.222-5.63-0.465-8.62-0.465zm38 71.325c-14.46 0-28.93-0.459-43.6-1.379-9.71-0.607-19.7-1.808-25.83-9.052-7.48-8.825-5-21.723-1.59-33.175 3.4-11.411 7.58-23.005 17.76-28.401 7.68-4.066 16.84-3.312 24.2-2.706 19.02 1.564 39.12 1.566 58.13 0 7.36-0.604 16.53-1.359 24.2 2.707 10.18 5.395 14.36 16.988 17.76 28.4 3.41 11.452 5.89 24.35-1.59 33.175-6.13 7.244-16.12 8.445-25.83 9.052-14.67 0.92-29.14 1.379-43.61 1.379z" />
		</g>
		<path d="m48.649 8.5049c-5.36 1.383-9.76 5.341-12.82 9.957-3.05 4.614-4.92 9.89-6.77 15.106 5.51-9.32 11.8-17.539 19.59-25.063z" fill="#fff" />
		<path d="m166.48 11.598c6.71 6.275 11.39 14.692 13.18 23.706-4.92-7.303-9.22-15.835-13.18-23.706z" fill="#fff" />
		<g fill="#5c161a">
			<path d="m74.529 96.946c12.09-1.423 24.72-1.588 36.9-1.562 12.18 0.213 24.79 0.628 36.86 2.303-12.1 1.433-24.73 1.595-36.9 1.561-12.18-0.219-24.79-0.635-36.86-2.302z" />
			<path d="m20.139 25.501c-4.82 11.352-8.28 22.667-10.68 34.765-3.11-12.235 1.25-26.38 10.68-34.765z" />
			<path d="m5.0194 42.359c0.1 8.61-1.06 16.875-3.43 25.155-3.02-8.223-1.66-18.034 3.43-25.155z" />
			<path d="m194.51 33.942c8.15 10.552 9.49 26.338 3.2 38.097 0.87-12.969-0.16-25.457-3.2-38.097z" />
			<path d="m206.58 52.279c4.45 10.561 2.16 23.964-5.59 32.419 2.76-10.822 4.59-21.294 5.59-32.419z" />
		</g>
	</g>
</svg>
